<svg id="logo" xmlns="http://www.w3.org/2000/svg" width="273" height="91" viewBox="0 0 273 91">
  <defs>
    <style>
      .cls-1, .cls-2 {
        fill: #fff;
      }

      .cls-1 {
        fill-rule: evenodd;
      }
    </style>
  </defs>
  <path id="С" class="cls-1" d="M48.725,32.794v1.144H59.461V32.794H57.129q-0.176-.616-0.462-1.342a6.18,6.18,0,0,0-.77-1.386,5.46,5.46,0,0,0-1.562-1.606A20.4,20.4,0,0,0,52.4,27.338q-1.034-.528-2.178-1.188A10.529,10.529,0,0,1,47.933,24.3Q46.3,26.15,44.325,28.218a39.458,39.458,0,0,0-3.7,4.491,25.541,25.541,0,0,0-2.882,5.358,17.477,17.477,0,0,0-1.166,6.508,7.266,7.266,0,0,0,.946,3.793,12.782,12.782,0,0,0,2.266,2.818A29.187,29.187,0,0,0,42.5,53.43,11.351,11.351,0,0,1,44.721,55.5a2.836,2.836,0,0,1,.462.814,9.339,9.339,0,0,1,.352,1.122,11.763,11.763,0,0,1,.242,1.276,9.7,9.7,0,0,1,.088,1.276A19.064,19.064,0,0,0,48.557,58.8a27.566,27.566,0,0,0,2.78-1.694,25.2,25.2,0,0,0,2.626-2.09,15.907,15.907,0,0,0,2.185-2.42A20.183,20.183,0,0,0,57.6,50.328a16.9,16.9,0,0,0,.883-1.914h2.427V47.27H50.133v1.144h2.376a13.128,13.128,0,0,1,.176,1.452q0.043,0.7.044,1.1a9.366,9.366,0,0,1-.154,1.65,5.356,5.356,0,0,1-.748,1.826,8.733,8.733,0,0,1-1.768,1.98,16.306,16.306,0,0,1-3.27,2.068,8.74,8.74,0,0,0,1.1-3.388,11.753,11.753,0,0,0,.066-1.606q-0.023-.814-0.022-1.826a5.435,5.435,0,0,0-.418-2.134,12.308,12.308,0,0,0-1.056-1.96q-0.638-.97-1.364-1.964a20.47,20.47,0,0,1-1.364-2.14A13.267,13.267,0,0,1,42.675,41a9.778,9.778,0,0,1-.418-2.956,14.24,14.24,0,0,1,.594-4.3A16.062,16.062,0,0,1,44.3,30.418a14.245,14.245,0,0,1,1.848-2.508q0.99-1.056,1.782-1.848,0.835,1.277,1.43,2.024t0.99,1.276a3.668,3.668,0,0,1,.572,1.078,4.818,4.818,0,0,1,.176,1.43v0.924H48.725Z"/>
  <path id="Д" class="cls-1" d="M17.434,23.525v1.144H19.81v2.72A63.25,63.25,0,0,0,15.1,33.246a47.411,47.411,0,0,0-3.872,6.471,37.628,37.628,0,0,0-2.64,7,28.645,28.645,0,0,0-.968,7.435H3.53v1.144a3.707,3.707,0,0,1,.946,1.474A9.862,9.862,0,0,1,4.96,58.7a16.4,16.4,0,0,1,.176,2.046q0.022,1.012.022,1.8H6.082v-0.22a6.679,6.679,0,0,1,.528-2.618,8.047,8.047,0,0,1,1.408-2.244,6.734,6.734,0,0,1,2.09-1.584,5.858,5.858,0,0,1,2.618-.594h8.58a5.329,5.329,0,0,1,2.64.638,6.361,6.361,0,0,1,1.936,1.65,7.389,7.389,0,0,1,1.21,2.31,8.637,8.637,0,0,1,.418,2.662h0.924q0-.792.022-1.8a16.119,16.119,0,0,1,.176-2.046,9.817,9.817,0,0,1,.484-1.936,3.7,3.7,0,0,1,.946-1.474V54.149H25.97V24.669h2.2V23.525H17.434ZM19.81,54.149H9.162a28.919,28.919,0,0,1,.814-7,32.736,32.736,0,0,1,2.244-6.259,41.405,41.405,0,0,1,3.388-5.8q1.957-2.811,4.2-5.622V54.149Z"/>
  <g id="Низ">
    <rect id="Прямоугольник_3" data-name="Прямоугольник 3" class="cls-2" x="63" y="66" width="2" height="25"/>
    <rect id="Прямоугольник_10" data-name="Прямоугольник 10" class="cls-2" x="7" y="82" width="51" height="2"/>
    <rect id="Прямоугольник_8" data-name="Прямоугольник 8" class="cls-2" y="89" width="65" height="2"/>
    <rect id="Прямоугольник_1" data-name="Прямоугольник 1" class="cls-2" y="66" width="2" height="25"/>
    <rect id="Прямоугольник_12" data-name="Прямоугольник 12" class="cls-2" x="7" y="74" width="51" height="2"/>
    <rect id="Прямоугольник_11" data-name="Прямоугольник 11" class="cls-2" x="7" y="78" width="51" height="2"/>
  </g>
  <g id="Верх">
    <rect id="Прямоугольник_4" data-name="Прямоугольник 4" class="cls-2" x="7" y="15" width="51" height="2"/>
    <rect id="Прямоугольник_4-2" data-name="Прямоугольник 4" class="cls-2" x="7" y="7" width="51" height="2"/>
    <rect id="Прямоугольник_4-3" data-name="Прямоугольник 4" class="cls-2" x="7" y="11" width="51" height="2"/>
    <rect id="Прямоугольник_3-2" data-name="Прямоугольник 3" class="cls-2" x="63" width="2" height="25"/>
    <rect id="Прямоугольник_1-2" data-name="Прямоугольник 1" class="cls-2" width="2" height="25"/>
    <rect id="Прямоугольник_2" data-name="Прямоугольник 2" class="cls-2" width="65" height="2"/>
  </g>
  <path id="ДАВНЯЯ" class="cls-1" d="M117.339,33.809V10.758h2.7a0.894,0.894,0,0,0,.666-0.314,1.018,1.018,0,0,0,.3-0.721,0.888,0.888,0,0,0-.277-0.647A0.93,0.93,0,0,0,120.04,8.8H96.953a0.948,0.948,0,0,0-.925.925,1.082,1.082,0,0,0,.259.74,0.842,0.842,0,0,0,.666.3h4.513a45.6,45.6,0,0,1-1.775,11.433,38.628,38.628,0,0,1-5.513,11.618H92.069a0.9,0.9,0,0,0-.684.3,0.994,0.994,0,0,0-.278.7V41.1a0.962,0.962,0,0,0,.3.7,0.92,0.92,0,0,0,.666.3,1.011,1.011,0,0,0,1-1V35.77H119.3V41.1a1.015,1.015,0,0,0,.962.962,0.991,0.991,0,0,0,.7-0.278,0.9,0.9,0,0,0,.3-0.684v-6.29a1.011,1.011,0,0,0-1-1h-2.923Zm-2,0h-4.292V10.758h4.292V33.809Zm-6.253-23.051V33.809H96.583a39.58,39.58,0,0,0,4.995-11.1,42.617,42.617,0,0,0,1.85-11.951h5.661Zm40.885,23.051L140.094,9.426a0.741,0.741,0,0,0-.888-0.629h-3.034a0.89,0.89,0,0,0-.925.592l-0.037.037-1.665,4.551v0.074l-4.514,11.211h-0.037v0.074l-3.441,8.473h-3.182a0.9,0.9,0,0,0-.684.3,0.994,0.994,0,0,0-.278.7,1.015,1.015,0,0,0,.962.962H132.62a1.015,1.015,0,0,0,.962-0.962,0.963,0.963,0,0,0-.3-0.7,0.92,0.92,0,0,0-.666-0.3H127.7l2.849-7.215h7.807l2.923,7.215h-3.145a1.086,1.086,0,0,0-1,1,0.921,0.921,0,0,0,.3.666,0.959,0.959,0,0,0,.7.3h13.653a1.015,1.015,0,0,0,.962-0.962,0.963,0.963,0,0,0-.3-0.7,0.92,0.92,0,0,0-.666-0.3h-1.813Zm-6.586,0-7.881-19.462,1.332-3.589h1.7l9.324,23.051h-4.477Zm-12.025-9.176,3.071-7.659,3.108,7.659h-6.179Zm42.513-3.33q4.365-1.776,4.366-5.957,0-4.4-4.588-5.772Q170.989,8.8,164.107,8.8H153.932a0.949,0.949,0,0,0-.962.962,0.992,0.992,0,0,0,.278.7,0.9,0.9,0,0,0,.684.3h2.7V33.809h-2.7a0.949,0.949,0,0,0-.962.962,0.957,0.957,0,0,0,.3.7,0.918,0.918,0,0,0,.666.3h9.953q7.622,0,10.582-1a6.829,6.829,0,0,0,5.069-7.067,5.712,5.712,0,0,0-2-4.7,9.208,9.208,0,0,0-3.663-1.7h0Zm-9.028-.666V10.8a6.015,6.015,0,0,1,3.293,1.258,4.3,4.3,0,0,1,1.221,3.293,6.22,6.22,0,0,1-.462,2.479,3.846,3.846,0,0,1-1.221,1.628,8.182,8.182,0,0,1-1.314.814,5.04,5.04,0,0,1-1.073.37h-0.444Zm0.888,2.035a6.5,6.5,0,0,1,3.515,1.517,4.529,4.529,0,0,1,1.332,3.515,5.058,5.058,0,0,1-1.646,4.07,8.773,8.773,0,0,1-4.089,1.887V22.672h0.888Zm3.737-2.22a5.377,5.377,0,0,0,1-1.406,7.87,7.87,0,0,0,.851-3.7,6.246,6.246,0,0,0-1.554-4.44,11.994,11.994,0,0,1,4.625,1.036,3.583,3.583,0,0,1,1.887,3.4,3.945,3.945,0,0,1-1.924,3.478,11.96,11.96,0,0,1-4.884,1.628h0Zm0.3,13.135A8.7,8.7,0,0,0,171.322,32a7.612,7.612,0,0,0,1.221-4.292,6.449,6.449,0,0,0-1.961-4.921V22.746a14.39,14.39,0,0,1,4.958,1.221,3.947,3.947,0,0,1,2.072,3.737,4.823,4.823,0,0,1-2.368,4.588,13.7,13.7,0,0,1-5.476,1.3h0Zm-6.919.222h-4.255V10.758h4.255V33.809Zm46.1,0V10.758h2.7a1.015,1.015,0,0,0,.962-0.962,0.994,0.994,0,0,0-.278-0.7,0.9,0.9,0,0,0-.684-0.3H198.184a0.9,0.9,0,0,0-.685.3,0.993,0.993,0,0,0-.277.7,1.015,1.015,0,0,0,.962.962H200.7v9.953h-8.695V10.758h2.627a0.887,0.887,0,0,0,.647-0.277,0.93,0.93,0,0,0,.278-0.684,0.994,0.994,0,0,0-.278-0.7,0.862,0.862,0,0,0-.647-0.3H181.09a0.92,0.92,0,0,0-.666.3,0.959,0.959,0,0,0-.3.7,1.015,1.015,0,0,0,.962.962h2.7V33.809h-2.7a0.92,0.92,0,0,0-.666.3,0.959,0.959,0,0,0-.3.7,1.015,1.015,0,0,0,.962.962h13.542a0.871,0.871,0,0,0,.666-0.278,0.968,0.968,0,0,0,.259-0.684,0.994,0.994,0,0,0-.278-0.7,0.862,0.862,0,0,0-.647-0.3h-2.627v-11.1H200.7v11.1h-2.516a0.9,0.9,0,0,0-.685.3,0.994,0.994,0,0,0-.277.7,0.947,0.947,0,0,0,.962.962h13.468a0.949,0.949,0,0,0,.962-0.962,0.994,0.994,0,0,0-.278-0.7,0.9,0.9,0,0,0-.684-0.3h-2.7Zm-1.924,0h-4.292V10.758h4.292V33.809Zm-16.983,0h-4.255V10.758h4.255V33.809Zm48.544,0V10.758h2.959a0.9,0.9,0,0,0,.685-0.3,1.039,1.039,0,0,0,.277-0.74,0.862,0.862,0,0,0-.295-0.647,0.952,0.952,0,0,0-.667-0.277H230.262q-6.771,0-9.4.962a5.94,5.94,0,0,0-4.181,6.068,6.841,6.841,0,0,0,1.738,4.7,8.355,8.355,0,0,0,3.849,2.405,10.876,10.876,0,0,0-4.07,4.921q-1.407,2.961-2.443,5.18a4.589,4.589,0,0,1-.369.777h-2.072a0.888,0.888,0,0,0-.648.278,0.93,0.93,0,0,0-.277.684,0.978,0.978,0,0,0,.3.684,0.86,0.86,0,0,0,.629.315h9.472a0.865,0.865,0,0,0,.888-0.629h0.037q0.924-2.553,2.423-5.809a16.518,16.518,0,0,1,2.387-4.144,6.275,6.275,0,0,1,1.887-1.332v9.953h-2.7a0.956,0.956,0,0,0-.648,1.665,0.98,0.98,0,0,0,.685.3h13.542a0.915,0.915,0,0,0,.721-0.315,1.014,1.014,0,0,0,.278-0.684,0.9,0.9,0,0,0-.3-0.684,1.039,1.039,0,0,0-.739-0.278h-2.664Zm-2,0h-4.181V10.758h4.219ZM223.454,16.086a7.486,7.486,0,0,0,2.591,5.661q-1.3-.185-2.184-0.333-5.18-1.295-5.179-5.587a3.913,3.913,0,0,1,2-3.774,12.2,12.2,0,0,1,4.848-1.11,5.978,5.978,0,0,0-1.295,1.7,7.442,7.442,0,0,0-.778,3.441h0Zm3.7,7.733q-1.556,1.443-4.847,9.4a5.28,5.28,0,0,1-.223.592h-4.514c0.05-.123.154-0.357,0.315-0.7s0.333-.715.518-1.11,0.376-.789.574-1.184q0.111-.222.444-0.962c0.222-.493.406-0.888,0.555-1.184a8.974,8.974,0,0,1,2.9-3.774,8.8,8.8,0,0,1,4.311-1.073h-0.037Zm3.256-2a5.863,5.863,0,0,1-3.552-2.017,5.5,5.5,0,0,1-1.48-3.719,4.967,4.967,0,0,1,1.35-3.589,5.96,5.96,0,0,1,3.682-1.7V21.821Zm38.22,11.988V10.758h2.96a0.9,0.9,0,0,0,.685-0.3,1.039,1.039,0,0,0,.277-0.74,0.863,0.863,0,0,0-.3-0.647,0.952,0.952,0,0,0-.666-0.277H260.306q-6.771,0-9.4.962a5.94,5.94,0,0,0-4.181,6.068,6.837,6.837,0,0,0,1.739,4.7,8.347,8.347,0,0,0,3.848,2.405,10.882,10.882,0,0,0-4.07,4.921q-1.407,2.961-2.442,5.18a4.645,4.645,0,0,1-.37.777H243.36a0.887,0.887,0,0,0-.647.278,0.931,0.931,0,0,0-.278.684,0.982,0.982,0,0,0,.3.684,0.863,0.863,0,0,0,.629.315h9.472a0.865,0.865,0,0,0,.888-0.629h0.037q0.924-2.553,2.424-5.809a16.557,16.557,0,0,1,2.386-4.144,6.287,6.287,0,0,1,1.887-1.332v9.953h-2.7a0.956,0.956,0,0,0-.647,1.665,0.977,0.977,0,0,0,.684.3h13.542a0.917,0.917,0,0,0,.722-0.315,1.013,1.013,0,0,0,.277-0.684,0.9,0.9,0,0,0-.3-0.684,1.041,1.041,0,0,0-.74-0.278h-2.664Zm-2,0h-4.181V10.758h4.218ZM253.5,16.086a7.485,7.485,0,0,0,2.59,5.661q-1.3-.185-2.183-0.333-5.181-1.295-5.18-5.587a3.913,3.913,0,0,1,2-3.774,12.194,12.194,0,0,1,4.847-1.11,5.978,5.978,0,0,0-1.295,1.7,7.442,7.442,0,0,0-.777,3.441h0Zm3.7,7.733q-1.554,1.443-4.847,9.4a5.56,5.56,0,0,1-.222.592h-4.514q0.073-.185.315-0.7T248.448,32c0.185-.394.375-0.789,0.573-1.184q0.111-.222.444-0.962t0.555-1.184a8.974,8.974,0,0,1,2.905-3.774,8.8,8.8,0,0,1,4.31-1.073H257.2Zm3.256-2A5.863,5.863,0,0,1,256.9,19.8a5.5,5.5,0,0,1-1.48-3.719,4.968,4.968,0,0,1,1.351-3.589,5.96,5.96,0,0,1,3.681-1.7V21.821Z"/>
  <path id="СУДЖ" class="cls-1" d="M116.282,75.625a0.73,0.73,0,0,0-.77.525,5.039,5.039,0,0,1-.35.525,13.879,13.879,0,0,1-2.625,3.5A6.275,6.275,0,0,1,109,81.19a6.019,6.019,0,0,1-2.73-.63q-3.921-2.239-3.92-9.24,0-5.215,1.645-8.085a5.793,5.793,0,0,1,4.655-3.045,7.533,7.533,0,0,1,3.605,1.855,16.7,16.7,0,0,1,2.94,3.885v2.31a0.822,0.822,0,0,0,.262.63,0.913,0.913,0,0,0,.648.245,0.88,0.88,0,0,0,.647-0.263,0.84,0.84,0,0,0,.263-0.612V59.455a0.91,0.91,0,1,0-1.82,0V62.57a12,12,0,0,0-2.7-2.73,8.694,8.694,0,0,0-5.04-1.54,14.094,14.094,0,0,0-5.74,1.155,12.691,12.691,0,0,0-4.2,2.975,12.884,12.884,0,0,0-3.43,8.89q0,6.23,4.095,9.8a12.516,12.516,0,0,0,4.165,2.415,13.7,13.7,0,0,0,4.62.77,9.514,9.514,0,0,0,5.74-1.89,15.618,15.618,0,0,0,4.41-5.46,0.932,0.932,0,0,0,.035-0.665,0.863,0.863,0,0,0-.42-0.525,0.71,0.71,0,0,0-.455-0.14h0Zm-15.75-4.3q0,8.05,4.9,10.85a5.368,5.368,0,0,0,.63.28,11.953,11.953,0,0,1-3.8-.875,10.975,10.975,0,0,1-3.22-2.065,9.157,9.157,0,0,1-2.292-3.448,12.764,12.764,0,0,1-.84-4.742,11.643,11.643,0,0,1,1.995-6.458,10.021,10.021,0,0,1,5.74-4.182,9.055,9.055,0,0,0-1.89,2.975,20.345,20.345,0,0,0-1.225,7.665h0Zm37.135-12.775a0.9,0.9,0,0,0-.91.91,0.814,0.814,0,0,0,.28.612,0.9,0.9,0,0,0,.63.263h4.655l-5.25,10.4-6.16-10.36h2.905a0.941,0.941,0,0,0,.665-0.263,0.854,0.854,0,0,0,.28-0.647,0.88,0.88,0,0,0-.263-0.648,0.922,0.922,0,0,0-.682-0.263h-12.95a0.9,0.9,0,0,0-.91.91,0.851,0.851,0,0,0,.28.647,0.9,0.9,0,0,0,.63.263h1.26L132.872,78.25a0.031,0.031,0,0,0-.035.035V78.32l-0.07.1a11.417,11.417,0,0,1-2.1,2.765,2.715,2.715,0,0,0,.07-0.7,3.882,3.882,0,0,0-1.085-2.783,3.576,3.576,0,0,0-2.695-1.137,3.4,3.4,0,0,0-2.625,1.155,4.025,4.025,0,0,0-.035,5.46,3.631,3.631,0,0,0,2.66,1.12,7.319,7.319,0,0,0,5.075-1.855,12.271,12.271,0,0,0,2.38-3.22h0.035a0.273,0.273,0,0,0,.035-0.105,0.8,0.8,0,0,1,.14-0.21l0.14-.28,3.115-5.565V73.035l6.51-12.7H146.8a0.941,0.941,0,0,0,.665-0.263,0.817,0.817,0,0,0,.28-0.612,0.88,0.88,0,0,0-.263-0.648,0.922,0.922,0,0,0-.682-0.263h-9.135Zm-3.78,17.85-9.59-16.03h4.48l7.28,12.25Zm-5.548,5.5a1.943,1.943,0,0,1-2.747-.017,1.913,1.913,0,0,1-.56-1.382,2.123,2.123,0,0,1,.56-1.488,1.827,1.827,0,0,1,2.73,0,2.128,2.128,0,0,1,.56,1.488A1.93,1.93,0,0,1,128.339,81.89ZM170.252,82.2V60.4h2.555a0.848,0.848,0,0,0,.63-0.3,0.969,0.969,0,0,0,.28-0.682,0.841,0.841,0,0,0-.263-0.612,0.88,0.88,0,0,0-.647-0.263h-21.84a0.9,0.9,0,0,0-.875.875,1.021,1.021,0,0,0,.245.7,0.8,0.8,0,0,0,.63.28h4.27a43.118,43.118,0,0,1-1.68,10.815,36.539,36.539,0,0,1-5.215,10.99h-2a0.854,0.854,0,0,0-.648.28,0.94,0.94,0,0,0-.262.665V89.1a0.908,0.908,0,0,0,.28.665,0.869,0.869,0,0,0,.63.28,0.956,0.956,0,0,0,.945-0.945V84.06h24.815V89.1a0.96,0.96,0,0,0,.91.91,0.941,0.941,0,0,0,.665-0.263,0.855,0.855,0,0,0,.28-0.647V83.15a0.956,0.956,0,0,0-.945-0.945h-2.765Zm-1.89,0H164.3V60.4h4.06V82.2Zm-5.915-21.8V82.2h-11.83a37.441,37.441,0,0,0,4.725-10.5,40.361,40.361,0,0,0,1.75-11.3h5.355Zm50.189,21.77a2.726,2.726,0,0,0-.14-0.35q-1.365-3.395-2.415-5.81a10.883,10.883,0,0,0-3.29-4.41,8.243,8.243,0,0,0-3.22-1.54,9.7,9.7,0,0,0,1.96-2.975,23.327,23.327,0,0,0,.945-2.94,1.126,1.126,0,0,0,.07-0.28,4.4,4.4,0,0,0,.98,1.295,4,4,0,0,0,5.583-.1,3.85,3.85,0,0,0,.017-5.583,3.86,3.86,0,0,0-2.8-1.172h-0.035a4.815,4.815,0,0,0-4.095,1.75,9.756,9.756,0,0,0-1.47,3.6l-0.122.368c-0.059.175-.1,0.309-0.123,0.4a19.648,19.648,0,0,1-.7,1.925h-0.035a5.22,5.22,0,0,1-1.855,2.73h-0.035a3.945,3.945,0,0,1-2.275.525,0.656,0.656,0,0,1-.21.035h-0.665V60.4h2.345a0.882,0.882,0,0,0,.665-0.3A0.965,0.965,0,0,0,202,59.42a0.814,0.814,0,0,0-.28-0.612,0.939,0.939,0,0,0-.665-0.263h-12.53a0.939,0.939,0,0,0-.665.263,0.814,0.814,0,0,0-.28.612,0.965,0.965,0,0,0,.28.682,0.882,0.882,0,0,0,.665.3h2.485v9.24h-0.7a4.5,4.5,0,0,1-2.485-.56,6.122,6.122,0,0,1-1.96-2.765,16.9,16.9,0,0,1-.875-2.66q-0.244-.874-0.385-1.3t-0.455-1.19A3.987,3.987,0,0,0,183.464,60a8.722,8.722,0,0,0-.928-0.858,3.376,3.376,0,0,0-1.347-.648,7.481,7.481,0,0,0-1.768-.192h-0.035a4.009,4.009,0,0,0-2.835,1.155,3.971,3.971,0,0,0,0,5.6,3.91,3.91,0,0,0,2.87,1.19,3.854,3.854,0,0,0,2.73-1.085,3.66,3.66,0,0,0,.98-1.33,0.584,0.584,0,0,0,.035.175,0.593,0.593,0,0,1,.035.14l0.035,0.105a16.515,16.515,0,0,0,.945,2.835,9.766,9.766,0,0,0,1.925,2.975,8.243,8.243,0,0,0-3.22,1.54,10.016,10.016,0,0,0-3.29,4.41q-2.03,4.55-2.555,6.16h-1.82a0.923,0.923,0,0,0-.7.3,0.932,0.932,0,0,0-.28.648,0.884,0.884,0,0,0,.3.665,0.964,0.964,0,0,0,.682.28h8.925a0.967,0.967,0,0,0,.945-0.63V83.395q0.875-2.94,2.118-6.212a14.2,14.2,0,0,1,2.082-4.148,7,7,0,0,1,1.715-1.435V82.2h-2.485a0.939,0.939,0,0,0-.665.263,0.851,0.851,0,0,0-.28.648,0.956,0.956,0,0,0,.945.945h12.53a0.93,0.93,0,0,0,.648-0.28,0.883,0.883,0,0,0,.3-0.665,0.87,0.87,0,0,0-.28-0.63,0.909,0.909,0,0,0-.665-0.28h-2.345V71.6a7.637,7.637,0,0,1,1.68,1.435q1.541,1.575,4.2,10.36l0.035,0.035a0.881,0.881,0,0,0,.875.63h9a0.93,0.93,0,0,0,.648-0.28,0.893,0.893,0,0,0,0-1.33,0.932,0.932,0,0,0-.648-0.28h-1.855Zm-6.44,0q-2.8-8.715-4.48-10.395l-0.175-.175a8.056,8.056,0,0,1,6.9,5.145q0.49,1.155,2.2,5.425H206.2Zm2.5-21.437a2.229,2.229,0,0,1,1.592-.612,2.127,2.127,0,0,1,1.54.612,2.114,2.114,0,0,1-.017,3.028,2.114,2.114,0,0,1-1.523.63,2.194,2.194,0,0,1-1.592-.63A2.092,2.092,0,0,1,208.7,60.732ZM196.816,82.2H192.9V60.4h3.92V82.2Zm-8.855-10.43q-1.61,1.61-4.48,10.395h-4.445q0.7-1.855,2.275-5.425a7.906,7.906,0,0,1,6.825-5.145Zm-8.54-7.385a2.14,2.14,0,0,1-1.54-.648,2.033,2.033,0,0,1-.017-2.992,2.24,2.24,0,0,1,3.115,0,2.074,2.074,0,0,1,0,3.01,2.154,2.154,0,0,1-1.558.63h0Z"/>
  <path id="А" class="cls-1" d="M242.529,82.343l-9.345-23.065a0.7,0.7,0,0,0-.84-0.6h-2.87a0.841,0.841,0,0,0-.875.56l-0.035.035-1.575,4.305v0.07l-4.27,10.605h-0.035v0.07l-3.255,8.015h-3.01a0.854,0.854,0,0,0-.648.28,0.94,0.94,0,0,0-.262.665,0.96,0.96,0,0,0,.91.91h9.695a0.96,0.96,0,0,0,.91-0.91,0.912,0.912,0,0,0-.28-0.665,0.872,0.872,0,0,0-.63-0.28h-4.655l2.695-6.825h7.385l2.765,6.825h-2.975a1.025,1.025,0,0,0-.945.945,0.869,0.869,0,0,0,.28.63,0.906,0.906,0,0,0,.665.28h12.915a0.96,0.96,0,0,0,.91-0.91,0.912,0.912,0,0,0-.28-0.665,0.872,0.872,0,0,0-.63-0.28h-1.715Zm-6.23,0-7.455-18.41,1.26-3.395h1.61l8.82,21.805H236.3Zm-11.375-8.68,2.905-7.245,2.94,7.245h-5.845Z"/>
</svg>
