<svg id="logo" xmlns="http://www.w3.org/2000/svg" width="65" height="91" viewBox="0 0 65 91">
  <defs>
    <style>
      .cls-1, .cls-2 {
        fill: #6a3d31;
      }

      .cls-1 {
        fill-rule: evenodd;
      }
    </style>
  </defs>
  <path id="С" class="cls-1" d="M212.725,202.794v1.144h10.736v-1.144h-2.332q-0.175-.615-0.462-1.342a6.152,6.152,0,0,0-.77-1.386,5.464,5.464,0,0,0-1.562-1.606,20.314,20.314,0,0,0-1.936-1.122q-1.034-.528-2.178-1.188a10.548,10.548,0,0,1-2.288-1.848q-1.627,1.848-3.608,3.916a39.422,39.422,0,0,0-3.7,4.492,25.53,25.53,0,0,0-2.882,5.357,17.491,17.491,0,0,0-1.166,6.508,7.268,7.268,0,0,0,.946,3.793,12.787,12.787,0,0,0,2.266,2.818,29.029,29.029,0,0,0,2.706,2.244,11.331,11.331,0,0,1,2.222,2.068,2.841,2.841,0,0,1,.462.814,9.36,9.36,0,0,1,.352,1.122,11.569,11.569,0,0,1,.242,1.276,9.6,9.6,0,0,1,.088,1.276,18.917,18.917,0,0,0,2.692-1.188,27.478,27.478,0,0,0,2.78-1.694,25.138,25.138,0,0,0,2.626-2.09,15.984,15.984,0,0,0,2.185-2.42,20.276,20.276,0,0,0,1.456-2.266,16.852,16.852,0,0,0,.882-1.914h2.427V217.27h-10.78v1.144h2.376a12.98,12.98,0,0,1,.176,1.452c0.029,0.47.044,0.836,0.044,1.1a9.31,9.31,0,0,1-.154,1.65,5.353,5.353,0,0,1-.748,1.826,8.72,8.72,0,0,1-1.768,1.98,16.313,16.313,0,0,1-3.27,2.068,8.74,8.74,0,0,0,1.1-3.388,11.565,11.565,0,0,0,.066-1.606q-0.023-.813-0.022-1.826a5.426,5.426,0,0,0-.418-2.134,12.287,12.287,0,0,0-1.056-1.96q-0.638-.97-1.364-1.963a20.453,20.453,0,0,1-1.364-2.141,13.347,13.347,0,0,1-1.056-2.47,9.785,9.785,0,0,1-.418-2.957,14.244,14.244,0,0,1,.594-4.3,16.066,16.066,0,0,1,1.452-3.326,14.245,14.245,0,0,1,1.848-2.508q0.99-1.056,1.782-1.848,0.836,1.276,1.43,2.024t0.99,1.276a3.66,3.66,0,0,1,.572,1.078,4.816,4.816,0,0,1,.176,1.43v0.924h-2.376Z" transform="translate(-164 -170)"/>
  <path id="Д" class="cls-1" d="M181.434,193.525v1.144h2.376v2.72a63.422,63.422,0,0,0-4.708,5.856,47.509,47.509,0,0,0-3.872,6.471,37.618,37.618,0,0,0-2.64,7,28.665,28.665,0,0,0-.968,7.435H167.53v1.144a3.7,3.7,0,0,1,.946,1.474,9.847,9.847,0,0,1,.484,1.936,16.27,16.27,0,0,1,.176,2.046q0.023,1.011.022,1.8h0.924v-0.22a6.678,6.678,0,0,1,.528-2.618,8.049,8.049,0,0,1,1.408-2.244,6.742,6.742,0,0,1,2.09-1.584,5.86,5.86,0,0,1,2.618-.594h8.58a5.324,5.324,0,0,1,2.64.638,6.358,6.358,0,0,1,1.936,1.65,7.376,7.376,0,0,1,1.21,2.31,8.617,8.617,0,0,1,.418,2.662h0.924q0-.792.022-1.8a16.27,16.27,0,0,1,.176-2.046,9.847,9.847,0,0,1,.484-1.936,3.7,3.7,0,0,1,.946-1.474v-1.144H189.97v-29.48h2.2v-1.144H181.434Zm2.376,30.624H173.162a28.923,28.923,0,0,1,.814-7,32.827,32.827,0,0,1,2.244-6.259,41.481,41.481,0,0,1,3.388-5.8q1.958-2.811,4.2-5.622v24.684Z" transform="translate(-164 -170)"/>
  <rect id="Прямоугольник_3" data-name="Прямоугольник 3" class="cls-2" x="63" y="66" width="2" height="25"/>
  <rect id="Прямоугольник_10" data-name="Прямоугольник 10" class="cls-2" x="7" y="82" width="51" height="2"/>
  <rect id="Прямоугольник_8" data-name="Прямоугольник 8" class="cls-2" x="2" y="89" width="61" height="2"/>
  <rect id="Прямоугольник_1" data-name="Прямоугольник 1" class="cls-2" y="66" width="2" height="25"/>
  <rect id="Прямоугольник_12" data-name="Прямоугольник 12" class="cls-2" x="7" y="74" width="51" height="2"/>
  <rect id="Прямоугольник_11" data-name="Прямоугольник 11" class="cls-2" x="7" y="78" width="51" height="2"/>
  <rect id="Прямоугольник_4" data-name="Прямоугольник 4" class="cls-2" x="7" y="15" width="51" height="2"/>
  <rect id="Прямоугольник_4-2" data-name="Прямоугольник 4" class="cls-2" x="7" y="7" width="51" height="2"/>
  <rect id="Прямоугольник_4-3" data-name="Прямоугольник 4" class="cls-2" x="7" y="11" width="51" height="2"/>
  <rect id="Прямоугольник_3-2" data-name="Прямоугольник 3" class="cls-2" x="63" y="2" width="2" height="23"/>
  <rect id="Прямоугольник_1-2" data-name="Прямоугольник 1" class="cls-2" width="2" height="25"/>
  <rect id="Прямоугольник_2" data-name="Прямоугольник 2" class="cls-2" width="65" height="2"/>
</svg>
