<svg id="logo" xmlns="http://www.w3.org/2000/svg" width="681.408" height="227.5" viewBox="0 0 272.563 91">
  <defs>
    <style>
      .cls-1, .cls-2 {
        fill: #6a3d31;
      }

      .cls-1 {
        fill-rule: evenodd;
      }
    </style>
  </defs>
  <path id="С" class="cls-1" d="M81.725,53.794v1.144H92.461V53.794H90.129q-0.176-.616-0.462-1.342a6.18,6.18,0,0,0-.77-1.386,5.46,5.46,0,0,0-1.562-1.606A20.4,20.4,0,0,0,85.4,48.338q-1.034-.528-2.178-1.188A10.529,10.529,0,0,1,80.933,45.3Q79.3,47.15,77.325,49.218a39.458,39.458,0,0,0-3.7,4.491,25.541,25.541,0,0,0-2.882,5.358,17.477,17.477,0,0,0-1.166,6.508,7.266,7.266,0,0,0,.946,3.793,12.782,12.782,0,0,0,2.266,2.818A29.187,29.187,0,0,0,75.5,74.43,11.351,11.351,0,0,1,77.721,76.5a2.836,2.836,0,0,1,.462.814,9.339,9.339,0,0,1,.352,1.122,11.763,11.763,0,0,1,.242,1.276,9.7,9.7,0,0,1,.088,1.276A19.064,19.064,0,0,0,81.557,79.8a27.566,27.566,0,0,0,2.78-1.694,25.2,25.2,0,0,0,2.625-2.09,15.907,15.907,0,0,0,2.185-2.42A20.183,20.183,0,0,0,90.6,71.328a16.9,16.9,0,0,0,.883-1.914h2.427V68.27H83.133v1.144h2.376a13.128,13.128,0,0,1,.176,1.452q0.043,0.7.044,1.1a9.366,9.366,0,0,1-.154,1.65,5.356,5.356,0,0,1-.748,1.826,8.733,8.733,0,0,1-1.768,1.98,16.306,16.306,0,0,1-3.27,2.068,8.74,8.74,0,0,0,1.1-3.388,11.753,11.753,0,0,0,.066-1.606q-0.023-.814-0.022-1.826a5.435,5.435,0,0,0-.418-2.134,12.308,12.308,0,0,0-1.056-1.96q-0.638-.97-1.364-1.963a20.47,20.47,0,0,1-1.364-2.14A13.267,13.267,0,0,1,75.675,62a9.778,9.778,0,0,1-.418-2.956,14.24,14.24,0,0,1,.594-4.3A16.062,16.062,0,0,1,77.3,51.418a14.245,14.245,0,0,1,1.848-2.508q0.99-1.056,1.782-1.848,0.835,1.277,1.43,2.024t0.99,1.276a3.668,3.668,0,0,1,.572,1.078,4.818,4.818,0,0,1,.176,1.43v0.924H81.725Z" transform="translate(-33 -21)"/>
  <path id="Д" class="cls-1" d="M50.434,44.525v1.144H52.81v2.72A63.25,63.25,0,0,0,48.1,54.246a47.411,47.411,0,0,0-3.872,6.471,37.623,37.623,0,0,0-2.64,7,28.644,28.644,0,0,0-.968,7.435H36.53v1.144a3.707,3.707,0,0,1,.946,1.474A9.873,9.873,0,0,1,37.96,79.7a16.418,16.418,0,0,1,.176,2.046q0.022,1.012.022,1.8h0.924v-0.22a6.681,6.681,0,0,1,.528-2.618,8.047,8.047,0,0,1,1.408-2.244,6.733,6.733,0,0,1,2.09-1.584,5.858,5.858,0,0,1,2.618-.594h8.58a5.329,5.329,0,0,1,2.64.638,6.361,6.361,0,0,1,1.936,1.65,7.389,7.389,0,0,1,1.21,2.31,8.637,8.637,0,0,1,.418,2.662h0.924q0-.792.022-1.8a16.119,16.119,0,0,1,.176-2.046,9.817,9.817,0,0,1,.484-1.936,3.7,3.7,0,0,1,.946-1.474V75.149H58.97V45.669h2.2V44.525H50.434ZM52.81,75.149H42.162a28.916,28.916,0,0,1,.814-7,32.733,32.733,0,0,1,2.244-6.259,41.405,41.405,0,0,1,3.388-5.8q1.957-2.811,4.2-5.622V75.149Z" transform="translate(-33 -21)"/>
  <g id="Низ">
    <rect id="Прямоугольник_3" data-name="Прямоугольник 3" class="cls-2" x="63" y="66" width="2" height="25"/>
    <rect id="Прямоугольник_10" data-name="Прямоугольник 10" class="cls-2" x="7" y="82" width="51" height="2"/>
    <rect id="Прямоугольник_8" data-name="Прямоугольник 8" class="cls-2" x="2" y="89" width="61" height="2"/>
    <rect id="Прямоугольник_1" data-name="Прямоугольник 1" class="cls-2" y="66" width="2" height="25"/>
    <rect id="Прямоугольник_12" data-name="Прямоугольник 12" class="cls-2" x="7" y="74" width="51" height="2"/>
    <rect id="Прямоугольник_11" data-name="Прямоугольник 11" class="cls-2" x="7" y="78" width="51" height="2"/>
  </g>
  <g id="Верх">
    <rect id="Прямоугольник_4" data-name="Прямоугольник 4" class="cls-2" x="7" y="15" width="51" height="2"/>
    <rect id="Прямоугольник_4-2" data-name="Прямоугольник 4" class="cls-2" x="7" y="7" width="51" height="2"/>
    <rect id="Прямоугольник_4-3" data-name="Прямоугольник 4" class="cls-2" x="7" y="11" width="51" height="2"/>
    <rect id="Прямоугольник_3-2" data-name="Прямоугольник 3" class="cls-2" x="63" y="2" width="2" height="23"/>
    <rect id="Прямоугольник_1-2" data-name="Прямоугольник 1" class="cls-2" width="2" height="25"/>
    <rect id="Прямоугольник_2" data-name="Прямоугольник 2" class="cls-2" width="65" height="2"/>
  </g>
  <path id="ДАВНЯЯ" class="cls-1" d="M150.339,54.809V31.758h2.7a0.894,0.894,0,0,0,.666-0.314,1.019,1.019,0,0,0,.3-0.721,0.888,0.888,0,0,0-.277-0.648,0.93,0.93,0,0,0-.685-0.277H129.952a0.949,0.949,0,0,0-.925.925,1.086,1.086,0,0,0,.259.74,0.844,0.844,0,0,0,.666.3h4.514a45.582,45.582,0,0,1-1.776,11.433,38.611,38.611,0,0,1-5.513,11.618h-2.109a0.9,0.9,0,0,0-.684.3,0.994,0.994,0,0,0-.278.7V62.1a0.962,0.962,0,0,0,.3.7,0.923,0.923,0,0,0,.666.3,1.011,1.011,0,0,0,1-1V56.77H152.3V62.1a1.015,1.015,0,0,0,.962.962,0.991,0.991,0,0,0,.7-0.278,0.9,0.9,0,0,0,.3-0.684v-6.29a1.011,1.011,0,0,0-1-1h-2.923Zm-2,0h-4.292V31.758h4.292V54.809Zm-6.253-23.051V54.809H129.582a39.581,39.581,0,0,0,5-11.1,42.617,42.617,0,0,0,1.85-11.951h5.661Zm40.885,23.051-9.879-24.383a0.741,0.741,0,0,0-.888-0.629h-3.034a0.89,0.89,0,0,0-.925.592l-0.037.037-1.665,4.551v0.074l-4.514,11.211h-0.037v0.074l-3.441,8.473h-3.182a0.9,0.9,0,0,0-.684.3,0.994,0.994,0,0,0-.278.7,1.015,1.015,0,0,0,.962.962H165.62a1.015,1.015,0,0,0,.962-0.962,0.963,0.963,0,0,0-.3-0.7,0.92,0.92,0,0,0-.666-0.3H160.7l2.849-7.215h7.807l2.923,7.215h-3.145a1.086,1.086,0,0,0-1,1,0.921,0.921,0,0,0,.3.666,0.959,0.959,0,0,0,.7.3h13.653a1.015,1.015,0,0,0,.962-0.962,0.963,0.963,0,0,0-.3-0.7,0.92,0.92,0,0,0-.666-0.3h-1.813Zm-6.586,0-7.881-19.462,1.332-3.589h1.7l9.324,23.051h-4.477Zm-12.025-9.176,3.071-7.659,3.108,7.659h-6.179Zm42.513-3.33q4.365-1.776,4.366-5.957,0-4.4-4.588-5.772-2.664-.777-9.546-0.777H186.932a0.949,0.949,0,0,0-.962.962,0.992,0.992,0,0,0,.278.7,0.9,0.9,0,0,0,.684.3h2.7V54.809h-2.7a0.949,0.949,0,0,0-.962.962,0.957,0.957,0,0,0,.3.7,0.918,0.918,0,0,0,.666.3h9.953q7.622,0,10.582-1a6.829,6.829,0,0,0,5.069-7.067,5.712,5.712,0,0,0-2-4.7,9.208,9.208,0,0,0-3.663-1.7h0Zm-9.028-.666V31.8a6.015,6.015,0,0,1,3.293,1.258,4.3,4.3,0,0,1,1.221,3.293,6.22,6.22,0,0,1-.462,2.479,3.846,3.846,0,0,1-1.221,1.628,8.182,8.182,0,0,1-1.314.814,5.04,5.04,0,0,1-1.073.37h-0.444Zm0.888,2.035a6.5,6.5,0,0,1,3.515,1.517,4.529,4.529,0,0,1,1.332,3.515,5.058,5.058,0,0,1-1.646,4.07,8.773,8.773,0,0,1-4.089,1.887V43.672h0.888Zm3.737-2.22a5.377,5.377,0,0,0,1-1.406,7.87,7.87,0,0,0,.851-3.7,6.246,6.246,0,0,0-1.554-4.44,11.994,11.994,0,0,1,4.625,1.036,3.583,3.583,0,0,1,1.887,3.4,3.945,3.945,0,0,1-1.924,3.478,11.96,11.96,0,0,1-4.884,1.628h0Zm0.3,13.135A8.7,8.7,0,0,0,204.322,53a7.612,7.612,0,0,0,1.221-4.292,6.449,6.449,0,0,0-1.961-4.921V43.746a14.39,14.39,0,0,1,4.958,1.221,3.947,3.947,0,0,1,2.072,3.737,4.823,4.823,0,0,1-2.368,4.588,13.7,13.7,0,0,1-5.476,1.3h0Zm-6.919.222h-4.255V31.758h4.255V54.809Zm46.1,0V31.758h2.7a1.015,1.015,0,0,0,.962-0.962,0.994,0.994,0,0,0-.278-0.7,0.9,0.9,0,0,0-.684-0.3H231.184a0.9,0.9,0,0,0-.685.3,0.994,0.994,0,0,0-.277.7,1.015,1.015,0,0,0,.962.962H233.7v9.953h-8.695V31.758h2.627a0.887,0.887,0,0,0,.647-0.277,0.93,0.93,0,0,0,.278-0.684,0.994,0.994,0,0,0-.278-0.7,0.862,0.862,0,0,0-.647-0.3H214.09a0.92,0.92,0,0,0-.666.3,0.959,0.959,0,0,0-.3.7,1.015,1.015,0,0,0,.962.962h2.7V54.809h-2.7a0.92,0.92,0,0,0-.666.3,0.959,0.959,0,0,0-.3.7,1.015,1.015,0,0,0,.962.962h13.542a0.871,0.871,0,0,0,.666-0.278,0.968,0.968,0,0,0,.259-0.684,0.994,0.994,0,0,0-.278-0.7,0.862,0.862,0,0,0-.647-0.3h-2.627v-11.1H233.7v11.1h-2.516a0.9,0.9,0,0,0-.685.3,0.994,0.994,0,0,0-.277.7,0.947,0.947,0,0,0,.962.962h13.468a0.949,0.949,0,0,0,.962-0.962,0.994,0.994,0,0,0-.278-0.7,0.9,0.9,0,0,0-.684-0.3h-2.7Zm-1.924,0h-4.292V31.758h4.292V54.809Zm-16.983,0h-4.255V31.758h4.255V54.809Zm48.544,0V31.758h2.96a0.9,0.9,0,0,0,.684-0.3,1.04,1.04,0,0,0,.278-0.74,0.863,0.863,0,0,0-.3-0.648,0.952,0.952,0,0,0-.666-0.277H263.263q-6.771,0-9.4.962a5.94,5.94,0,0,0-4.181,6.068,6.837,6.837,0,0,0,1.739,4.7,8.347,8.347,0,0,0,3.848,2.4,10.882,10.882,0,0,0-4.07,4.921q-1.407,2.961-2.442,5.18a4.645,4.645,0,0,1-.37.777h-2.072a0.888,0.888,0,0,0-.648.278,0.93,0.93,0,0,0-.277.684,0.978,0.978,0,0,0,.3.684,0.862,0.862,0,0,0,.629.315h9.472a0.865,0.865,0,0,0,.888-0.629h0.037q0.924-2.553,2.423-5.809a16.55,16.55,0,0,1,2.387-4.144,6.287,6.287,0,0,1,1.887-1.332v9.953h-2.7a0.956,0.956,0,0,0-.648,1.665,0.98,0.98,0,0,0,.685.3h13.542a0.915,0.915,0,0,0,.721-0.315,1.014,1.014,0,0,0,.278-0.684,0.9,0.9,0,0,0-.3-0.684,1.041,1.041,0,0,0-.74-0.278h-2.664Zm-2,0h-4.181V31.758h4.218ZM256.455,37.086a7.485,7.485,0,0,0,2.59,5.661q-1.3-.185-2.183-0.333-5.181-1.295-5.18-5.587a3.913,3.913,0,0,1,2-3.774,12.194,12.194,0,0,1,4.847-1.11,5.978,5.978,0,0,0-1.295,1.7,7.442,7.442,0,0,0-.777,3.441h0Zm3.7,7.733q-1.554,1.443-4.847,9.4a5.56,5.56,0,0,1-.222.592h-4.514c0.049-.123.153-0.357,0.314-0.7s0.333-.715.518-1.11,0.376-.789.574-1.184q0.111-.222.444-0.962t0.555-1.184a8.974,8.974,0,0,1,2.9-3.774,8.8,8.8,0,0,1,4.311-1.073h-0.037Zm3.256-2a5.863,5.863,0,0,1-3.552-2.017,5.5,5.5,0,0,1-1.48-3.718,4.967,4.967,0,0,1,1.35-3.589,5.963,5.963,0,0,1,3.682-1.7V42.821Zm38.22,11.988V31.758h2.96a0.9,0.9,0,0,0,.685-0.3,1.039,1.039,0,0,0,.277-0.74,0.863,0.863,0,0,0-.3-0.648,0.952,0.952,0,0,0-.666-0.277H293.306q-6.771,0-9.4.962a5.94,5.94,0,0,0-4.181,6.068,6.837,6.837,0,0,0,1.739,4.7,8.347,8.347,0,0,0,3.848,2.4,10.882,10.882,0,0,0-4.07,4.921q-1.407,2.961-2.442,5.18a4.645,4.645,0,0,1-.37.777H276.36a0.887,0.887,0,0,0-.647.278,0.931,0.931,0,0,0-.278.684,0.982,0.982,0,0,0,.3.684,0.863,0.863,0,0,0,.629.315h9.472a0.865,0.865,0,0,0,.888-0.629h0.037q0.924-2.553,2.424-5.809a16.557,16.557,0,0,1,2.386-4.144,6.287,6.287,0,0,1,1.887-1.332v9.953h-2.7a0.956,0.956,0,0,0-.647,1.665,0.977,0.977,0,0,0,.684.3h13.542a0.917,0.917,0,0,0,.722-0.315,1.013,1.013,0,0,0,.277-0.684,0.9,0.9,0,0,0-.3-0.684,1.041,1.041,0,0,0-.74-0.278h-2.664Zm-2,0h-4.181V31.758h4.218ZM286.5,37.086a7.485,7.485,0,0,0,2.59,5.661q-1.3-.185-2.183-0.333-5.181-1.295-5.18-5.587a3.913,3.913,0,0,1,2-3.774,12.194,12.194,0,0,1,4.847-1.11,5.978,5.978,0,0,0-1.3,1.7,7.442,7.442,0,0,0-.777,3.441h0Zm3.7,7.733q-1.554,1.443-4.847,9.4a5.56,5.56,0,0,1-.222.592h-4.514q0.073-.185.315-0.7T281.448,53c0.185-.394.375-0.789,0.573-1.184q0.111-.222.444-0.962t0.555-1.184a8.974,8.974,0,0,1,2.905-3.774,8.8,8.8,0,0,1,4.31-1.073H290.2Zm3.256-2A5.863,5.863,0,0,1,289.9,40.8a5.5,5.5,0,0,1-1.48-3.718,4.968,4.968,0,0,1,1.351-3.589,5.96,5.96,0,0,1,3.681-1.7V42.821Z" transform="translate(-33 -21)"/>
  <path id="СУДЖ" class="cls-1" d="M149.282,96.625a0.73,0.73,0,0,0-.77.525,5.039,5.039,0,0,1-.35.525,13.875,13.875,0,0,1-2.625,3.5A6.267,6.267,0,0,1,142,102.189a6.019,6.019,0,0,1-2.73-.63q-3.921-2.238-3.92-9.239,0-5.215,1.645-8.085a5.793,5.793,0,0,1,4.655-3.045,7.533,7.533,0,0,1,3.605,1.855,16.7,16.7,0,0,1,2.94,3.885v2.31a0.822,0.822,0,0,0,.262.63,0.913,0.913,0,0,0,.648.245,0.88,0.88,0,0,0,.647-0.263,0.84,0.84,0,0,0,.263-0.612V80.455a0.91,0.91,0,1,0-1.82,0V83.57a12,12,0,0,0-2.695-2.73,8.694,8.694,0,0,0-5.04-1.54,14.094,14.094,0,0,0-5.74,1.155,12.685,12.685,0,0,0-4.2,2.975,12.882,12.882,0,0,0-3.43,8.89q0,6.23,4.1,9.8a12.515,12.515,0,0,0,4.165,2.415,13.691,13.691,0,0,0,4.62.77,9.514,9.514,0,0,0,5.74-1.89,15.611,15.611,0,0,0,4.41-5.46,0.932,0.932,0,0,0,.035-0.665,0.863,0.863,0,0,0-.42-0.525,0.71,0.71,0,0,0-.455-0.14h0Zm-15.75-4.3q0,8.05,4.9,10.849a5.284,5.284,0,0,0,.63.28,11.926,11.926,0,0,1-3.8-.875,10.961,10.961,0,0,1-3.22-2.065,9.157,9.157,0,0,1-2.292-3.447,12.764,12.764,0,0,1-.84-4.742,11.643,11.643,0,0,1,2-6.458,10.021,10.021,0,0,1,5.74-4.182,9.055,9.055,0,0,0-1.89,2.975,20.345,20.345,0,0,0-1.225,7.665h0Zm37.135-12.775a0.9,0.9,0,0,0-.91.91,0.814,0.814,0,0,0,.28.612,0.9,0.9,0,0,0,.63.263h4.655l-5.25,10.4-6.16-10.36h2.905a0.941,0.941,0,0,0,.665-0.263,0.854,0.854,0,0,0,.28-0.648,0.88,0.88,0,0,0-.263-0.647,0.922,0.922,0,0,0-.682-0.263h-12.95a0.9,0.9,0,0,0-.91.91,0.851,0.851,0,0,0,.28.648,0.9,0.9,0,0,0,.63.263h1.26L165.872,99.25a0.031,0.031,0,0,0-.035.035V99.32l-0.07.1a11.4,11.4,0,0,1-2.1,2.764,2.707,2.707,0,0,0,.07-0.7,3.882,3.882,0,0,0-1.085-2.782,3.576,3.576,0,0,0-2.695-1.137,3.4,3.4,0,0,0-2.625,1.155,4.024,4.024,0,0,0-.035,5.459,3.627,3.627,0,0,0,2.66,1.12,7.314,7.314,0,0,0,5.075-1.855,12.255,12.255,0,0,0,2.38-3.22h0.035a0.268,0.268,0,0,0,.035-0.105,0.814,0.814,0,0,1,.14-0.209l0.14-.28,3.115-5.565V94.035l6.51-12.7H179.8a0.941,0.941,0,0,0,.665-0.263,0.817,0.817,0,0,0,.28-0.612,0.88,0.88,0,0,0-.263-0.647,0.922,0.922,0,0,0-.682-0.263h-9.135Zm-3.78,17.85-9.59-16.03h4.48l7.28,12.25Zm-5.548,5.495a1.943,1.943,0,0,1-2.747-.017,1.912,1.912,0,0,1-.56-1.383,2.124,2.124,0,0,1,.56-1.487,1.827,1.827,0,0,1,2.73,0,2.129,2.129,0,0,1,.56,1.487A1.929,1.929,0,0,1,161.339,102.889Zm41.913,0.315V81.4h2.555a0.848,0.848,0,0,0,.63-0.3,0.969,0.969,0,0,0,.28-0.683,0.841,0.841,0,0,0-.263-0.612,0.88,0.88,0,0,0-.647-0.263h-21.84a0.9,0.9,0,0,0-.875.875,1.021,1.021,0,0,0,.245.7,0.8,0.8,0,0,0,.63.28h4.27a43.118,43.118,0,0,1-1.68,10.815,36.531,36.531,0,0,1-5.215,10.989h-2a0.855,0.855,0,0,0-.648.28,0.942,0.942,0,0,0-.262.665v5.95a0.907,0.907,0,0,0,.28.665,0.867,0.867,0,0,0,.63.28,0.956,0.956,0,0,0,.945-0.945v-5.04h24.815v5.04a0.96,0.96,0,0,0,.91.91,0.941,0.941,0,0,0,.665-0.262,0.855,0.855,0,0,0,.28-0.648v-5.95a0.956,0.956,0,0,0-.945-0.945h-2.765Zm-1.89,0H197.3V81.4h4.06v21.8Zm-5.915-21.8v21.8h-11.83a37.432,37.432,0,0,0,4.725-10.5,40.361,40.361,0,0,0,1.75-11.3h5.355Zm50.189,21.769a2.756,2.756,0,0,0-.14-0.35q-1.365-3.393-2.415-5.809a10.883,10.883,0,0,0-3.29-4.41,8.243,8.243,0,0,0-3.22-1.54,9.7,9.7,0,0,0,1.96-2.975,23.327,23.327,0,0,0,.945-2.94,1.126,1.126,0,0,0,.07-0.28,4.4,4.4,0,0,0,.98,1.295,4,4,0,0,0,5.583-.1,3.85,3.85,0,0,0,.017-5.583,3.86,3.86,0,0,0-2.8-1.172h-0.035a4.815,4.815,0,0,0-4.095,1.75,9.756,9.756,0,0,0-1.47,3.605l-0.122.368c-0.059.175-.1,0.309-0.123,0.4a19.648,19.648,0,0,1-.7,1.925h-0.035a5.22,5.22,0,0,1-1.855,2.73h-0.035a3.945,3.945,0,0,1-2.275.525,0.656,0.656,0,0,1-.21.035h-0.665V81.4h2.345a0.882,0.882,0,0,0,.665-0.3A0.965,0.965,0,0,0,235,80.42a0.814,0.814,0,0,0-.28-0.612,0.939,0.939,0,0,0-.665-0.263h-12.53a0.939,0.939,0,0,0-.665.263,0.814,0.814,0,0,0-.28.612,0.965,0.965,0,0,0,.28.683,0.882,0.882,0,0,0,.665.3h2.485v9.24h-0.7a4.5,4.5,0,0,1-2.485-.56,6.122,6.122,0,0,1-1.96-2.765,16.9,16.9,0,0,1-.875-2.66q-0.244-.874-0.385-1.3t-0.455-1.19A3.987,3.987,0,0,0,216.464,81a8.722,8.722,0,0,0-.928-0.858,3.376,3.376,0,0,0-1.347-.647,7.481,7.481,0,0,0-1.768-.193h-0.035a4.009,4.009,0,0,0-2.835,1.155,3.971,3.971,0,0,0,0,5.6,3.91,3.91,0,0,0,2.87,1.19,3.854,3.854,0,0,0,2.73-1.085,3.66,3.66,0,0,0,.98-1.33,0.584,0.584,0,0,0,.035.175,0.593,0.593,0,0,1,.035.14l0.035,0.105a16.515,16.515,0,0,0,.945,2.835,9.766,9.766,0,0,0,1.925,2.975,8.243,8.243,0,0,0-3.22,1.54,10.016,10.016,0,0,0-3.29,4.41q-2.03,4.55-2.555,6.159h-1.82a0.924,0.924,0,0,0-.7.3,0.934,0.934,0,0,0-.28.647,0.882,0.882,0,0,0,.3.665,0.959,0.959,0,0,0,.682.28h8.925a0.967,0.967,0,0,0,.945-0.63v-0.035q0.875-2.94,2.118-6.212a14.2,14.2,0,0,1,2.082-4.148,7,7,0,0,1,1.715-1.435v10.6h-2.485a0.94,0.94,0,0,0-.665.263,0.851,0.851,0,0,0-.28.647,0.956,0.956,0,0,0,.945.945h12.53a0.926,0.926,0,0,0,.648-0.28,0.871,0.871,0,0,0,.017-1.3,0.911,0.911,0,0,0-.665-0.28h-2.345V92.6a7.637,7.637,0,0,1,1.68,1.435q1.541,1.575,4.2,10.36l0.035,0.035a0.881,0.881,0,0,0,.875.63h9a0.926,0.926,0,0,0,.648-0.28,0.893,0.893,0,0,0,0-1.33,0.934,0.934,0,0,0-.648-0.28h-1.855Zm-6.44,0q-2.8-8.714-4.48-10.394l-0.175-.175a8.056,8.056,0,0,1,6.9,5.145q0.49,1.155,2.2,5.424H239.2Zm2.5-21.437a2.229,2.229,0,0,1,1.592-.612,2.127,2.127,0,0,1,1.54.612,2.114,2.114,0,0,1-.017,3.028,2.114,2.114,0,0,1-1.523.63,2.194,2.194,0,0,1-1.592-.63A2.092,2.092,0,0,1,241.7,81.732ZM229.816,103.2H225.9V81.4h3.92v21.8Zm-8.855-10.429q-1.61,1.61-4.48,10.394h-4.445q0.7-1.854,2.275-5.424a7.906,7.906,0,0,1,6.825-5.145Zm-8.54-7.385a2.14,2.14,0,0,1-1.54-.647,2.033,2.033,0,0,1-.017-2.993,2.24,2.24,0,0,1,3.115,0,2.074,2.074,0,0,1,0,3.01,2.154,2.154,0,0,1-1.558.63h0Z" transform="translate(-33 -21)"/>
  <path id="А" class="cls-1" d="M275.529,103.343l-9.345-23.065a0.7,0.7,0,0,0-.84-0.595h-2.87a0.841,0.841,0,0,0-.875.56l-0.035.035-1.575,4.3v0.07l-4.27,10.605h-0.035v0.07l-3.255,8.015h-3.01a0.852,0.852,0,0,0-.648.28,0.939,0.939,0,0,0-.262.665,0.96,0.96,0,0,0,.91.91h9.695a0.96,0.96,0,0,0,.91-0.91,0.911,0.911,0,0,0-.28-0.665,0.87,0.87,0,0,0-.63-0.28h-4.655l2.695-6.825h7.385l2.765,6.825h-2.975a1.024,1.024,0,0,0-.945.945,0.87,0.87,0,0,0,.28.63,0.906,0.906,0,0,0,.665.28h12.915a0.96,0.96,0,0,0,.91-0.91,0.911,0.911,0,0,0-.28-0.665,0.87,0.87,0,0,0-.63-0.28h-1.715Zm-6.23,0-7.455-18.41,1.26-3.4h1.61l8.82,21.805H269.3Zm-11.375-8.68,2.905-7.245,2.94,7.245h-5.845Z" transform="translate(-33 -21)"/>
</svg>
