<svg id="logo" xmlns="http://www.w3.org/2000/svg" width="420" height="370" viewBox="0 0 420 370">
  <defs>
    <style>
      .cls-1, .cls-2 {
        fill: #6a3d31;
      }

      .cls-2 {
        fill-rule: evenodd;
      }
    </style>
  </defs>
  <rect id="Прямоугольник_5" data-name="Прямоугольник 5" class="cls-1" x="316.719" y="288" width="6" height="82"/>
  <rect id="Прямоугольник_6" data-name="Прямоугольник 6" class="cls-1" x="99.719" y="364" width="223" height="6"/>
  <rect id="Прямоугольник_1" data-name="Прямоугольник 1" class="cls-1" x="99.719" width="6" height="83"/>
  <rect id="Прямоугольник_2" data-name="Прямоугольник 2" class="cls-1" x="99.719" width="223" height="6"/>
  <rect id="Прямоугольник_3" data-name="Прямоугольник 3" class="cls-1" x="316.719" width="6" height="83"/>
  <rect id="Прямоугольник_7" data-name="Прямоугольник 7" class="cls-1" x="153.719" y="302" width="115" height="6"/>
  <rect id="Прямоугольник_7-2" data-name="Прямоугольник 7" class="cls-1" x="153.719" y="319" width="115" height="6"/>
  <rect id="Прямоугольник_7-3" data-name="Прямоугольник 7" class="cls-1" x="153.719" y="336" width="115" height="6"/>
  <path id="Давняя" class="cls-2" d="M72.245,247.323V193.745h6.278a2.084,2.084,0,0,0,1.548-.731,2.374,2.374,0,0,0,.688-1.677,2.065,2.065,0,0,0-.645-1.5,2.163,2.163,0,0,0-1.591-.645H24.859a2.2,2.2,0,0,0-2.15,2.15,2.514,2.514,0,0,0,.6,1.72,1.956,1.956,0,0,0,1.548.688H35.351a105.94,105.94,0,0,1-4.128,26.574,89.779,89.779,0,0,1-12.814,27h-4.9a2.1,2.1,0,0,0-1.591.688,2.311,2.311,0,0,0-.645,1.634v14.62a2.236,2.236,0,0,0,.688,1.634,2.14,2.14,0,0,0,1.548.688,2.35,2.35,0,0,0,2.322-2.322V251.881H76.8v12.384a2.359,2.359,0,0,0,2.236,2.236,2.31,2.31,0,0,0,1.634-.645,2.1,2.1,0,0,0,.688-1.591v-14.62a2.35,2.35,0,0,0-2.322-2.322H72.245Zm-4.644,0H57.625V193.745H67.6v53.578ZM53.067,193.745v53.578H24a92,92,0,0,0,11.61-25.8,99.128,99.128,0,0,0,4.3-27.778H53.067Zm95.03,53.578-22.962-56.674q-0.174-1.461-2.064-1.462h-7.052a2.068,2.068,0,0,0-2.15,1.376l-0.086.086-3.87,10.578V201.4L99.42,227.457H99.334v0.172l-8,19.694h-7.4a2.1,2.1,0,0,0-1.591.688,2.311,2.311,0,0,0-.645,1.634,2.359,2.359,0,0,0,2.236,2.236h23.822A2.359,2.359,0,0,0,110,249.645a2.238,2.238,0,0,0-.688-1.634,2.146,2.146,0,0,0-1.548-.688H96.324l6.622-16.77h18.146l6.794,16.77h-7.31a2.521,2.521,0,0,0-2.322,2.322,2.131,2.131,0,0,0,.688,1.548,2.224,2.224,0,0,0,1.634.688H152.31a2.359,2.359,0,0,0,2.236-2.236,2.238,2.238,0,0,0-.688-1.634,2.146,2.146,0,0,0-1.548-.688H148.1Zm-15.308,0L114.47,202.087l3.1-8.342h3.956l21.672,53.578H132.788ZM104.838,226l7.138-17.8L119.2,226H104.838Zm98.814-7.74q10.146-4.128,10.148-13.846,0-10.233-10.664-13.416-6.192-1.806-22.188-1.806H157.3a2.2,2.2,0,0,0-2.236,2.236,2.3,2.3,0,0,0,.645,1.634,2.088,2.088,0,0,0,1.591.688h6.278v53.578H157.3a2.2,2.2,0,0,0-2.236,2.236,2.224,2.224,0,0,0,.688,1.634,2.131,2.131,0,0,0,1.548.688h23.134q17.715,0,24.6-2.322,11.781-3.954,11.782-16.426,0-7.137-4.644-10.922a21.4,21.4,0,0,0-8.514-3.956h0Zm-20.984-1.548V193.831a13.98,13.98,0,0,1,7.654,2.924q2.838,2.667,2.838,7.654a14.453,14.453,0,0,1-1.075,5.762,8.932,8.932,0,0,1-2.838,3.784,18.976,18.976,0,0,1-3.053,1.892,11.707,11.707,0,0,1-2.494.86h-1.032Zm2.064,4.73a15.118,15.118,0,0,1,8.17,3.526q3.1,2.838,3.1,8.17,0,6.192-3.827,9.46a20.376,20.376,0,0,1-9.5,4.386V221.437h2.064Zm8.686-5.16a12.478,12.478,0,0,0,2.322-3.268,18.289,18.289,0,0,0,1.978-8.6q0-6.45-3.612-10.32,7.224,0.516,10.75,2.408,4.386,2.409,4.386,7.912a9.167,9.167,0,0,1-4.472,8.084q-3.7,2.58-11.352,3.784h0Zm0.688,30.53a20.2,20.2,0,0,0,3.612-3.7,17.691,17.691,0,0,0,2.838-9.976q0-7.137-4.558-11.438v-0.086q7.824,0.861,11.524,2.838,4.815,2.667,4.816,8.686,0,7.569-5.5,10.664-4.386,2.409-12.728,3.01h0Zm-16.082.516h-9.89V193.745h9.89v53.578Zm105.435,0V193.745h6.278a2.359,2.359,0,0,0,2.236-2.236,2.311,2.311,0,0,0-.645-1.634,2.1,2.1,0,0,0-1.591-.688h-31.3a2.1,2.1,0,0,0-1.591.688,2.311,2.311,0,0,0-.645,1.634,2.359,2.359,0,0,0,2.236,2.236h5.848v23.134h-20.21V193.745h6.106a2.065,2.065,0,0,0,1.5-.645,2.16,2.16,0,0,0,.645-1.591,2.311,2.311,0,0,0-.645-1.634,2.007,2.007,0,0,0-1.5-.688H218.7a2.139,2.139,0,0,0-1.548.688,2.23,2.23,0,0,0-.688,1.634,2.359,2.359,0,0,0,2.236,2.236h6.278v53.578H218.7a2.139,2.139,0,0,0-1.548.688,2.23,2.23,0,0,0-.688,1.634,2.359,2.359,0,0,0,2.236,2.236h31.476a2.025,2.025,0,0,0,1.548-.645,2.247,2.247,0,0,0,.6-1.591,2.311,2.311,0,0,0-.645-1.634,2.007,2.007,0,0,0-1.5-.688h-6.106v-25.8h20.21v25.8h-5.848a2.1,2.1,0,0,0-1.591.688,2.311,2.311,0,0,0-.645,1.634,2.2,2.2,0,0,0,2.236,2.236h31.3a2.2,2.2,0,0,0,2.236-2.236,2.311,2.311,0,0,0-.645-1.634,2.1,2.1,0,0,0-1.591-.688h-6.278Zm-4.472,0h-9.976V193.745h9.976v53.578Zm-39.474,0h-9.89V193.745h9.89v53.578Zm112.831,0V193.745h6.88a2.091,2.091,0,0,0,1.591-.688,2.416,2.416,0,0,0,.645-1.72,2.007,2.007,0,0,0-.688-1.5,2.208,2.208,0,0,0-1.548-.645h-26.23q-15.738,0-21.844,2.236-9.718,3.612-9.718,14.1a15.9,15.9,0,0,0,4.042,10.922,19.406,19.406,0,0,0,8.944,5.59q-5.418,3.1-9.46,11.438-3.269,6.882-5.676,12.04a10.745,10.745,0,0,1-.86,1.806h-4.816a2.065,2.065,0,0,0-1.5.645,2.163,2.163,0,0,0-.645,1.591,2.281,2.281,0,0,0,.688,1.591,2.006,2.006,0,0,0,1.462.731h22.016a2.01,2.01,0,0,0,2.064-1.462h0.086q2.149-5.934,5.633-13.5t5.547-9.632q3.1-2.751,4.386-3.1v23.134H327.06a2.222,2.222,0,0,0-1.5,3.87,2.274,2.274,0,0,0,1.591.688h31.476a2.129,2.129,0,0,0,1.677-.731,2.355,2.355,0,0,0,.645-1.591,2.1,2.1,0,0,0-.688-1.591,2.418,2.418,0,0,0-1.72-.645h-6.192Zm-4.644,0h-9.718V193.745h9.8Zm-30.53-41.194a17.4,17.4,0,0,0,6.02,13.158q-3.011-.429-5.074-0.774-12.04-3.009-12.04-12.986,0-6.276,4.644-8.772,3.783-2.064,11.266-2.58a13.9,13.9,0,0,0-3.01,3.956,17.3,17.3,0,0,0-1.806,8h0Zm8.6,17.974q-3.612,3.354-11.266,21.844a12.831,12.831,0,0,1-.516,1.376H303.5q0.171-.429.731-1.634t1.2-2.58q0.645-1.374,1.333-2.752,0.258-.516,1.032-2.236t1.29-2.752q3.181-6.534,6.751-8.772t10.019-2.494H325.77Zm7.568-4.644a13.632,13.632,0,0,1-8.256-4.687,12.791,12.791,0,0,1-3.44-8.643,11.552,11.552,0,0,1,3.139-8.342,13.859,13.859,0,0,1,8.557-3.956v25.628Zm88.838,27.864V193.745h6.88a2.091,2.091,0,0,0,1.591-.688,2.415,2.415,0,0,0,.644-1.72,2.006,2.006,0,0,0-.687-1.5,2.212,2.212,0,0,0-1.548-.645h-26.23q-15.738,0-21.844,2.236-9.72,3.612-9.718,14.1a15.891,15.891,0,0,0,4.042,10.922,19.4,19.4,0,0,0,8.944,5.59q-5.418,3.1-9.46,11.438-3.27,6.882-5.676,12.04a10.745,10.745,0,0,1-.86,1.806h-4.816a2.063,2.063,0,0,0-1.5.645,2.163,2.163,0,0,0-.645,1.591,2.277,2.277,0,0,0,.688,1.591,2,2,0,0,0,1.462.731h22.016a2.01,2.01,0,0,0,2.064-1.462H387.6q2.148-5.934,5.633-13.5t5.547-9.632q3.1-2.751,4.386-3.1v23.134h-6.278a2.222,2.222,0,0,0-1.5,3.87,2.273,2.273,0,0,0,1.591.688h31.476a2.129,2.129,0,0,0,1.677-.731,2.355,2.355,0,0,0,.645-1.591,2.1,2.1,0,0,0-.689-1.591,2.415,2.415,0,0,0-1.719-.645h-6.192Zm-4.644,0h-9.718V193.745h9.8ZM387,206.129a17.4,17.4,0,0,0,6.02,13.158q-3.012-.429-5.074-0.774-12.042-3.009-12.04-12.986,0-6.276,4.644-8.772,3.783-2.064,11.266-2.58a13.9,13.9,0,0,0-3.01,3.956,17.3,17.3,0,0,0-1.806,8h0Zm8.6,17.974q-3.611,3.354-11.265,21.844a12.831,12.831,0,0,1-.516,1.376H373.327q0.173-.429.732-1.634t1.2-2.58q0.645-1.374,1.333-2.752,0.258-.516,1.032-2.236t1.29-2.752q3.18-6.534,6.751-8.772t10.018-2.494H395.6Zm7.569-4.644a13.632,13.632,0,0,1-8.257-4.687,12.8,12.8,0,0,1-3.439-8.643,11.548,11.548,0,0,1,3.139-8.342,13.859,13.859,0,0,1,8.557-3.956v25.628Z" transform="translate(-11.281 -80)"/>
  <path id="СУДЖА" class="cls-2" d="M93.209,318.719a1.8,1.8,0,0,0-1.892,1.29,12.329,12.329,0,0,1-.86,1.29,34.1,34.1,0,0,1-6.45,8.6,15.423,15.423,0,0,1-8.686,2.494,14.789,14.789,0,0,1-6.708-1.548q-9.633-5.5-9.632-22.7,0-12.813,4.042-19.866a14.235,14.235,0,0,1,11.438-7.482,18.5,18.5,0,0,1,8.858,4.558,41.045,41.045,0,0,1,7.224,9.546v5.676a2.022,2.022,0,0,0,.645,1.548,2.24,2.24,0,0,0,1.591.6,2.162,2.162,0,0,0,1.591-.645,2.062,2.062,0,0,0,.645-1.5V278.987a2.236,2.236,0,1,0-4.472,0v7.654a29.474,29.474,0,0,0-6.622-6.708,21.359,21.359,0,0,0-12.384-3.784,34.63,34.63,0,0,0-14.1,2.838,31.191,31.191,0,0,0-10.32,7.31,31.657,31.657,0,0,0-8.428,21.844q0,15.309,10.062,24.08a30.752,30.752,0,0,0,10.234,5.934,33.676,33.676,0,0,0,11.352,1.892,23.378,23.378,0,0,0,14.1-4.644q6.192-4.557,10.836-13.416a2.29,2.29,0,0,0,.086-1.634,2.118,2.118,0,0,0-1.032-1.29,1.74,1.74,0,0,0-1.118-.344h0Zm-38.7-10.578q0,19.78,12.04,26.66a13.146,13.146,0,0,0,1.548.688,29.383,29.383,0,0,1-9.331-2.15,26.978,26.978,0,0,1-7.912-5.074,22.5,22.5,0,0,1-5.633-8.471,31.362,31.362,0,0,1-2.064-11.653,28.607,28.607,0,0,1,4.9-15.867A24.622,24.622,0,0,1,62.163,282a22.245,22.245,0,0,0-4.644,7.31q-3.011,7.311-3.01,18.834h0Zm87.806-31.39a2.2,2.2,0,0,0-2.236,2.236,2,2,0,0,0,.688,1.5,2.2,2.2,0,0,0,1.548.645h11.438l-12.9,25.542-15.136-25.456h7.138a2.311,2.311,0,0,0,1.634-.645,2.1,2.1,0,0,0,.688-1.591,2.163,2.163,0,0,0-.645-1.591,2.269,2.269,0,0,0-1.677-.645h-31.82a2.2,2.2,0,0,0-2.236,2.236,2.1,2.1,0,0,0,.688,1.591,2.206,2.206,0,0,0,1.548.645h3.1l26.4,43.946a0.076,0.076,0,0,0-.086.086v0.086l-0.172.258a28.014,28.014,0,0,1-5.16,6.794,6.63,6.63,0,0,0,.172-1.72,9.542,9.542,0,0,0-2.666-6.837,8.784,8.784,0,0,0-6.622-2.8,8.355,8.355,0,0,0-6.45,2.838,9.889,9.889,0,0,0-.086,13.416A8.925,8.925,0,0,0,116,340.047a17.984,17.984,0,0,0,12.47-4.558,30.172,30.172,0,0,0,5.848-7.912H134.4a0.677,0.677,0,0,0,.086-0.258,1.962,1.962,0,0,1,.344-0.516l0.344-.688,7.654-13.674v-0.086l16-31.218h5.934a2.311,2.311,0,0,0,1.634-.645,2,2,0,0,0,.688-1.5,2.163,2.163,0,0,0-.645-1.591,2.269,2.269,0,0,0-1.677-.645H142.315Zm-9.288,43.86-23.564-39.388h11.008l17.888,30.1Zm-13.631,13.5a4.775,4.775,0,0,1-6.751-.043,4.7,4.7,0,0,1-1.376-3.4,5.221,5.221,0,0,1,1.376-3.655,4.49,4.49,0,0,1,6.708,0,5.23,5.23,0,0,1,1.376,3.655A4.749,4.749,0,0,1,119.4,334.113Zm99.544,0.774V281.309h6.278a2.082,2.082,0,0,0,1.548-.731,2.379,2.379,0,0,0,.688-1.677,2.063,2.063,0,0,0-.645-1.5,2.163,2.163,0,0,0-1.591-.645H171.554a2.2,2.2,0,0,0-2.15,2.15,2.513,2.513,0,0,0,.6,1.72,1.961,1.961,0,0,0,1.548.688h10.492a105.954,105.954,0,0,1-4.128,26.574,89.776,89.776,0,0,1-12.814,27h-4.9a2.1,2.1,0,0,0-1.591.688,2.31,2.31,0,0,0-.645,1.634v14.62a2.238,2.238,0,0,0,.688,1.634,2.139,2.139,0,0,0,1.548.688,2.35,2.35,0,0,0,2.322-2.322V339.445H223.5v12.384a2.359,2.359,0,0,0,2.236,2.236,2.31,2.31,0,0,0,1.634-.645,2.1,2.1,0,0,0,.688-1.591v-14.62a2.35,2.35,0,0,0-2.322-2.322H218.94Zm-4.644,0H204.32V281.309H214.3v53.578Zm-14.534-53.578v53.578H170.694a92,92,0,0,0,11.61-25.8,99.14,99.14,0,0,0,4.3-27.778h13.158ZM323.086,334.8a7.019,7.019,0,0,0-.344-0.86q-3.354-8.341-5.934-14.276a26.747,26.747,0,0,0-8.084-10.836,20.261,20.261,0,0,0-7.912-3.784,23.851,23.851,0,0,0,4.816-7.31,57.541,57.541,0,0,0,2.322-7.224,2.844,2.844,0,0,0,.172-0.688,10.78,10.78,0,0,0,2.408,3.182,9.818,9.818,0,0,0,13.717-.258,9.458,9.458,0,0,0,.043-13.717,9.489,9.489,0,0,0-6.88-2.881h-0.086q-6.8,0-10.062,4.3-2.064,2.58-3.612,8.858-0.087.258-.3,0.9t-0.3.989a48.8,48.8,0,0,1-1.72,4.73h-0.086q-1.893,5.075-4.558,6.708H296.6q-1.806,1.29-5.59,1.29a1.6,1.6,0,0,1-.516.086h-1.634v-22.7h5.762a2.17,2.17,0,0,0,1.634-.731,2.379,2.379,0,0,0,.688-1.677,2.006,2.006,0,0,0-.688-1.5,2.311,2.311,0,0,0-1.634-.645H263.832a2.3,2.3,0,0,0-1.634.645,2,2,0,0,0-.688,1.5,2.37,2.37,0,0,0,.688,1.677,2.164,2.164,0,0,0,1.634.731h6.106v22.7h-1.72a11.057,11.057,0,0,1-6.106-1.376q-2.5-1.548-4.816-6.794a41.373,41.373,0,0,1-2.15-6.536q-0.6-2.149-.946-3.182t-1.118-2.924a9.793,9.793,0,0,0-1.677-2.881,21.434,21.434,0,0,0-2.279-2.107,8.306,8.306,0,0,0-3.311-1.591,18.35,18.35,0,0,0-4.343-.473h-0.086a9.691,9.691,0,0,0-9.8,9.718,9.748,9.748,0,0,0,2.838,6.88,9.606,9.606,0,0,0,7.052,2.924,9.468,9.468,0,0,0,6.708-2.666,9.015,9.015,0,0,0,2.408-3.268,1.393,1.393,0,0,0,.086.43,1.48,1.48,0,0,1,.086.344l0.086,0.258a40.32,40.32,0,0,0,2.322,6.966,23.993,23.993,0,0,0,4.73,7.31,20.248,20.248,0,0,0-7.912,3.784,24.6,24.6,0,0,0-8.084,10.836q-4.989,11.181-6.278,15.136h-4.472a2.426,2.426,0,0,0-2.408,2.322,2.169,2.169,0,0,0,.731,1.634,2.371,2.371,0,0,0,1.677.688h21.93A2.377,2.377,0,0,0,255.4,337.9v-0.086q2.148-7.224,5.2-15.265t5.117-10.191q3.18-3.182,4.214-3.526v26.058h-6.106a2.3,2.3,0,0,0-1.634.645,2.091,2.091,0,0,0-.688,1.591,2.35,2.35,0,0,0,2.322,2.322H294.62a2.284,2.284,0,0,0,1.591-.688,2.173,2.173,0,0,0,.731-1.634,2.143,2.143,0,0,0-.688-1.548,2.238,2.238,0,0,0-1.634-.688h-5.762V308.829q0.945,0.345,4.128,3.526,3.783,3.87,10.32,25.456l0.086,0.086a2.164,2.164,0,0,0,2.15,1.548h22.1a2.284,2.284,0,0,0,1.591-.688,2.192,2.192,0,0,0,0-3.268,2.288,2.288,0,0,0-1.591-.688h-4.558Zm-15.824,0q-6.882-21.414-11.008-25.542l-0.43-.43q11.952,1.29,16.942,12.642,1.2,2.838,5.418,13.33H307.262Zm6.149-52.675a5.479,5.479,0,0,1,3.913-1.5,5.226,5.226,0,0,1,3.784,1.5,5.192,5.192,0,0,1-.043,7.439,5.194,5.194,0,0,1-3.741,1.548,5.394,5.394,0,0,1-3.913-1.548A5.143,5.143,0,0,1,313.411,282.126Zm-29.2,52.761h-9.632V281.309h9.632v53.578Zm-21.758-25.628q-3.957,3.957-11.008,25.542H240.526q1.719-4.557,5.59-13.33,4.815-11.352,16.77-12.642Zm-20.984-18.146a5.257,5.257,0,0,1-3.784-1.591,5,5,0,0,1-.043-7.353,5.5,5.5,0,0,1,7.654,0,5.093,5.093,0,0,1,0,7.4,5.294,5.294,0,0,1-3.827,1.548h0Zm155.574,43.774-22.962-56.674q-0.174-1.461-2.064-1.462h-7.052a2.067,2.067,0,0,0-2.15,1.376l-0.086.086-3.87,10.578v0.172L348.37,315.021h-0.086v0.172l-8,19.694h-7.4a2.1,2.1,0,0,0-1.591.688,2.31,2.31,0,0,0-.645,1.634,2.359,2.359,0,0,0,2.236,2.236h23.822a2.359,2.359,0,0,0,2.236-2.236,2.236,2.236,0,0,0-.688-1.634,2.146,2.146,0,0,0-1.548-.688H345.274l6.622-16.77h18.146l6.794,16.77h-7.31a2.521,2.521,0,0,0-2.322,2.322,2.131,2.131,0,0,0,.688,1.548,2.228,2.228,0,0,0,1.634.688H401.26a2.359,2.359,0,0,0,2.236-2.236,2.236,2.236,0,0,0-.688-1.634,2.146,2.146,0,0,0-1.548-.688h-4.214Zm-15.308,0L363.42,289.651l3.1-8.342h3.956l21.672,53.578H381.738Zm-27.95-21.328,7.138-17.8,7.224,17.8H353.788Z" transform="translate(-11.281 -80)"/>
  <rect id="Прямоугольник_4" data-name="Прямоугольник 4" class="cls-1" x="153.719" y="30" width="115" height="6"/>
  <rect id="Прямоугольник_4-2" data-name="Прямоугольник 4" class="cls-1" x="153.719" y="47" width="115" height="6"/>
  <rect id="Прямоугольник_4-3" data-name="Прямоугольник 4" class="cls-1" x="153.719" y="64" width="115" height="6"/>
  <rect id="Прямоугольник_5-2" data-name="Прямоугольник 5" class="cls-1" x="99.719" y="288" width="6" height="82"/>
</svg>
