<svg id="logo-dark" xmlns="http://www.w3.org/2000/svg" width="422" height="370" viewBox="0 0 422 370">
  <defs>
    <style>
      .cls-1 {
        fill: #6a3d31;
      }

      .cls-2, .cls-3 {
        fill: #fff;
      }

      .cls-3 {
        fill-rule: evenodd;
      }
    </style>
  </defs>
  <rect id="Фон" class="cls-1" width="422" height="370"/>
  <rect id="Прямоугольник_5" data-name="Прямоугольник 5" class="cls-2" x="319" y="288" width="6" height="82"/>
  <rect id="Прямоугольник_6" data-name="Прямоугольник 6" class="cls-2" x="108" y="364" width="211" height="6"/>
  <rect id="Прямоугольник_1" data-name="Прямоугольник 1" class="cls-2" x="102" width="6" height="83"/>
  <rect id="Прямоугольник_2" data-name="Прямоугольник 2" class="cls-2" x="108" width="217" height="6"/>
  <rect id="Прямоугольник_3" data-name="Прямоугольник 3" class="cls-2" x="319" y="6" width="6" height="77"/>
  <rect id="Прямоугольник_7" data-name="Прямоугольник 7" class="cls-2" x="156" y="302" width="115" height="6"/>
  <rect id="Прямоугольник_7-2" data-name="Прямоугольник 7" class="cls-2" x="156" y="319" width="115" height="6"/>
  <rect id="Прямоугольник_7-3" data-name="Прямоугольник 7" class="cls-2" x="156" y="336" width="115" height="6"/>
  <path id="СУДЖА" class="cls-3" d="M90.855,321.7a1.8,1.8,0,0,0-1.892,1.29,12.345,12.345,0,0,1-.86,1.29,34.1,34.1,0,0,1-6.45,8.6,15.423,15.423,0,0,1-8.686,2.494,14.789,14.789,0,0,1-6.708-1.548q-9.633-5.5-9.632-22.7,0-12.813,4.042-19.866a14.235,14.235,0,0,1,11.438-7.482,18.5,18.5,0,0,1,8.858,4.558,41.05,41.05,0,0,1,7.224,9.546v5.676a2.022,2.022,0,0,0,.645,1.548,2.239,2.239,0,0,0,1.591.6,2.163,2.163,0,0,0,1.591-.645,2.062,2.062,0,0,0,.645-1.5V281.972a2.236,2.236,0,1,0-4.472,0v7.654a29.476,29.476,0,0,0-6.622-6.708,21.359,21.359,0,0,0-12.384-3.784,34.629,34.629,0,0,0-14.1,2.838,31.19,31.19,0,0,0-10.32,7.31,31.657,31.657,0,0,0-8.428,21.844q0,15.309,10.062,24.08a30.751,30.751,0,0,0,10.234,5.934,33.676,33.676,0,0,0,11.352,1.892,23.378,23.378,0,0,0,14.1-4.644q6.192-4.557,10.836-13.416A2.29,2.29,0,0,0,93,323.338a2.118,2.118,0,0,0-1.032-1.29,1.74,1.74,0,0,0-1.118-.344h0Zm-38.7-10.578q0,19.781,12.04,26.66a13.146,13.146,0,0,0,1.548.688,29.381,29.381,0,0,1-9.331-2.15A26.975,26.975,0,0,1,48.5,331.25a22.5,22.5,0,0,1-5.633-8.471A31.362,31.362,0,0,1,40.8,311.126a28.607,28.607,0,0,1,4.9-15.867,24.622,24.622,0,0,1,14.1-10.277,22.244,22.244,0,0,0-4.644,7.31q-3.011,7.311-3.01,18.834h0Zm87.805-31.39a2.2,2.2,0,0,0-2.236,2.236,2,2,0,0,0,.688,1.5,2.208,2.208,0,0,0,1.548.645H151.4l-12.9,25.542-15.136-25.456H130.5a2.308,2.308,0,0,0,1.634-.645,2.093,2.093,0,0,0,.688-1.591,2.163,2.163,0,0,0-.645-1.591,2.269,2.269,0,0,0-1.677-.645H98.681a2.2,2.2,0,0,0-2.236,2.236,2.1,2.1,0,0,0,.688,1.591,2.205,2.205,0,0,0,1.548.645h3.1l26.4,43.946a0.076,0.076,0,0,0-.086.086v0.086l-0.172.258a27.963,27.963,0,0,1-5.16,6.794,6.586,6.586,0,0,0,.172-1.72,9.538,9.538,0,0,0-2.666-6.837,8.781,8.781,0,0,0-6.622-2.8,8.355,8.355,0,0,0-6.45,2.838,9.889,9.889,0,0,0-.086,13.416,8.928,8.928,0,0,0,6.536,2.752,17.981,17.981,0,0,0,12.47-4.558,30.15,30.15,0,0,0,5.848-7.912h0.086a0.659,0.659,0,0,0,.086-0.258,2.013,2.013,0,0,1,.344-0.516l0.344-.688,7.654-13.674V315.34l16-31.218h5.934a2.308,2.308,0,0,0,1.634-.645,2,2,0,0,0,.688-1.5,2.163,2.163,0,0,0-.645-1.591,2.269,2.269,0,0,0-1.677-.645H139.96Zm-9.288,43.86-23.564-39.388h11.008L136,314.308Zm-13.631,13.5a4.775,4.775,0,0,1-6.751-.043,4.709,4.709,0,0,1-1.376-3.4A5.225,5.225,0,0,1,110.29,330,4.49,4.49,0,0,1,117,330a5.225,5.225,0,0,1,1.376,3.655A4.745,4.745,0,0,1,117.041,337.1Zm102.985,0.774V284.294H226.3a2.082,2.082,0,0,0,1.548-.731,2.379,2.379,0,0,0,.688-1.677,2.063,2.063,0,0,0-.645-1.505,2.163,2.163,0,0,0-1.591-.645H172.64a2.2,2.2,0,0,0-2.15,2.15,2.513,2.513,0,0,0,.6,1.72,1.961,1.961,0,0,0,1.548.688h10.492A105.954,105.954,0,0,1,179,310.868a89.776,89.776,0,0,1-12.814,27h-4.9a2.1,2.1,0,0,0-1.591.688,2.31,2.31,0,0,0-.645,1.634v14.62a2.238,2.238,0,0,0,.688,1.634,2.139,2.139,0,0,0,1.548.688,2.35,2.35,0,0,0,2.322-2.322V342.43h60.974v12.384a2.359,2.359,0,0,0,2.236,2.236,2.31,2.31,0,0,0,1.634-.645,2.1,2.1,0,0,0,.688-1.591v-14.62a2.35,2.35,0,0,0-2.322-2.322h-6.794Zm-4.644,0h-9.976V284.294h9.976v53.578Zm-14.534-53.578v53.578H171.78a92,92,0,0,0,11.61-25.8,99.14,99.14,0,0,0,4.3-27.778h13.158Zm123.324,53.492a7.019,7.019,0,0,0-.344-0.86q-3.354-8.341-5.934-14.276a26.747,26.747,0,0,0-8.084-10.836,20.261,20.261,0,0,0-7.912-3.784,23.851,23.851,0,0,0,4.816-7.31,57.541,57.541,0,0,0,2.322-7.224,2.844,2.844,0,0,0,.172-0.688,10.78,10.78,0,0,0,2.408,3.182,9.818,9.818,0,0,0,13.717-.258,9.458,9.458,0,0,0,.043-13.717,9.489,9.489,0,0,0-6.88-2.881H318.41q-6.8,0-10.062,4.3-2.064,2.58-3.612,8.858-0.087.258-.3,0.9t-0.3.989a48.8,48.8,0,0,1-1.72,4.73h-0.086q-1.893,5.075-4.558,6.708h-0.086q-1.806,1.29-5.59,1.29a1.6,1.6,0,0,1-.516.086h-1.634v-22.7h5.762a2.17,2.17,0,0,0,1.634-.731,2.379,2.379,0,0,0,.688-1.677,2.006,2.006,0,0,0-.688-1.505,2.311,2.311,0,0,0-1.634-.645H264.918a2.3,2.3,0,0,0-1.634.645,2,2,0,0,0-.688,1.505,2.37,2.37,0,0,0,.688,1.677,2.164,2.164,0,0,0,1.634.731h6.106V307H269.3a11.057,11.057,0,0,1-6.106-1.376q-2.5-1.548-4.816-6.794a41.373,41.373,0,0,1-2.15-6.536q-0.6-2.149-.946-3.182t-1.118-2.924a9.793,9.793,0,0,0-1.677-2.881,21.434,21.434,0,0,0-2.279-2.107,8.306,8.306,0,0,0-3.311-1.591,18.35,18.35,0,0,0-4.343-.473h-0.086a9.691,9.691,0,0,0-9.8,9.718,9.748,9.748,0,0,0,2.838,6.88,9.606,9.606,0,0,0,7.052,2.924,9.468,9.468,0,0,0,6.708-2.666,9.015,9.015,0,0,0,2.408-3.268,1.393,1.393,0,0,0,.086.43,1.48,1.48,0,0,1,.086.344l0.086,0.258a40.32,40.32,0,0,0,2.322,6.966,23.993,23.993,0,0,0,4.73,7.31,20.248,20.248,0,0,0-7.912,3.784,24.6,24.6,0,0,0-8.084,10.836Q238,333.831,236.71,337.786h-4.472a2.426,2.426,0,0,0-2.408,2.322,2.169,2.169,0,0,0,.731,1.634,2.371,2.371,0,0,0,1.677.688h21.93a2.377,2.377,0,0,0,2.322-1.548V340.8q2.148-7.224,5.2-15.265t5.117-10.191q3.18-3.181,4.214-3.526v26.058h-6.106a2.3,2.3,0,0,0-1.634.645,2.091,2.091,0,0,0-.688,1.591,2.35,2.35,0,0,0,2.322,2.322h30.788a2.284,2.284,0,0,0,1.591-.688,2.173,2.173,0,0,0,.731-1.634,2.143,2.143,0,0,0-.688-1.548,2.238,2.238,0,0,0-1.634-.688h-5.762V311.814q0.945,0.345,4.128,3.526,3.783,3.87,10.32,25.456l0.086,0.086a2.164,2.164,0,0,0,2.15,1.548h22.1a2.284,2.284,0,0,0,1.591-.688,2.192,2.192,0,0,0,0-3.268,2.288,2.288,0,0,0-1.591-.688h-4.558Zm-15.824,0q-6.882-21.414-11.008-25.542l-0.43-.43q11.952,1.29,16.942,12.642,1.2,2.838,5.418,13.33H308.348Zm6.149-52.675a5.479,5.479,0,0,1,3.913-1.5,5.226,5.226,0,0,1,3.784,1.5,5.192,5.192,0,0,1-.043,7.439,5.194,5.194,0,0,1-3.741,1.548,5.394,5.394,0,0,1-3.913-1.548A5.143,5.143,0,0,1,314.5,285.111Zm-29.2,52.761h-9.632V284.294H285.3v53.578Zm-21.758-25.628q-3.957,3.957-11.008,25.542H241.612q1.719-4.557,5.59-13.33,4.815-11.352,16.77-12.642ZM242.558,294.1a5.257,5.257,0,0,1-3.784-1.591,5,5,0,0,1-.043-7.353,5.5,5.5,0,0,1,7.654,0,5.093,5.093,0,0,1,0,7.4,5.294,5.294,0,0,1-3.827,1.548h0Zm155.574,43.774L375.17,281.2q-0.174-1.461-2.064-1.462h-7.052a2.067,2.067,0,0,0-2.15,1.376l-0.086.086-3.87,10.578v0.172l-10.492,26.058H349.37v0.172l-8,19.694h-7.4a2.1,2.1,0,0,0-1.591.688,2.31,2.31,0,0,0-.645,1.634,2.359,2.359,0,0,0,2.236,2.236H357.8a2.359,2.359,0,0,0,2.236-2.236,2.236,2.236,0,0,0-.688-1.634,2.146,2.146,0,0,0-1.548-.688H346.36l6.622-16.77h18.146l6.794,16.77h-7.31a2.521,2.521,0,0,0-2.322,2.322,2.131,2.131,0,0,0,.688,1.548,2.228,2.228,0,0,0,1.634.688h31.734a2.359,2.359,0,0,0,2.236-2.236,2.236,2.236,0,0,0-.688-1.634,2.146,2.146,0,0,0-1.548-.688h-4.214Zm-15.308,0-18.318-45.236,3.1-8.342h3.956l21.672,53.578H382.824Zm-27.95-21.328,7.138-17.8,7.224,17.8H354.874Z" transform="translate(-9 -80)"/>
  <path id="ДАВНЯЯ" class="cls-3" d="M70.227,248.888V195.31h6.278a2.084,2.084,0,0,0,1.548-.731,2.374,2.374,0,0,0,.688-1.677,2.065,2.065,0,0,0-.645-1.5,2.163,2.163,0,0,0-1.591-.645H22.841a2.2,2.2,0,0,0-2.15,2.15,2.514,2.514,0,0,0,.6,1.72,1.956,1.956,0,0,0,1.548.688H33.333a105.94,105.94,0,0,1-4.128,26.574,89.779,89.779,0,0,1-12.814,27h-4.9a2.1,2.1,0,0,0-1.591.688,2.311,2.311,0,0,0-.645,1.634v14.62a2.234,2.234,0,0,0,.688,1.634,2.136,2.136,0,0,0,1.548.688,2.35,2.35,0,0,0,2.322-2.322V253.446H74.785V265.83a2.359,2.359,0,0,0,2.236,2.236,2.31,2.31,0,0,0,1.634-.645,2.1,2.1,0,0,0,.688-1.591V251.21a2.35,2.35,0,0,0-2.322-2.322H70.227Zm-4.644,0H55.607V195.31h9.976v53.578ZM51.049,195.31v53.578H21.981a92,92,0,0,0,11.61-25.8,99.128,99.128,0,0,0,4.3-27.778H51.049Zm95.03,53.578-22.962-56.674q-0.174-1.461-2.064-1.462H114a2.068,2.068,0,0,0-2.15,1.376l-0.086.086-3.87,10.578v0.172L97.4,229.022H97.317v0.172l-8,19.694h-7.4a2.1,2.1,0,0,0-1.591.688,2.312,2.312,0,0,0-.645,1.634,2.359,2.359,0,0,0,2.236,2.236h23.822a2.359,2.359,0,0,0,2.236-2.236,2.238,2.238,0,0,0-.688-1.634,2.146,2.146,0,0,0-1.548-.688H94.307l6.622-16.77h18.146l6.794,16.77h-7.31a2.521,2.521,0,0,0-2.322,2.322,2.131,2.131,0,0,0,.688,1.548,2.224,2.224,0,0,0,1.634.688h31.734a2.359,2.359,0,0,0,2.236-2.236,2.238,2.238,0,0,0-.688-1.634,2.146,2.146,0,0,0-1.548-.688h-4.214Zm-15.308,0-18.318-45.236,3.1-8.342h3.956l21.672,53.578H130.771Zm-27.95-21.328,7.138-17.8,7.224,17.8H102.821Zm100.534-7.74q10.146-4.128,10.148-13.846,0-10.233-10.664-13.416-6.192-1.806-22.188-1.806H157a2.2,2.2,0,0,0-2.236,2.236,2.3,2.3,0,0,0,.645,1.634,2.088,2.088,0,0,0,1.591.688h6.278v53.578H157a2.2,2.2,0,0,0-2.236,2.236,2.224,2.224,0,0,0,.688,1.634,2.131,2.131,0,0,0,1.548.688h23.134q17.715,0,24.6-2.322,11.781-3.954,11.782-16.426,0-7.137-4.644-10.922a21.4,21.4,0,0,0-8.514-3.956h0Zm-20.984-1.548V195.4a13.98,13.98,0,0,1,7.654,2.924q2.838,2.667,2.838,7.654a14.453,14.453,0,0,1-1.075,5.762,8.932,8.932,0,0,1-2.838,3.784,18.976,18.976,0,0,1-3.053,1.892,11.707,11.707,0,0,1-2.494.86h-1.032Zm2.064,4.73a15.118,15.118,0,0,1,8.17,3.526q3.1,2.838,3.1,8.17,0,6.192-3.827,9.46a20.376,20.376,0,0,1-9.5,4.386V223h2.064Zm8.686-5.16a12.478,12.478,0,0,0,2.322-3.268,18.289,18.289,0,0,0,1.978-8.6q0-6.45-3.612-10.32,7.224,0.516,10.75,2.408,4.386,2.409,4.386,7.912a9.167,9.167,0,0,1-4.472,8.084q-3.7,2.58-11.352,3.784h0Zm0.688,30.53a20.2,20.2,0,0,0,3.612-3.7,17.691,17.691,0,0,0,2.838-9.976q0-7.137-4.558-11.438v-0.086q7.824,0.861,11.524,2.838,4.815,2.667,4.816,8.686,0,7.569-5.5,10.664-4.386,2.409-12.728,3.01h0Zm-16.082.516h-9.89V195.31h9.89v53.578Zm103.715,0V195.31h6.278a2.359,2.359,0,0,0,2.236-2.236,2.311,2.311,0,0,0-.645-1.634,2.1,2.1,0,0,0-1.591-.688h-31.3a2.1,2.1,0,0,0-1.591.688,2.311,2.311,0,0,0-.645,1.634,2.359,2.359,0,0,0,2.236,2.236h5.848v23.134h-20.21V195.31h6.106a2.065,2.065,0,0,0,1.5-.645,2.16,2.16,0,0,0,.645-1.591,2.311,2.311,0,0,0-.645-1.634,2.007,2.007,0,0,0-1.5-.688H216.684a2.139,2.139,0,0,0-1.548.688,2.23,2.23,0,0,0-.688,1.634,2.359,2.359,0,0,0,2.236,2.236h6.278v53.578h-6.278a2.139,2.139,0,0,0-1.548.688,2.23,2.23,0,0,0-.688,1.634,2.359,2.359,0,0,0,2.236,2.236H248.16a2.025,2.025,0,0,0,1.548-.645,2.247,2.247,0,0,0,.6-1.591,2.311,2.311,0,0,0-.645-1.634,2.007,2.007,0,0,0-1.5-.688h-6.106v-25.8h20.21v25.8h-5.848a2.1,2.1,0,0,0-1.591.688,2.311,2.311,0,0,0-.645,1.634,2.2,2.2,0,0,0,2.236,2.236h31.3a2.2,2.2,0,0,0,2.236-2.236,2.311,2.311,0,0,0-.645-1.634,2.1,2.1,0,0,0-1.591-.688h-6.278Zm-4.472,0h-9.976V195.31h9.976v53.578Zm-39.474,0h-9.89V195.31h9.89v53.578Zm114.551,0V195.31h6.88a2.091,2.091,0,0,0,1.591-.688,2.416,2.416,0,0,0,.645-1.72,2.007,2.007,0,0,0-.688-1.5,2.208,2.208,0,0,0-1.548-.645H332.7q-15.738,0-21.844,2.236-9.719,3.612-9.718,14.1a15.9,15.9,0,0,0,4.042,10.922,19.406,19.406,0,0,0,8.944,5.59q-5.418,3.1-9.46,11.438-3.268,6.882-5.676,12.04a10.745,10.745,0,0,1-.86,1.806h-4.816a2.065,2.065,0,0,0-1.505.645,2.163,2.163,0,0,0-.645,1.591,2.281,2.281,0,0,0,.688,1.591,2.006,2.006,0,0,0,1.462.731h22.016a2.01,2.01,0,0,0,2.064-1.462h0.086q2.149-5.934,5.633-13.5t5.547-9.632q3.1-2.751,4.386-3.1v23.134h-6.278a2.222,2.222,0,0,0-1.5,3.87,2.274,2.274,0,0,0,1.591.688h31.476a2.129,2.129,0,0,0,1.677-.731,2.355,2.355,0,0,0,.645-1.591,2.1,2.1,0,0,0-.688-1.591,2.418,2.418,0,0,0-1.72-.645h-6.192Zm-4.644,0h-9.718V195.31h9.8Zm-30.53-41.194a17.4,17.4,0,0,0,6.02,13.158q-3.01-.429-5.074-0.774-12.041-3.009-12.04-12.986,0-6.276,4.644-8.772,3.783-2.064,11.266-2.58a13.9,13.9,0,0,0-3.01,3.956,17.3,17.3,0,0,0-1.806,8h0Zm8.6,17.974q-3.612,3.354-11.266,21.844a12.831,12.831,0,0,1-.516,1.376H303.2q0.171-.429.731-1.634t1.2-2.58q0.645-1.374,1.333-2.752,0.258-.516,1.032-2.236t1.29-2.752q3.182-6.534,6.751-8.772t10.019-2.494h-0.086Zm7.568-4.644a13.632,13.632,0,0,1-8.256-4.687,12.791,12.791,0,0,1-3.44-8.643,11.552,11.552,0,0,1,3.139-8.342,13.859,13.859,0,0,1,8.557-3.956v25.628Zm88.837,27.864V195.31h6.88a2.089,2.089,0,0,0,1.591-.688,2.416,2.416,0,0,0,.645-1.72,2,2,0,0,0-.688-1.5,2.208,2.208,0,0,0-1.548-.645h-26.23q-15.738,0-21.844,2.236-9.719,3.612-9.718,14.1a15.9,15.9,0,0,0,4.042,10.922,19.411,19.411,0,0,0,8.944,5.59q-5.418,3.1-9.46,11.438-3.269,6.882-5.676,12.04a10.662,10.662,0,0,1-.86,1.806H363.14a2.065,2.065,0,0,0-1.5.645,2.163,2.163,0,0,0-.645,1.591,2.281,2.281,0,0,0,.688,1.591,2.006,2.006,0,0,0,1.462.731h22.016a2.01,2.01,0,0,0,2.064-1.462h0.086q2.149-5.934,5.633-13.5t5.547-9.632q3.1-2.751,4.386-3.1v23.134h-6.278a2.222,2.222,0,0,0-1.5,3.87,2.276,2.276,0,0,0,1.591.688h31.476a2.129,2.129,0,0,0,1.677-.731,2.355,2.355,0,0,0,.645-1.591,2.094,2.094,0,0,0-.688-1.591,2.418,2.418,0,0,0-1.72-.645h-6.192Zm-4.644,0h-9.718V195.31h9.8ZM386.7,207.694a17.4,17.4,0,0,0,6.02,13.158q-3.011-.429-5.074-0.774-12.04-3.009-12.04-12.986,0-6.276,4.644-8.772,3.784-2.064,11.266-2.58a13.917,13.917,0,0,0-3.01,3.956,17.3,17.3,0,0,0-1.806,8h0Zm8.6,17.974q-3.612,3.354-11.266,21.844a12.4,12.4,0,0,1-.516,1.376H373.03q0.173-.429.731-1.634t1.2-2.58q0.645-1.374,1.333-2.752,0.258-.516,1.032-2.236t1.29-2.752q3.181-6.534,6.751-8.772t10.019-2.494H395.3Zm7.568-4.644a13.632,13.632,0,0,1-8.256-4.687,12.8,12.8,0,0,1-3.44-8.643,11.552,11.552,0,0,1,3.139-8.342,13.862,13.862,0,0,1,8.557-3.956v25.628Z" transform="translate(-9 -80)"/>
  <rect id="Прямоугольник_4" data-name="Прямоугольник 4" class="cls-2" x="156" y="30" width="115" height="6"/>
  <rect id="Прямоугольник_4-2" data-name="Прямоугольник 4" class="cls-2" x="156" y="47" width="115" height="6"/>
  <rect id="Прямоугольник_4-3" data-name="Прямоугольник 4" class="cls-2" x="156" y="64" width="115" height="6"/>
  <rect id="Прямоугольник_5-2" data-name="Прямоугольник 5" class="cls-2" x="102" y="288" width="6" height="82"/>
</svg>
