<svg id="logo-dark" xmlns="http://www.w3.org/2000/svg" width="682.5" height="227.5" viewBox="0 0 273 91">
  <defs>
    <style>
      .cls-1 {
        fill: #6a3d31;
      }

      .cls-2, .cls-3 {
        fill: #fff;
      }

      .cls-3 {
        fill-rule: evenodd;
      }
    </style>
  </defs>
  <g id="Низ">
    <rect id="Фон" class="cls-1" width="273" height="91"/>
    <rect id="Прямоугольник_3" data-name="Прямоугольник 3" class="cls-2" x="63" y="66" width="2" height="25"/>
    <rect id="Прямоугольник_10" data-name="Прямоугольник 10" class="cls-2" x="7" y="82" width="51" height="2"/>
    <rect id="Прямоугольник_8" data-name="Прямоугольник 8" class="cls-2" x="2" y="89" width="61" height="2"/>
    <rect id="Прямоугольник_1" data-name="Прямоугольник 1" class="cls-2" y="66" width="2" height="25"/>
    <rect id="Прямоугольник_12" data-name="Прямоугольник 12" class="cls-2" x="7" y="74" width="51" height="2"/>
    <rect id="Прямоугольник_11" data-name="Прямоугольник 11" class="cls-2" x="7" y="78" width="51" height="2"/>
  </g>
  <g id="Верх">
    <rect id="Прямоугольник_4" data-name="Прямоугольник 4" class="cls-2" x="7" y="15" width="51" height="2"/>
    <rect id="Прямоугольник_4-2" data-name="Прямоугольник 4" class="cls-2" x="7" y="7" width="51" height="2"/>
    <rect id="Прямоугольник_4-3" data-name="Прямоугольник 4" class="cls-2" x="7" y="11" width="51" height="2"/>
    <rect id="Прямоугольник_3-2" data-name="Прямоугольник 3" class="cls-2" x="63" y="2" width="2" height="23"/>
    <rect id="Прямоугольник_1-2" data-name="Прямоугольник 1" class="cls-2" width="2" height="25"/>
    <rect id="Прямоугольник_2" data-name="Прямоугольник 2" class="cls-2" width="65" height="2"/>
  </g>
  <g id="Суджа">
    <path id="С" class="cls-3" d="M149.1,97.213a0.751,0.751,0,0,0-.792.54,5.285,5.285,0,0,1-.36.54,14.3,14.3,0,0,1-2.7,3.6,6.451,6.451,0,0,1-3.636,1.044,6.191,6.191,0,0,1-2.808-.648q-4.032-2.3-4.032-9.5,0-5.364,1.692-8.316a5.959,5.959,0,0,1,4.788-3.132,7.745,7.745,0,0,1,3.708,1.908,17.214,17.214,0,0,1,3.024,4v2.376a0.846,0.846,0,0,0,.27.648,0.937,0.937,0,0,0,.666.252,0.9,0.9,0,0,0,.666-0.27,0.863,0.863,0,0,0,.27-0.63V80.581a0.936,0.936,0,1,0-1.872,0v3.2a12.351,12.351,0,0,0-2.772-2.808,8.94,8.94,0,0,0-5.184-1.584,14.494,14.494,0,0,0-5.9,1.188,13.061,13.061,0,0,0-4.32,3.06,13.251,13.251,0,0,0-3.528,9.144q0,6.408,4.212,10.08a12.866,12.866,0,0,0,4.284,2.484,14.105,14.105,0,0,0,4.752.792,9.787,9.787,0,0,0,5.9-1.944,16.069,16.069,0,0,0,4.536-5.616,0.962,0.962,0,0,0,.036-0.684,0.887,0.887,0,0,0-.432-0.54,0.73,0.73,0,0,0-.468-0.144h0Zm-16.2-4.428q0,8.28,5.04,11.16a5.551,5.551,0,0,0,.648.288,12.273,12.273,0,0,1-3.906-.9,11.269,11.269,0,0,1-3.312-2.124,9.422,9.422,0,0,1-2.358-3.546,13.129,13.129,0,0,1-.864-4.878,11.976,11.976,0,0,1,2.052-6.642,10.305,10.305,0,0,1,5.9-4.3,9.293,9.293,0,0,0-1.944,3.06,20.913,20.913,0,0,0-1.26,7.884h0Z" transform="translate(-33 -21)"/>
    <path id="У" class="cls-3" d="M170.74,79.525a0.922,0.922,0,0,0-.936.936,0.835,0.835,0,0,0,.288.63,0.924,0.924,0,0,0,.648.27h4.788l-5.4,10.692L163.792,81.4h2.988a0.968,0.968,0,0,0,.684-0.27,0.876,0.876,0,0,0,.288-0.666,0.905,0.905,0,0,0-.27-0.666,0.95,0.95,0,0,0-.7-0.27H153.46a0.922,0.922,0,0,0-.936.936,0.876,0.876,0,0,0,.288.666,0.924,0.924,0,0,0,.648.27h1.3l11.052,18.4a0.032,0.032,0,0,0-.036.036v0.036l-0.072.108a11.7,11.7,0,0,1-2.16,2.844,2.755,2.755,0,0,0,.072-0.72,4,4,0,0,0-1.116-2.862,3.678,3.678,0,0,0-2.772-1.17,3.5,3.5,0,0,0-2.7,1.188,4.139,4.139,0,0,0-.036,5.616,3.732,3.732,0,0,0,2.736,1.152,7.525,7.525,0,0,0,5.22-1.908,12.625,12.625,0,0,0,2.448-3.312h0.036a0.284,0.284,0,0,0,.036-0.108,0.848,0.848,0,0,1,.144-0.216l0.144-.288,3.2-5.724V94.429l6.7-13.068h2.484a0.968,0.968,0,0,0,.684-0.27,0.838,0.838,0,0,0,.288-0.63,0.905,0.905,0,0,0-.27-0.666,0.95,0.95,0,0,0-.7-0.27h-9.4Zm-3.888,18.36L156.988,81.4H161.6L169.084,94Zm-5.706,5.652a2,2,0,0,1-2.826-.018,1.969,1.969,0,0,1-.576-1.422,2.189,2.189,0,0,1,.576-1.53,1.88,1.88,0,0,1,2.808,0,2.194,2.194,0,0,1,.576,1.53A1.986,1.986,0,0,1,161.146,103.537Z" transform="translate(-33 -21)"/>
    <path id="Д" class="cls-3" d="M203.111,103.616V81.188h2.628a0.871,0.871,0,0,0,.648-0.306,0.994,0.994,0,0,0,.288-0.7,0.864,0.864,0,0,0-.27-0.63,0.9,0.9,0,0,0-.666-0.27H183.275a0.923,0.923,0,0,0-.9.9,1.054,1.054,0,0,0,.252.72,0.821,0.821,0,0,0,.648.288h4.392a44.349,44.349,0,0,1-1.728,11.124,37.576,37.576,0,0,1-5.364,11.3h-2.052a0.877,0.877,0,0,0-.666.288,0.966,0.966,0,0,0-.27.684v6.12a0.936,0.936,0,0,0,.288.684,0.9,0.9,0,0,0,.648.288,0.984,0.984,0,0,0,.972-0.972v-5.184h25.524v5.184a0.988,0.988,0,0,0,.936.936,0.966,0.966,0,0,0,.684-0.27,0.877,0.877,0,0,0,.288-0.666v-6.12a0.984,0.984,0,0,0-.972-0.972h-2.844Zm-1.944,0h-4.176V81.188h4.176v22.428Zm-6.084-22.428v22.428H182.915a38.512,38.512,0,0,0,4.86-10.8,41.489,41.489,0,0,0,1.8-11.628h5.508Z" transform="translate(-33 -21)"/>
    <path id="Ж" class="cls-3" d="M246.9,103.083a2.794,2.794,0,0,0-.144-0.36q-1.4-3.492-2.484-5.976a11.191,11.191,0,0,0-3.384-4.536,8.476,8.476,0,0,0-3.312-1.584,9.975,9.975,0,0,0,2.016-3.06,23.875,23.875,0,0,0,.972-3.024,1.174,1.174,0,0,0,.072-0.288,4.515,4.515,0,0,0,1.008,1.332,4.11,4.11,0,0,0,5.742-.108,3.959,3.959,0,0,0,.018-5.742,3.971,3.971,0,0,0-2.88-1.206h-0.036a4.952,4.952,0,0,0-4.212,1.8,10.036,10.036,0,0,0-1.512,3.708l-0.126.378c-0.06.18-.1,0.318-0.126,0.414a20.206,20.206,0,0,1-.72,1.98h-0.036a5.368,5.368,0,0,1-1.908,2.808h-0.036a4.058,4.058,0,0,1-2.34.54,0.674,0.674,0,0,1-.216.036h-0.684v-9.5h2.412a0.908,0.908,0,0,0,.684-0.306,0.994,0.994,0,0,0,.288-0.7,0.839,0.839,0,0,0-.288-0.63,0.966,0.966,0,0,0-.684-0.27H222.092a0.966,0.966,0,0,0-.684.27,0.839,0.839,0,0,0-.288.63,0.994,0.994,0,0,0,.288.7,0.908,0.908,0,0,0,.684.306h2.556v9.5h-0.72a4.63,4.63,0,0,1-2.556-.576,6.3,6.3,0,0,1-2.016-2.844,17.341,17.341,0,0,1-.9-2.736q-0.252-.9-0.4-1.332t-0.468-1.224a4.1,4.1,0,0,0-.7-1.206,8.937,8.937,0,0,0-.954-0.882,3.478,3.478,0,0,0-1.386-.666,7.692,7.692,0,0,0-1.818-.2H212.7a4.057,4.057,0,0,0-4.1,4.068,4.081,4.081,0,0,0,1.188,2.88,4.022,4.022,0,0,0,2.952,1.224,3.964,3.964,0,0,0,2.808-1.116,3.765,3.765,0,0,0,1.008-1.368,0.59,0.59,0,0,0,.036.18,0.593,0.593,0,0,1,.036.144l0.036,0.108a16.927,16.927,0,0,0,.972,2.916,10.051,10.051,0,0,0,1.98,3.06,8.476,8.476,0,0,0-3.312,1.584,10.3,10.3,0,0,0-3.384,4.536q-2.088,4.68-2.628,6.336h-1.872a0.948,0.948,0,0,0-.72.306,0.96,0.96,0,0,0-.288.666,0.912,0.912,0,0,0,.306.684,1,1,0,0,0,.7.288h9.18a0.994,0.994,0,0,0,.972-0.648v-0.036q0.9-3.024,2.178-6.39a14.609,14.609,0,0,1,2.142-4.266,7.205,7.205,0,0,1,1.764-1.476v10.908h-2.556a0.966,0.966,0,0,0-.684.27,0.877,0.877,0,0,0-.288.666,0.984,0.984,0,0,0,.972.972H234.98a0.955,0.955,0,0,0,.666-0.288,0.908,0.908,0,0,0,.306-0.684,0.9,0.9,0,0,0-.288-0.648,0.934,0.934,0,0,0-.684-0.288h-2.412V92.211a7.875,7.875,0,0,1,1.728,1.476q1.584,1.62,4.32,10.656l0.036,0.036a0.906,0.906,0,0,0,.9.648H248.8a0.955,0.955,0,0,0,.666-0.288,0.917,0.917,0,0,0,0-1.368,0.955,0.955,0,0,0-.666-0.288H246.9Zm-6.624,0q-2.88-8.964-4.608-10.692l-0.18-.18a8.286,8.286,0,0,1,7.092,5.292q0.5,1.188,2.268,5.58h-4.572Zm2.574-22.05a2.3,2.3,0,0,1,1.638-.63,2.188,2.188,0,0,1,1.584.63,2.173,2.173,0,0,1-.018,3.114,2.173,2.173,0,0,1-1.566.648,2.259,2.259,0,0,1-1.638-.648A2.153,2.153,0,0,1,242.846,81.033Zm-12.222,22.086h-4.032V80.691h4.032v22.428Zm-9.108-10.728q-1.656,1.656-4.608,10.692h-4.572q0.72-1.908,2.34-5.58a8.131,8.131,0,0,1,7.02-5.292Zm-8.784-7.6a2.2,2.2,0,0,1-1.584-.666,2.092,2.092,0,0,1-.018-3.078,2.3,2.3,0,0,1,3.2,0,2.132,2.132,0,0,1,0,3.1,2.215,2.215,0,0,1-1.6.648h0Z" transform="translate(-33 -21)"/>
    <path id="А" class="cls-3" d="M278.678,102.759l-9.612-23.724a0.722,0.722,0,0,0-.864-0.612H265.25a0.866,0.866,0,0,0-.9.576l-0.036.036-1.62,4.428v0.072L258.3,94.443h-0.036v0.072l-3.348,8.244h-3.1a0.877,0.877,0,0,0-.666.288,0.968,0.968,0,0,0-.27.684,0.988,0.988,0,0,0,.936.936h9.972a0.988,0.988,0,0,0,.936-0.936,0.936,0.936,0,0,0-.288-0.684,0.9,0.9,0,0,0-.648-0.288h-4.788l2.772-7.02h7.6l2.844,7.02h-3.06a1.055,1.055,0,0,0-.972.972,0.9,0.9,0,0,0,.288.648,0.931,0.931,0,0,0,.684.288h13.284a0.988,0.988,0,0,0,.936-0.936,0.936,0.936,0,0,0-.288-0.684,0.9,0.9,0,0,0-.648-0.288h-1.764Zm-6.408,0L264.6,83.823l1.3-3.492h1.656l9.072,22.428H272.27Zm-11.7-8.928,2.988-7.452,3.024,7.452H260.57Z" transform="translate(-33 -21)"/>
  </g>
  <path id="ДАВНЯЯ" class="cls-3" d="M150.339,54.809V31.758h2.7a0.894,0.894,0,0,0,.666-0.314,1.019,1.019,0,0,0,.3-0.721,0.888,0.888,0,0,0-.277-0.648,0.93,0.93,0,0,0-.685-0.277H129.952a0.949,0.949,0,0,0-.925.925,1.086,1.086,0,0,0,.259.74,0.844,0.844,0,0,0,.666.3h4.514a45.582,45.582,0,0,1-1.776,11.433,38.611,38.611,0,0,1-5.513,11.618h-2.109a0.9,0.9,0,0,0-.684.3,0.994,0.994,0,0,0-.278.7V62.1a0.962,0.962,0,0,0,.3.7,0.923,0.923,0,0,0,.666.3,1.011,1.011,0,0,0,1-1V56.77H152.3V62.1a1.015,1.015,0,0,0,.962.962,0.991,0.991,0,0,0,.7-0.278,0.9,0.9,0,0,0,.3-0.684v-6.29a1.011,1.011,0,0,0-1-1h-2.923Zm-2,0h-4.292V31.758h4.292V54.809Zm-6.253-23.051V54.809H129.582a39.581,39.581,0,0,0,5-11.1,42.617,42.617,0,0,0,1.85-11.951h5.661Zm40.885,23.051-9.879-24.383a0.741,0.741,0,0,0-.888-0.629h-3.034a0.89,0.89,0,0,0-.925.592l-0.037.037-1.665,4.551v0.074l-4.514,11.211h-0.037v0.074l-3.441,8.473h-3.182a0.9,0.9,0,0,0-.684.3,0.994,0.994,0,0,0-.278.7,1.015,1.015,0,0,0,.962.962H165.62a1.015,1.015,0,0,0,.962-0.962,0.963,0.963,0,0,0-.3-0.7,0.92,0.92,0,0,0-.666-0.3H160.7l2.849-7.215h7.807l2.923,7.215h-3.145a1.086,1.086,0,0,0-1,1,0.921,0.921,0,0,0,.3.666,0.959,0.959,0,0,0,.7.3h13.653a1.015,1.015,0,0,0,.962-0.962,0.963,0.963,0,0,0-.3-0.7,0.92,0.92,0,0,0-.666-0.3h-1.813Zm-6.586,0-7.881-19.462,1.332-3.589h1.7l9.324,23.051h-4.477Zm-12.025-9.176,3.071-7.659,3.108,7.659h-6.179Zm42.513-3.33q4.365-1.776,4.366-5.957,0-4.4-4.588-5.772-2.664-.777-9.546-0.777H186.932a0.949,0.949,0,0,0-.962.962,0.992,0.992,0,0,0,.278.7,0.9,0.9,0,0,0,.684.3h2.7V54.809h-2.7a0.949,0.949,0,0,0-.962.962,0.957,0.957,0,0,0,.3.7,0.918,0.918,0,0,0,.666.3h9.953q7.622,0,10.582-1a6.829,6.829,0,0,0,5.069-7.067,5.712,5.712,0,0,0-2-4.7,9.208,9.208,0,0,0-3.663-1.7h0Zm-9.028-.666V31.8a6.015,6.015,0,0,1,3.293,1.258,4.3,4.3,0,0,1,1.221,3.293,6.22,6.22,0,0,1-.462,2.479,3.846,3.846,0,0,1-1.221,1.628,8.182,8.182,0,0,1-1.314.814,5.04,5.04,0,0,1-1.073.37h-0.444Zm0.888,2.035a6.5,6.5,0,0,1,3.515,1.517,4.529,4.529,0,0,1,1.332,3.515,5.058,5.058,0,0,1-1.646,4.07,8.773,8.773,0,0,1-4.089,1.887V43.672h0.888Zm3.737-2.22a5.377,5.377,0,0,0,1-1.406,7.87,7.87,0,0,0,.851-3.7,6.246,6.246,0,0,0-1.554-4.44,11.994,11.994,0,0,1,4.625,1.036,3.583,3.583,0,0,1,1.887,3.4,3.945,3.945,0,0,1-1.924,3.478,11.96,11.96,0,0,1-4.884,1.628h0Zm0.3,13.135A8.7,8.7,0,0,0,204.322,53a7.612,7.612,0,0,0,1.221-4.292,6.449,6.449,0,0,0-1.961-4.921V43.746a14.39,14.39,0,0,1,4.958,1.221,3.947,3.947,0,0,1,2.072,3.737,4.823,4.823,0,0,1-2.368,4.588,13.7,13.7,0,0,1-5.476,1.3h0Zm-6.919.222h-4.255V31.758h4.255V54.809Zm46.1,0V31.758h2.7a1.015,1.015,0,0,0,.962-0.962,0.994,0.994,0,0,0-.278-0.7,0.9,0.9,0,0,0-.684-0.3H231.184a0.9,0.9,0,0,0-.685.3,0.994,0.994,0,0,0-.277.7,1.015,1.015,0,0,0,.962.962H233.7v9.953h-8.695V31.758h2.627a0.887,0.887,0,0,0,.647-0.277,0.93,0.93,0,0,0,.278-0.684,0.994,0.994,0,0,0-.278-0.7,0.862,0.862,0,0,0-.647-0.3H214.09a0.92,0.92,0,0,0-.666.3,0.959,0.959,0,0,0-.3.7,1.015,1.015,0,0,0,.962.962h2.7V54.809h-2.7a0.92,0.92,0,0,0-.666.3,0.959,0.959,0,0,0-.3.7,1.015,1.015,0,0,0,.962.962h13.542a0.871,0.871,0,0,0,.666-0.278,0.968,0.968,0,0,0,.259-0.684,0.994,0.994,0,0,0-.278-0.7,0.862,0.862,0,0,0-.647-0.3h-2.627v-11.1H233.7v11.1h-2.516a0.9,0.9,0,0,0-.685.3,0.994,0.994,0,0,0-.277.7,0.947,0.947,0,0,0,.962.962h13.468a0.949,0.949,0,0,0,.962-0.962,0.994,0.994,0,0,0-.278-0.7,0.9,0.9,0,0,0-.684-0.3h-2.7Zm-1.924,0h-4.292V31.758h4.292V54.809Zm-16.983,0h-4.255V31.758h4.255V54.809Zm48.544,0V31.758h2.96a0.9,0.9,0,0,0,.684-0.3,1.04,1.04,0,0,0,.278-0.74,0.863,0.863,0,0,0-.3-0.648,0.952,0.952,0,0,0-.666-0.277H263.263q-6.771,0-9.4.962a5.94,5.94,0,0,0-4.181,6.068,6.837,6.837,0,0,0,1.739,4.7,8.347,8.347,0,0,0,3.848,2.4,10.882,10.882,0,0,0-4.07,4.921q-1.407,2.961-2.442,5.18a4.645,4.645,0,0,1-.37.777h-2.072a0.888,0.888,0,0,0-.648.278,0.93,0.93,0,0,0-.277.684,0.978,0.978,0,0,0,.3.684,0.862,0.862,0,0,0,.629.315h9.472a0.865,0.865,0,0,0,.888-0.629h0.037q0.924-2.553,2.423-5.809a16.55,16.55,0,0,1,2.387-4.144,6.287,6.287,0,0,1,1.887-1.332v9.953h-2.7a0.956,0.956,0,0,0-.648,1.665,0.98,0.98,0,0,0,.685.3h13.542a0.915,0.915,0,0,0,.721-0.315,1.014,1.014,0,0,0,.278-0.684,0.9,0.9,0,0,0-.3-0.684,1.041,1.041,0,0,0-.74-0.278h-2.664Zm-2,0h-4.181V31.758h4.218ZM256.455,37.086a7.485,7.485,0,0,0,2.59,5.661q-1.3-.185-2.183-0.333-5.181-1.295-5.18-5.587a3.913,3.913,0,0,1,2-3.774,12.194,12.194,0,0,1,4.847-1.11,5.978,5.978,0,0,0-1.295,1.7,7.442,7.442,0,0,0-.777,3.441h0Zm3.7,7.733q-1.554,1.443-4.847,9.4a5.56,5.56,0,0,1-.222.592h-4.514c0.049-.123.153-0.357,0.314-0.7s0.333-.715.518-1.11,0.376-.789.574-1.184q0.111-.222.444-0.962t0.555-1.184a8.974,8.974,0,0,1,2.9-3.774,8.8,8.8,0,0,1,4.311-1.073h-0.037Zm3.256-2a5.863,5.863,0,0,1-3.552-2.017,5.5,5.5,0,0,1-1.48-3.718,4.967,4.967,0,0,1,1.35-3.589,5.963,5.963,0,0,1,3.682-1.7V42.821Zm38.22,11.988V31.758h2.96a0.9,0.9,0,0,0,.685-0.3,1.039,1.039,0,0,0,.277-0.74,0.863,0.863,0,0,0-.3-0.648,0.952,0.952,0,0,0-.666-0.277H293.306q-6.771,0-9.4.962a5.94,5.94,0,0,0-4.181,6.068,6.837,6.837,0,0,0,1.739,4.7,8.347,8.347,0,0,0,3.848,2.4,10.882,10.882,0,0,0-4.07,4.921q-1.407,2.961-2.442,5.18a4.645,4.645,0,0,1-.37.777H276.36a0.887,0.887,0,0,0-.647.278,0.931,0.931,0,0,0-.278.684,0.982,0.982,0,0,0,.3.684,0.863,0.863,0,0,0,.629.315h9.472a0.865,0.865,0,0,0,.888-0.629h0.037q0.924-2.553,2.424-5.809a16.557,16.557,0,0,1,2.386-4.144,6.287,6.287,0,0,1,1.887-1.332v9.953h-2.7a0.956,0.956,0,0,0-.647,1.665,0.977,0.977,0,0,0,.684.3h13.542a0.917,0.917,0,0,0,.722-0.315,1.013,1.013,0,0,0,.277-0.684,0.9,0.9,0,0,0-.3-0.684,1.041,1.041,0,0,0-.74-0.278h-2.664Zm-2,0h-4.181V31.758h4.218ZM286.5,37.086a7.485,7.485,0,0,0,2.59,5.661q-1.3-.185-2.183-0.333-5.181-1.295-5.18-5.587a3.913,3.913,0,0,1,2-3.774,12.194,12.194,0,0,1,4.847-1.11,5.978,5.978,0,0,0-1.3,1.7,7.442,7.442,0,0,0-.777,3.441h0Zm3.7,7.733q-1.554,1.443-4.847,9.4a5.56,5.56,0,0,1-.222.592h-4.514q0.073-.185.315-0.7T281.448,53c0.185-.394.375-0.789,0.573-1.184q0.111-.222.444-0.962t0.555-1.184a8.974,8.974,0,0,1,2.905-3.774,8.8,8.8,0,0,1,4.31-1.073H290.2Zm3.256-2A5.863,5.863,0,0,1,289.9,40.8a5.5,5.5,0,0,1-1.48-3.718,4.968,4.968,0,0,1,1.351-3.589,5.96,5.96,0,0,1,3.681-1.7V42.821Z" transform="translate(-33 -21)"/>
  <path id="Д-2" data-name="Д" class="cls-3" d="M50.887,45.132V46.25h2.322v2.658a61.848,61.848,0,0,0-4.6,5.724,46.335,46.335,0,0,0-3.784,6.324,36.778,36.778,0,0,0-2.58,6.838A27.994,27.994,0,0,0,41.3,75.06h-4v1.118a3.623,3.623,0,0,1,.925,1.441A9.633,9.633,0,0,1,38.7,79.51a16.012,16.012,0,0,1,.172,2q0.021,0.989.021,1.763h0.9V83.058a6.527,6.527,0,0,1,.516-2.558,7.866,7.866,0,0,1,1.376-2.193,6.582,6.582,0,0,1,2.042-1.548,5.725,5.725,0,0,1,2.559-.581h8.385a5.208,5.208,0,0,1,2.58.624,6.219,6.219,0,0,1,1.892,1.612,7.219,7.219,0,0,1,1.183,2.257,8.44,8.44,0,0,1,.408,2.6h0.9q0-.774.022-1.763a15.788,15.788,0,0,1,.172-2,9.591,9.591,0,0,1,.473-1.892,3.617,3.617,0,0,1,.925-1.44V75.06h-4V46.25h2.15V45.132H50.887ZM53.209,75.06H42.8a28.267,28.267,0,0,1,.8-6.846A32,32,0,0,1,45.791,62.1,40.49,40.49,0,0,1,49.1,56.431q1.913-2.747,4.107-5.495V75.06Z" transform="translate(-33 -21)"/>
  <path id="С-2" data-name="С" class="cls-3" d="M82.186,53.132V54.25H92.678V53.132H90.4q-0.172-.6-0.451-1.311a6.036,6.036,0,0,0-.753-1.355A5.335,5.335,0,0,0,87.669,48.9a19.94,19.94,0,0,0-1.892-1.1q-1.011-.516-2.129-1.161a10.294,10.294,0,0,1-2.236-1.806q-1.591,1.806-3.526,3.827a38.563,38.563,0,0,0-3.612,4.389,24.967,24.967,0,0,0-2.817,5.236,17.08,17.08,0,0,0-1.139,6.36,7.1,7.1,0,0,0,.925,3.707,12.493,12.493,0,0,0,2.214,2.754A28.5,28.5,0,0,0,76.1,73.3a11.093,11.093,0,0,1,2.171,2.021,2.773,2.773,0,0,1,.452.8,9.107,9.107,0,0,1,.344,1.1,11.454,11.454,0,0,1,.237,1.247,9.472,9.472,0,0,1,.086,1.247,18.622,18.622,0,0,0,2.63-1.161,26.923,26.923,0,0,0,2.717-1.656A24.613,24.613,0,0,0,87.3,74.847a15.544,15.544,0,0,0,2.135-2.365,19.715,19.715,0,0,0,1.423-2.215,16.487,16.487,0,0,0,.863-1.87H94.1V67.279H83.562V68.4h2.322a12.825,12.825,0,0,1,.172,1.419Q86.1,70.5,86.1,70.891a9.151,9.151,0,0,1-.151,1.612,5.231,5.231,0,0,1-.731,1.784,8.532,8.532,0,0,1-1.728,1.935,15.936,15.936,0,0,1-3.2,2.021,8.542,8.542,0,0,0,1.075-3.311,11.477,11.477,0,0,0,.064-1.57q-0.022-.8-0.021-1.784A5.311,5.311,0,0,0,81,69.494a12.019,12.019,0,0,0-1.032-1.915q-0.624-.948-1.333-1.919a20.026,20.026,0,0,1-1.333-2.091,12.973,12.973,0,0,1-1.032-2.415,9.558,9.558,0,0,1-.409-2.889,13.917,13.917,0,0,1,.581-4.2,15.7,15.7,0,0,1,1.419-3.25,13.921,13.921,0,0,1,1.806-2.451q0.968-1.032,1.742-1.806,0.816,1.248,1.4,1.978t0.968,1.247a3.585,3.585,0,0,1,.559,1.053,4.707,4.707,0,0,1,.172,1.4v0.9H82.186Z" transform="translate(-33 -21)"/>
</svg>
