<svg id="logo" xmlns="http://www.w3.org/2000/svg" width="420" height="164.969" viewBox="0 0 420 164.969">
  <defs>
    <style>
      .cls-1 {
        fill: #6a3d31;
        fill-rule: evenodd;
      }
    </style>
  </defs>
  <path id="Давняя" class="cls-1" d="M86.245,89.323V35.745h6.278a2.084,2.084,0,0,0,1.548-.731,2.376,2.376,0,0,0,.688-1.677,2.064,2.064,0,0,0-.645-1.5,2.163,2.163,0,0,0-1.591-.645H38.859a2.2,2.2,0,0,0-2.15,2.15,2.515,2.515,0,0,0,.6,1.72,1.958,1.958,0,0,0,1.548.688H49.351a105.947,105.947,0,0,1-4.128,26.574,89.785,89.785,0,0,1-12.814,27h-4.9a2.094,2.094,0,0,0-1.591.688,2.31,2.31,0,0,0-.645,1.634v14.62a2.236,2.236,0,0,0,.688,1.634,2.14,2.14,0,0,0,1.548.688,2.35,2.35,0,0,0,2.322-2.322V93.881H90.8v12.384a2.359,2.359,0,0,0,2.236,2.236,2.31,2.31,0,0,0,1.634-.645,2.1,2.1,0,0,0,.688-1.591V91.645a2.35,2.35,0,0,0-2.322-2.322H86.245Zm-4.644,0H71.625V35.745H81.6V89.323ZM67.067,35.745V89.323H38a92,92,0,0,0,11.61-25.8,99.13,99.13,0,0,0,4.3-27.778H67.067ZM162.1,89.323L139.134,32.649q-0.174-1.461-2.064-1.462h-7.052a2.068,2.068,0,0,0-2.15,1.376l-0.086.086-3.87,10.578V43.4L113.42,69.457h-0.086v0.172l-8,19.694h-7.4a2.1,2.1,0,0,0-1.591.688,2.31,2.31,0,0,0-.645,1.634,2.359,2.359,0,0,0,2.236,2.236h23.822A2.359,2.359,0,0,0,124,91.645a2.237,2.237,0,0,0-.688-1.634,2.145,2.145,0,0,0-1.548-.688H110.324l6.622-16.77h18.146l6.794,16.77h-7.31a2.521,2.521,0,0,0-2.322,2.322,2.132,2.132,0,0,0,.688,1.548,2.226,2.226,0,0,0,1.634.688H166.31a2.359,2.359,0,0,0,2.236-2.236,2.237,2.237,0,0,0-.688-1.634,2.145,2.145,0,0,0-1.548-.688H162.1Zm-15.308,0L128.47,44.087l3.1-8.342h3.956l21.672,53.578H146.788ZM118.838,68l7.138-17.8L133.2,68H118.838Zm98.814-7.74Q227.8,56.127,227.8,46.409q0-10.233-10.664-13.416-6.192-1.806-22.188-1.806H171.3a2.2,2.2,0,0,0-2.236,2.236,2.306,2.306,0,0,0,.645,1.634,2.089,2.089,0,0,0,1.591.688h6.278V89.323H171.3a2.2,2.2,0,0,0-2.236,2.236,2.225,2.225,0,0,0,.688,1.634,2.133,2.133,0,0,0,1.548.688h23.134q17.715,0,24.6-2.322Q230.809,87.6,230.81,75.133q0-7.137-4.644-10.922a21.4,21.4,0,0,0-8.514-3.956h0Zm-20.984-1.548V35.831a13.978,13.978,0,0,1,7.654,2.924q2.838,2.667,2.838,7.654a14.455,14.455,0,0,1-1.075,5.762,8.935,8.935,0,0,1-2.838,3.784,19.012,19.012,0,0,1-3.053,1.892,11.723,11.723,0,0,1-2.494.86h-1.032Zm2.064,4.73a15.116,15.116,0,0,1,8.17,3.526q3.1,2.838,3.1,8.17,0,6.192-3.827,9.46a20.386,20.386,0,0,1-9.5,4.386V63.437h2.064Zm8.686-5.16a12.492,12.492,0,0,0,2.322-3.268,18.291,18.291,0,0,0,1.978-8.6q0-6.45-3.612-10.32,7.224,0.516,10.75,2.408,4.386,2.409,4.386,7.912a9.168,9.168,0,0,1-4.472,8.084q-3.7,2.58-11.352,3.784h0Zm0.688,30.53a20.221,20.221,0,0,0,3.612-3.7,17.692,17.692,0,0,0,2.838-9.976Q214.556,68,210,63.7V63.609q7.824,0.861,11.524,2.838,4.815,2.667,4.816,8.686,0,7.569-5.5,10.664-4.386,2.409-12.728,3.01h0Zm-16.082.516h-9.89V35.745h9.89V89.323Zm105.435,0V35.745h6.278a2.359,2.359,0,0,0,2.236-2.236,2.31,2.31,0,0,0-.645-1.634,2.1,2.1,0,0,0-1.591-.688h-31.3a2.094,2.094,0,0,0-1.591.688,2.31,2.31,0,0,0-.645,1.634,2.359,2.359,0,0,0,2.236,2.236h5.848V58.879h-20.21V35.745h6.106a2.065,2.065,0,0,0,1.5-.645,2.16,2.16,0,0,0,.645-1.591,2.31,2.31,0,0,0-.645-1.634,2.006,2.006,0,0,0-1.5-.688H232.7a2.138,2.138,0,0,0-1.548.688,2.229,2.229,0,0,0-.688,1.634,2.359,2.359,0,0,0,2.236,2.236h6.278V89.323H232.7a2.138,2.138,0,0,0-1.548.688,2.229,2.229,0,0,0-.688,1.634,2.359,2.359,0,0,0,2.236,2.236h31.476a2.025,2.025,0,0,0,1.548-.645,2.248,2.248,0,0,0,.6-1.591,2.31,2.31,0,0,0-.645-1.634,2.006,2.006,0,0,0-1.5-.688h-6.106v-25.8h20.21v25.8h-5.848a2.094,2.094,0,0,0-1.591.688,2.31,2.31,0,0,0-.645,1.634,2.2,2.2,0,0,0,2.236,2.236h31.3a2.2,2.2,0,0,0,2.236-2.236,2.31,2.31,0,0,0-.645-1.634,2.1,2.1,0,0,0-1.591-.688h-6.278Zm-4.472,0h-9.976V35.745h9.976V89.323Zm-39.474,0h-9.89V35.745h9.89V89.323Zm112.831,0V35.745h6.88a2.092,2.092,0,0,0,1.591-.688,2.417,2.417,0,0,0,.645-1.72,2.006,2.006,0,0,0-.688-1.5,2.208,2.208,0,0,0-1.548-.645h-26.23q-15.738,0-21.844,2.236-9.718,3.612-9.718,14.1a15.9,15.9,0,0,0,4.042,10.922,19.408,19.408,0,0,0,8.944,5.59q-5.418,3.1-9.46,11.438-3.269,6.881-5.676,12.04a10.788,10.788,0,0,1-.86,1.806h-4.816a2.065,2.065,0,0,0-1.5.645,2.162,2.162,0,0,0-.645,1.591,2.283,2.283,0,0,0,.688,1.591,2.006,2.006,0,0,0,1.462.731h22.016a2.01,2.01,0,0,0,2.064-1.462h0.086q2.149-5.934,5.633-13.5t5.547-9.632q3.1-2.751,4.386-3.1V89.323H341.06a2.222,2.222,0,0,0-1.5,3.87,2.277,2.277,0,0,0,1.591.688h31.476a2.13,2.13,0,0,0,1.677-.731,2.356,2.356,0,0,0,.645-1.591,2.1,2.1,0,0,0-.688-1.591,2.418,2.418,0,0,0-1.72-.645h-6.192Zm-4.644,0h-9.718V35.745h9.8ZM331.17,48.129a17.4,17.4,0,0,0,6.02,13.158q-3.011-.429-5.074-0.774-12.04-3.009-12.04-12.986,0-6.277,4.644-8.772,3.783-2.064,11.266-2.58a13.894,13.894,0,0,0-3.01,3.956,17.3,17.3,0,0,0-1.806,8h0Zm8.6,17.974q-3.612,3.354-11.266,21.844a12.875,12.875,0,0,1-.516,1.376H317.5q0.171-.429.731-1.634t1.2-2.58q0.645-1.375,1.333-2.752,0.258-.516,1.032-2.236t1.29-2.752q3.181-6.535,6.751-8.772T339.856,66.1H339.77Zm7.568-4.644a13.635,13.635,0,0,1-8.256-4.687,12.792,12.792,0,0,1-3.44-8.643,11.551,11.551,0,0,1,3.139-8.342,13.855,13.855,0,0,1,8.557-3.956V61.459Zm88.838,27.864V35.745h6.88a2.092,2.092,0,0,0,1.591-.688,2.417,2.417,0,0,0,.645-1.72,2.006,2.006,0,0,0-.688-1.5,2.212,2.212,0,0,0-1.548-.645h-26.23q-15.74,0-21.844,2.236-9.72,3.612-9.718,14.1a15.893,15.893,0,0,0,4.042,10.922,19.4,19.4,0,0,0,8.944,5.59q-5.418,3.1-9.46,11.438-3.27,6.881-5.676,12.04a10.788,10.788,0,0,1-.86,1.806h-4.816a2.063,2.063,0,0,0-1.5.645,2.162,2.162,0,0,0-.645,1.591,2.278,2.278,0,0,0,.688,1.591,2,2,0,0,0,1.462.731h22.016a2.01,2.01,0,0,0,2.064-1.462H401.6q2.148-5.934,5.633-13.5t5.547-9.632q3.1-2.751,4.386-3.1V89.323h-6.278a2.222,2.222,0,0,0-1.5,3.87,2.275,2.275,0,0,0,1.591.688h31.476a2.13,2.13,0,0,0,1.677-.731,2.356,2.356,0,0,0,.645-1.591,2.1,2.1,0,0,0-.688-1.591,2.419,2.419,0,0,0-1.72-.645h-6.192Zm-4.644,0h-9.718V35.745h9.8ZM401,48.129a17.4,17.4,0,0,0,6.02,13.158q-3.011-.429-5.073-0.774-12.042-3.009-12.04-12.986,0-6.277,4.644-8.772,3.783-2.064,11.266-2.58a13.894,13.894,0,0,0-3.01,3.956,17.3,17.3,0,0,0-1.807,8h0ZM409.6,66.1q-3.612,3.354-11.266,21.844a12.875,12.875,0,0,1-.516,1.376H387.328q0.171-.429.731-1.634t1.2-2.58q0.645-1.375,1.334-2.752,0.258-.516,1.032-2.236t1.29-2.752q3.18-6.535,6.751-8.772T409.687,66.1H409.6Zm7.568-4.644a13.634,13.634,0,0,1-8.257-4.687,12.8,12.8,0,0,1-3.439-8.643,11.546,11.546,0,0,1,3.139-8.342,13.853,13.853,0,0,1,8.557-3.956V61.459Z" transform="translate(-25.281 -31.188)"/>
  <path id="СУДЖА" class="cls-1" d="M107.209,160.719a1.8,1.8,0,0,0-1.892,1.29,12.409,12.409,0,0,1-.86,1.29,34.118,34.118,0,0,1-6.45,8.6,15.422,15.422,0,0,1-8.686,2.494,14.79,14.79,0,0,1-6.708-1.548q-9.633-5.5-9.632-22.7,0-12.813,4.042-19.866a14.235,14.235,0,0,1,11.438-7.482,18.5,18.5,0,0,1,8.858,4.558,41.059,41.059,0,0,1,7.224,9.546v5.676a2.022,2.022,0,0,0,.645,1.548,2.239,2.239,0,0,0,1.591.6,2.163,2.163,0,0,0,1.591-.645,2.062,2.062,0,0,0,.645-1.5V120.987a2.236,2.236,0,1,0-4.472,0v7.654a29.481,29.481,0,0,0-6.622-6.708,21.359,21.359,0,0,0-12.384-3.784,34.629,34.629,0,0,0-14.1,2.838,31.189,31.189,0,0,0-10.32,7.31,31.657,31.657,0,0,0-8.428,21.844q0,15.309,10.062,24.08a30.75,30.75,0,0,0,10.234,5.934,33.676,33.676,0,0,0,11.352,1.892,23.378,23.378,0,0,0,14.1-4.644q6.192-4.557,10.836-13.416a2.292,2.292,0,0,0,.086-1.634,2.118,2.118,0,0,0-1.032-1.29,1.741,1.741,0,0,0-1.118-.344h0Zm-38.7-10.578q0,19.781,12.04,26.66a13.146,13.146,0,0,0,1.548.688,29.383,29.383,0,0,1-9.331-2.15,26.977,26.977,0,0,1-7.912-5.074,22.505,22.505,0,0,1-5.633-8.471,31.362,31.362,0,0,1-2.064-11.653,28.607,28.607,0,0,1,4.9-15.867A24.622,24.622,0,0,1,76.163,124a22.247,22.247,0,0,0-4.644,7.31q-3.011,7.311-3.01,18.834h0Zm87.806-31.39a2.2,2.2,0,0,0-2.236,2.236,2,2,0,0,0,.688,1.505,2.2,2.2,0,0,0,1.548.645h11.438l-12.9,25.542-15.136-25.456h7.138a2.311,2.311,0,0,0,1.634-.645,2.1,2.1,0,0,0,.688-1.591,2.163,2.163,0,0,0-.645-1.591,2.269,2.269,0,0,0-1.677-.645h-31.82a2.2,2.2,0,0,0-2.236,2.236,2.093,2.093,0,0,0,.688,1.591,2.2,2.2,0,0,0,1.548.645h3.1l26.4,43.946a0.076,0.076,0,0,0-.086.086v0.086l-0.172.258a28.014,28.014,0,0,1-5.16,6.794,6.63,6.63,0,0,0,.172-1.72,9.542,9.542,0,0,0-2.666-6.837,8.784,8.784,0,0,0-6.622-2.8,8.355,8.355,0,0,0-6.45,2.838,9.889,9.889,0,0,0-.086,13.416A8.925,8.925,0,0,0,130,182.047a17.984,17.984,0,0,0,12.47-4.558,30.172,30.172,0,0,0,5.848-7.912H148.4a0.677,0.677,0,0,0,.086-0.258,1.962,1.962,0,0,1,.344-0.516l0.344-.688,7.654-13.674v-0.086l16-31.218h5.934a2.311,2.311,0,0,0,1.634-.645,2,2,0,0,0,.688-1.505,2.163,2.163,0,0,0-.645-1.591,2.269,2.269,0,0,0-1.677-.645H156.315Zm-9.288,43.86-23.564-39.388h11.008l17.888,30.1Zm-13.631,13.5a4.775,4.775,0,0,1-6.751-.043,4.7,4.7,0,0,1-1.376-3.4,5.221,5.221,0,0,1,1.376-3.655,4.49,4.49,0,0,1,6.708,0,5.23,5.23,0,0,1,1.376,3.655A4.749,4.749,0,0,1,133.4,176.113Zm99.544,0.774V123.309h6.278a2.082,2.082,0,0,0,1.548-.731,2.379,2.379,0,0,0,.688-1.677,2.063,2.063,0,0,0-.645-1.5,2.163,2.163,0,0,0-1.591-.645H185.554a2.2,2.2,0,0,0-2.15,2.15,2.513,2.513,0,0,0,.6,1.72,1.961,1.961,0,0,0,1.548.688h10.492a105.954,105.954,0,0,1-4.128,26.574,89.776,89.776,0,0,1-12.814,27h-4.9a2.1,2.1,0,0,0-1.591.688,2.31,2.31,0,0,0-.645,1.634v14.62a2.238,2.238,0,0,0,.688,1.634,2.139,2.139,0,0,0,1.548.688,2.35,2.35,0,0,0,2.322-2.322V181.445H237.5v12.384a2.359,2.359,0,0,0,2.236,2.236,2.31,2.31,0,0,0,1.634-.645,2.1,2.1,0,0,0,.688-1.591v-14.62a2.35,2.35,0,0,0-2.322-2.322H232.94Zm-4.644,0H218.32V123.309H228.3v53.578Zm-14.534-53.578v53.578H184.694a92,92,0,0,0,11.61-25.8,99.14,99.14,0,0,0,4.3-27.778h13.158ZM337.086,176.8a7.019,7.019,0,0,0-.344-0.86q-3.354-8.342-5.934-14.276a26.747,26.747,0,0,0-8.084-10.836,20.261,20.261,0,0,0-7.912-3.784,23.851,23.851,0,0,0,4.816-7.31,57.541,57.541,0,0,0,2.322-7.224,2.844,2.844,0,0,0,.172-0.688,10.78,10.78,0,0,0,2.408,3.182,9.818,9.818,0,0,0,13.717-.258,9.458,9.458,0,0,0,.043-13.717,9.489,9.489,0,0,0-6.88-2.881h-0.086q-6.8,0-10.062,4.3-2.064,2.58-3.612,8.858-0.087.258-.3,0.9t-0.3.989a48.8,48.8,0,0,1-1.72,4.73h-0.086q-1.893,5.075-4.558,6.708H310.6q-1.806,1.29-5.59,1.29a1.6,1.6,0,0,1-.516.086h-1.634v-22.7h5.762a2.17,2.17,0,0,0,1.634-.731,2.379,2.379,0,0,0,.688-1.677,2.006,2.006,0,0,0-.688-1.5,2.311,2.311,0,0,0-1.634-.645H277.832a2.3,2.3,0,0,0-1.634.645,2,2,0,0,0-.688,1.5,2.37,2.37,0,0,0,.688,1.677,2.164,2.164,0,0,0,1.634.731h6.106v22.7h-1.72a11.057,11.057,0,0,1-6.106-1.376q-2.5-1.548-4.816-6.794a41.373,41.373,0,0,1-2.15-6.536q-0.6-2.149-.946-3.182t-1.118-2.924a9.793,9.793,0,0,0-1.677-2.881,21.434,21.434,0,0,0-2.279-2.107,8.306,8.306,0,0,0-3.311-1.591,18.35,18.35,0,0,0-4.343-.473h-0.086a9.691,9.691,0,0,0-9.8,9.718,9.748,9.748,0,0,0,2.838,6.88,9.606,9.606,0,0,0,7.052,2.924,9.468,9.468,0,0,0,6.708-2.666,9.015,9.015,0,0,0,2.408-3.268,1.393,1.393,0,0,0,.086.43,1.48,1.48,0,0,1,.086.344l0.086,0.258a40.32,40.32,0,0,0,2.322,6.966,23.993,23.993,0,0,0,4.73,7.31,20.248,20.248,0,0,0-7.912,3.784,24.6,24.6,0,0,0-8.084,10.836q-4.989,11.181-6.278,15.136h-4.472a2.426,2.426,0,0,0-2.408,2.322,2.169,2.169,0,0,0,.731,1.634,2.371,2.371,0,0,0,1.677.688h21.93A2.377,2.377,0,0,0,269.4,179.9v-0.086q2.148-7.224,5.2-15.265t5.117-10.191q3.18-3.181,4.214-3.526v26.058h-6.106a2.3,2.3,0,0,0-1.634.645,2.091,2.091,0,0,0-.688,1.591,2.35,2.35,0,0,0,2.322,2.322H308.62a2.284,2.284,0,0,0,1.591-.688,2.173,2.173,0,0,0,.731-1.634,2.143,2.143,0,0,0-.688-1.548,2.238,2.238,0,0,0-1.634-.688h-5.762V150.829q0.945,0.345,4.128,3.526,3.783,3.87,10.32,25.456l0.086,0.086a2.164,2.164,0,0,0,2.15,1.548h22.1a2.284,2.284,0,0,0,1.591-.688,2.192,2.192,0,0,0,0-3.268,2.288,2.288,0,0,0-1.591-.688h-4.558Zm-15.824,0q-6.882-21.414-11.008-25.542l-0.43-.43q11.952,1.29,16.942,12.642,1.2,2.838,5.418,13.33H321.262Zm6.149-52.675a5.479,5.479,0,0,1,3.913-1.505,5.226,5.226,0,0,1,3.784,1.505,5.192,5.192,0,0,1-.043,7.439,5.194,5.194,0,0,1-3.741,1.548,5.394,5.394,0,0,1-3.913-1.548A5.143,5.143,0,0,1,327.411,124.126Zm-29.2,52.761h-9.632V123.309h9.632v53.578Zm-21.758-25.628q-3.957,3.957-11.008,25.542H254.526q1.719-4.557,5.59-13.33,4.815-11.352,16.77-12.642Zm-20.984-18.146a5.257,5.257,0,0,1-3.784-1.591,5,5,0,0,1-.043-7.353,5.5,5.5,0,0,1,7.654,0,5.093,5.093,0,0,1,0,7.4,5.294,5.294,0,0,1-3.827,1.548h0Zm155.574,43.774-22.962-56.674q-0.174-1.461-2.064-1.462h-7.052a2.067,2.067,0,0,0-2.15,1.376l-0.086.086-3.87,10.578v0.172L362.37,157.021h-0.086v0.172l-8,19.694h-7.4a2.1,2.1,0,0,0-1.591.688,2.31,2.31,0,0,0-.645,1.634,2.359,2.359,0,0,0,2.236,2.236h23.822a2.359,2.359,0,0,0,2.236-2.236,2.236,2.236,0,0,0-.688-1.634,2.146,2.146,0,0,0-1.548-.688H359.274l6.622-16.77h18.146l6.794,16.77h-7.31a2.521,2.521,0,0,0-2.322,2.322,2.131,2.131,0,0,0,.688,1.548,2.228,2.228,0,0,0,1.634.688H415.26a2.359,2.359,0,0,0,2.236-2.236,2.236,2.236,0,0,0-.688-1.634,2.146,2.146,0,0,0-1.548-.688h-4.214Zm-15.308,0L377.42,131.651l3.1-8.342h3.956l21.672,53.578H395.738Zm-27.95-21.328,7.138-17.8,7.224,17.8H367.788Z" transform="translate(-25.281 -31.188)"/>
</svg>
