<svg id="logo-dark" xmlns="http://www.w3.org/2000/svg" width="227.5" height="318.5" viewBox="0 0 65 91">
  <defs>
    <style>
      .cls-1 {
        fill: #6a3d31;
      }

      .cls-2, .cls-3 {
        fill: #fff;
      }

      .cls-2 {
        fill-rule: evenodd;
      }
    </style>
  </defs>
  <rect id="Фон" class="cls-1" width="65" height="91"/>
  <path id="Д" class="cls-2" d="M182.046,193.634v1.144h2.376V197.5a63.436,63.436,0,0,0-4.708,5.857,47.509,47.509,0,0,0-3.872,6.471,37.635,37.635,0,0,0-2.64,7,28.673,28.673,0,0,0-.968,7.436h-4.092V225.4a3.692,3.692,0,0,1,.946,1.474,9.829,9.829,0,0,1,.484,1.936,16.239,16.239,0,0,1,.176,2.046q0.023,1.011.022,1.8h0.924v-0.22a6.678,6.678,0,0,1,.528-2.618,8.049,8.049,0,0,1,1.408-2.244A6.742,6.742,0,0,1,174.72,226a5.86,5.86,0,0,1,2.618-.594h8.58a5.324,5.324,0,0,1,2.64.638,6.33,6.33,0,0,1,1.936,1.65A7.376,7.376,0,0,1,191.7,230a8.613,8.613,0,0,1,.418,2.662h0.924q0-.792.022-1.8a16.239,16.239,0,0,1,.176-2.046,9.829,9.829,0,0,1,.484-1.936,3.692,3.692,0,0,1,.946-1.474v-1.144h-4.092v-29.48h2.2v-1.144H182.046Zm2.376,30.624H173.774a28.923,28.923,0,0,1,.814-7.005,32.8,32.8,0,0,1,2.244-6.259,41.481,41.481,0,0,1,3.388-5.8q1.958-2.811,4.2-5.622v24.684Z" transform="translate(-164 -170)"/>
  <path id="С" class="cls-2" d="M212.456,202.8v1.144h10.736V202.8H220.86q-0.177-.617-0.462-1.343a6.207,6.207,0,0,0-.77-1.385,5.451,5.451,0,0,0-1.562-1.606,20.439,20.439,0,0,0-1.936-1.122q-1.035-.528-2.178-1.188a10.554,10.554,0,0,1-2.288-1.848q-1.629,1.848-3.608,3.916a39.41,39.41,0,0,0-3.7,4.491,25.562,25.562,0,0,0-2.882,5.358,17.464,17.464,0,0,0-1.166,6.508,7.264,7.264,0,0,0,.946,3.792,12.764,12.764,0,0,0,2.266,2.819,29.347,29.347,0,0,0,2.706,2.244,11.359,11.359,0,0,1,2.222,2.068,2.827,2.827,0,0,1,.462.814,9.247,9.247,0,0,1,.352,1.122,11.807,11.807,0,0,1,.242,1.276A9.756,9.756,0,0,1,209.6,230a19.2,19.2,0,0,0,2.692-1.188,27.774,27.774,0,0,0,2.78-1.694,25.259,25.259,0,0,0,2.625-2.09,15.926,15.926,0,0,0,2.185-2.42,20.081,20.081,0,0,0,1.456-2.266,16.866,16.866,0,0,0,.883-1.914h2.427v-1.144h-10.78v1.144h2.376a13.219,13.219,0,0,1,.176,1.452q0.043,0.7.044,1.1a9.4,9.4,0,0,1-.154,1.65,5.353,5.353,0,0,1-.748,1.826,8.762,8.762,0,0,1-1.768,1.98,16.313,16.313,0,0,1-3.27,2.068,9.363,9.363,0,0,0,.77-1.782,9.264,9.264,0,0,0,.33-1.606,11.883,11.883,0,0,0,.066-1.606q-0.023-.815-0.022-1.826a5.44,5.44,0,0,0-.418-2.134,12.3,12.3,0,0,0-1.056-1.961q-0.639-.969-1.364-1.963a20.542,20.542,0,0,1-1.364-2.14,13.223,13.223,0,0,1-1.056-2.471,9.783,9.783,0,0,1-.418-2.956,14.239,14.239,0,0,1,.594-4.3,16.019,16.019,0,0,1,1.452-3.326,14.245,14.245,0,0,1,1.848-2.508q0.99-1.056,1.782-1.848,0.836,1.276,1.43,2.024t0.99,1.276a3.672,3.672,0,0,1,.572,1.078,4.812,4.812,0,0,1,.176,1.43V202.8h-2.376Z" transform="translate(-164 -170)"/>
  <rect id="Прямоугольник_3" data-name="Прямоугольник 3" class="cls-3" x="63" y="66" width="2" height="25"/>
  <rect id="Прямоугольник_10" data-name="Прямоугольник 10" class="cls-3" x="7" y="82" width="51" height="2"/>
  <rect id="Прямоугольник_8" data-name="Прямоугольник 8" class="cls-3" x="2" y="89" width="61" height="2"/>
  <rect id="Прямоугольник_1" data-name="Прямоугольник 1" class="cls-3" y="66" width="2" height="25"/>
  <rect id="Прямоугольник_12" data-name="Прямоугольник 12" class="cls-3" x="7" y="74" width="51" height="2"/>
  <rect id="Прямоугольник_11" data-name="Прямоугольник 11" class="cls-3" x="7" y="78" width="51" height="2"/>
  <rect id="Прямоугольник_4" data-name="Прямоугольник 4" class="cls-3" x="7" y="15" width="51" height="2"/>
  <rect id="Прямоугольник_4-2" data-name="Прямоугольник 4" class="cls-3" x="7" y="7" width="51" height="2"/>
  <rect id="Прямоугольник_4-3" data-name="Прямоугольник 4" class="cls-3" x="7" y="11" width="51" height="2"/>
  <rect id="Прямоугольник_3-2" data-name="Прямоугольник 3" class="cls-3" x="63" y="2" width="2" height="23"/>
  <rect id="Прямоугольник_1-2" data-name="Прямоугольник 1" class="cls-3" width="2" height="25"/>
  <rect id="Прямоугольник_2" data-name="Прямоугольник 2" class="cls-3" width="65" height="2"/>
</svg>
