<svg id="logo" xmlns="http://www.w3.org/2000/svg" width="269.406" height="91" viewBox="0 0 269.406 91">
  <defs>
    <style>
      .cls-1, .cls-2 {
        fill: #6a3d31;
      }

      .cls-1 {
        fill-rule: evenodd;
      }
    </style>
  </defs>
  <path id="С" class="cls-1" d="M81.725,53.794v1.144H92.461V53.794H90.129q-0.176-.616-0.462-1.342a6.18,6.18,0,0,0-.77-1.386,5.46,5.46,0,0,0-1.562-1.606A20.4,20.4,0,0,0,85.4,48.338q-1.034-.528-2.178-1.188A10.529,10.529,0,0,1,80.933,45.3Q79.3,47.15,77.325,49.218a39.458,39.458,0,0,0-3.7,4.491,25.541,25.541,0,0,0-2.882,5.358,17.477,17.477,0,0,0-1.166,6.508,7.266,7.266,0,0,0,.946,3.793,12.782,12.782,0,0,0,2.266,2.818A29.187,29.187,0,0,0,75.5,74.43,11.351,11.351,0,0,1,77.721,76.5a2.836,2.836,0,0,1,.462.814,9.339,9.339,0,0,1,.352,1.122,11.763,11.763,0,0,1,.242,1.276,9.7,9.7,0,0,1,.088,1.276A19.064,19.064,0,0,0,81.557,79.8a27.566,27.566,0,0,0,2.78-1.694,25.2,25.2,0,0,0,2.625-2.09,15.907,15.907,0,0,0,2.185-2.42A20.183,20.183,0,0,0,90.6,71.328a16.9,16.9,0,0,0,.883-1.914h2.427V68.27H83.133v1.144h2.376a13.128,13.128,0,0,1,.176,1.452q0.043,0.7.044,1.1a9.366,9.366,0,0,1-.154,1.65,5.356,5.356,0,0,1-.748,1.826,8.733,8.733,0,0,1-1.768,1.98,16.306,16.306,0,0,1-3.27,2.068,8.74,8.74,0,0,0,1.1-3.388,11.753,11.753,0,0,0,.066-1.606q-0.023-.814-0.022-1.826a5.435,5.435,0,0,0-.418-2.134,12.308,12.308,0,0,0-1.056-1.96q-0.638-.97-1.364-1.963a20.47,20.47,0,0,1-1.364-2.14A13.267,13.267,0,0,1,75.675,62a9.778,9.778,0,0,1-.418-2.956,14.24,14.24,0,0,1,.594-4.3A16.062,16.062,0,0,1,77.3,51.418a14.245,14.245,0,0,1,1.848-2.508q0.99-1.056,1.782-1.848,0.835,1.277,1.43,2.024t0.99,1.276a3.668,3.668,0,0,1,.572,1.078,4.818,4.818,0,0,1,.176,1.43v0.924H81.725Z" transform="translate(-33 -21)"/>
  <path id="Д" class="cls-1" d="M50.434,44.525v1.144H52.81v2.72A63.25,63.25,0,0,0,48.1,54.246a47.411,47.411,0,0,0-3.872,6.471,37.623,37.623,0,0,0-2.64,7,28.644,28.644,0,0,0-.968,7.435H36.53v1.144a3.707,3.707,0,0,1,.946,1.474A9.873,9.873,0,0,1,37.96,79.7a16.418,16.418,0,0,1,.176,2.046q0.022,1.012.022,1.8h0.924v-0.22a6.681,6.681,0,0,1,.528-2.618,8.047,8.047,0,0,1,1.408-2.244,6.733,6.733,0,0,1,2.09-1.584,5.858,5.858,0,0,1,2.618-.594h8.58a5.329,5.329,0,0,1,2.64.638,6.361,6.361,0,0,1,1.936,1.65,7.389,7.389,0,0,1,1.21,2.31,8.637,8.637,0,0,1,.418,2.662h0.924q0-.792.022-1.8a16.119,16.119,0,0,1,.176-2.046,9.817,9.817,0,0,1,.484-1.936,3.7,3.7,0,0,1,.946-1.474V75.149H58.97V45.669h2.2V44.525H50.434ZM52.81,75.149H42.162a28.916,28.916,0,0,1,.814-7,32.733,32.733,0,0,1,2.244-6.259,41.405,41.405,0,0,1,3.388-5.8q1.957-2.811,4.2-5.622V75.149Z" transform="translate(-33 -21)"/>
  <g id="Низ">
    <rect id="Прямоугольник_3" data-name="Прямоугольник 3" class="cls-2" x="63" y="66" width="2" height="25"/>
    <rect id="Прямоугольник_10" data-name="Прямоугольник 10" class="cls-2" x="7" y="82" width="51" height="2"/>
    <rect id="Прямоугольник_8" data-name="Прямоугольник 8" class="cls-2" x="2" y="89" width="61" height="2"/>
    <rect id="Прямоугольник_1" data-name="Прямоугольник 1" class="cls-2" y="66" width="2" height="25"/>
    <rect id="Прямоугольник_12" data-name="Прямоугольник 12" class="cls-2" x="7" y="74" width="51" height="2"/>
    <rect id="Прямоугольник_11" data-name="Прямоугольник 11" class="cls-2" x="7" y="78" width="51" height="2"/>
  </g>
  <g id="Верх">
    <rect id="Прямоугольник_4" data-name="Прямоугольник 4" class="cls-2" x="7" y="15" width="51" height="2"/>
    <rect id="Прямоугольник_4-2" data-name="Прямоугольник 4" class="cls-2" x="7" y="7" width="51" height="2"/>
    <rect id="Прямоугольник_4-3" data-name="Прямоугольник 4" class="cls-2" x="7" y="11" width="51" height="2"/>
    <rect id="Прямоугольник_3-2" data-name="Прямоугольник 3" class="cls-2" x="63" y="2" width="2" height="23"/>
    <rect id="Прямоугольник_1-2" data-name="Прямоугольник 1" class="cls-2" width="2" height="25"/>
    <rect id="Прямоугольник_2" data-name="Прямоугольник 2" class="cls-2" width="65" height="2"/>
  </g>
  <path id="ДАВН" class="cls-1" d="M152.13,54.726v-21.8h2.555a0.848,0.848,0,0,0,.63-0.3,0.964,0.964,0,0,0,.28-0.683,0.84,0.84,0,0,0-.262-0.612,0.88,0.88,0,0,0-.648-0.263h-21.84a0.9,0.9,0,0,0-.875.875,1.026,1.026,0,0,0,.245.7,0.8,0.8,0,0,0,.63.28h4.27a43.117,43.117,0,0,1-1.68,10.815,36.538,36.538,0,0,1-5.215,10.99h-2a0.851,0.851,0,0,0-.647.28,0.941,0.941,0,0,0-.263.665v5.95a0.912,0.912,0,0,0,.28.665,0.872,0.872,0,0,0,.63.28,0.956,0.956,0,0,0,.945-0.945v-5.04h24.815v5.04a0.96,0.96,0,0,0,.91.91,0.939,0.939,0,0,0,.665-0.262,0.851,0.851,0,0,0,.28-0.648v-5.95a0.956,0.956,0,0,0-.945-0.945H152.13Zm-1.89,0h-4.06v-21.8h4.06V54.726Zm-5.915-21.8V54.726H132.5a37.441,37.441,0,0,0,4.725-10.5,40.324,40.324,0,0,0,1.75-11.3h5.355ZM183.7,54.726l-9.345-23.065a0.7,0.7,0,0,0-.84-0.6h-2.87a0.841,0.841,0,0,0-.875.56l-0.035.035-1.575,4.305v0.07l-4.27,10.6h-0.035v0.07L160.6,54.726h-3.01a0.854,0.854,0,0,0-.648.28,0.94,0.94,0,0,0-.262.665,0.96,0.96,0,0,0,.91.91h9.695a0.96,0.96,0,0,0,.91-0.91,0.912,0.912,0,0,0-.28-0.665,0.872,0.872,0,0,0-.63-0.28H162.63l2.695-6.825h7.385l2.765,6.825H172.5a1.025,1.025,0,0,0-.945.945,0.869,0.869,0,0,0,.28.63,0.905,0.905,0,0,0,.665.28h12.915a0.96,0.96,0,0,0,.91-0.91,0.912,0.912,0,0,0-.28-0.665,0.872,0.872,0,0,0-.63-0.28H183.7Zm-6.23,0-7.455-18.41,1.26-3.4h1.61l8.82,21.805H177.47ZM166.1,46.046L169,38.8l2.94,7.245H166.1ZM207.01,42.9q4.13-1.68,4.13-5.635,0-4.165-4.34-5.46a37.183,37.183,0,0,0-9.03-.735h-9.625a0.9,0.9,0,0,0-.91.91,0.938,0.938,0,0,0,.262.665,0.851,0.851,0,0,0,.648.28H190.7V54.726h-2.555a0.9,0.9,0,0,0-.91.91,0.906,0.906,0,0,0,.28.665,0.867,0.867,0,0,0,.63.28h9.415q7.209,0,10.01-.945a6.46,6.46,0,0,0,4.8-6.685,5.4,5.4,0,0,0-1.89-4.445,8.709,8.709,0,0,0-3.465-1.61h0Zm-8.54-.63v-9.31a5.689,5.689,0,0,1,3.115,1.19,4.068,4.068,0,0,1,1.155,3.115,5.872,5.872,0,0,1-.438,2.345,3.633,3.633,0,0,1-1.155,1.54,7.7,7.7,0,0,1-1.242.77,4.778,4.778,0,0,1-1.015.35h-0.42Zm0.84,1.925a6.151,6.151,0,0,1,3.325,1.435,4.284,4.284,0,0,1,1.26,3.325,4.784,4.784,0,0,1-1.558,3.85,8.29,8.29,0,0,1-3.867,1.785V44.191h0.84Zm3.535-2.1a5.072,5.072,0,0,0,.945-1.33,7.448,7.448,0,0,0,.805-3.5,5.908,5.908,0,0,0-1.47-4.2,11.346,11.346,0,0,1,4.375.98,3.39,3.39,0,0,1,1.785,3.22,3.731,3.731,0,0,1-1.82,3.29,11.319,11.319,0,0,1-4.62,1.54h0Zm0.28,12.425a8.213,8.213,0,0,0,1.47-1.5,7.2,7.2,0,0,0,1.155-4.06A6.1,6.1,0,0,0,203.9,44.3V44.261a13.61,13.61,0,0,1,4.69,1.155,3.734,3.734,0,0,1,1.96,3.535,4.562,4.562,0,0,1-2.24,4.34,12.954,12.954,0,0,1-5.18,1.225h0Zm-6.545.21h-4.025v-21.8h4.025V54.726Zm44.309,0v-21.8h2.555a0.96,0.96,0,0,0,.91-0.91,0.94,0.94,0,0,0-.262-0.665,0.854,0.854,0,0,0-.648-0.28H230.7a0.851,0.851,0,0,0-.647.28,0.941,0.941,0,0,0-.263.665,0.96,0.96,0,0,0,.91.91h2.38v9.415h-8.225V32.921h2.485a0.841,0.841,0,0,0,.613-0.262,0.879,0.879,0,0,0,.262-0.648,0.94,0.94,0,0,0-.262-0.665,0.817,0.817,0,0,0-.613-0.28h-12.81a0.872,0.872,0,0,0-.63.28,0.908,0.908,0,0,0-.28.665,0.96,0.96,0,0,0,.91.91h2.555V54.726h-2.555a0.872,0.872,0,0,0-.63.28,0.908,0.908,0,0,0-.28.665,0.96,0.96,0,0,0,.91.91h12.81a0.822,0.822,0,0,0,.63-0.263,0.914,0.914,0,0,0,.245-0.648,0.94,0.94,0,0,0-.262-0.665,0.817,0.817,0,0,0-.613-0.28h-2.485v-10.5h8.225v10.5H230.7a0.851,0.851,0,0,0-.647.28,0.941,0.941,0,0,0-.263.665,0.9,0.9,0,0,0,.91.91h12.74a0.9,0.9,0,0,0,.91-0.91,0.94,0.94,0,0,0-.262-0.665,0.854,0.854,0,0,0-.648-0.28h-2.555Zm-1.82,0h-4.06v-21.8h4.06V54.726Zm-16.065,0h-4.025v-21.8H223V54.726Z" transform="translate(-33 -21)"/>
  <path id="ЯЯ" class="cls-1" d="M269.57,54.738v-21.8h2.8a0.851,0.851,0,0,0,.647-0.28,0.984,0.984,0,0,0,.263-0.7A0.818,0.818,0,0,0,273,31.34a0.9,0.9,0,0,0-.63-0.262H261.7q-6.4,0-8.89.91a5.619,5.619,0,0,0-3.955,5.74,6.469,6.469,0,0,0,1.645,4.445,7.9,7.9,0,0,0,3.64,2.275,10.291,10.291,0,0,0-3.85,4.655q-1.331,2.8-2.31,4.9a4.425,4.425,0,0,1-.35.735h-1.96a0.841,0.841,0,0,0-.613.263,0.88,0.88,0,0,0-.262.647,0.926,0.926,0,0,0,.28.648,0.816,0.816,0,0,0,.595.3h8.96a0.818,0.818,0,0,0,.84-0.595H255.5q0.875-2.415,2.292-5.495a15.655,15.655,0,0,1,2.258-3.92,5.945,5.945,0,0,1,1.785-1.26v9.415H259.28a0.9,0.9,0,0,0-.613,1.575,0.927,0.927,0,0,0,.648.28h12.81a0.866,0.866,0,0,0,.682-0.3,0.96,0.96,0,0,0,.263-0.648A0.855,0.855,0,0,0,272.79,55a0.984,0.984,0,0,0-.7-0.263h-2.52Zm-1.89,0h-3.955v-21.8h3.99ZM255.255,37.973a7.08,7.08,0,0,0,2.45,5.355q-1.226-.175-2.065-0.315-4.9-1.225-4.9-5.285a3.7,3.7,0,0,1,1.89-3.57,11.533,11.533,0,0,1,4.585-1.05,5.648,5.648,0,0,0-1.225,1.61,7.04,7.04,0,0,0-.735,3.255h0Zm3.5,7.315q-1.47,1.365-4.585,8.89a5.426,5.426,0,0,1-.21.56h-4.27q0.069-.175.3-0.665t0.49-1.05q0.262-.559.543-1.12,0.1-.21.42-0.91t0.525-1.12a8.5,8.5,0,0,1,2.747-3.57,8.329,8.329,0,0,1,4.078-1.015h-0.035Zm3.08-1.89a5.548,5.548,0,0,1-3.36-1.907,5.2,5.2,0,0,1-1.4-3.517,4.7,4.7,0,0,1,1.277-3.4,5.642,5.642,0,0,1,3.483-1.61V43.4Zm36.854,11.34v-21.8h2.8a0.852,0.852,0,0,0,.648-0.28,0.983,0.983,0,0,0,.262-0.7,0.814,0.814,0,0,0-.28-0.613,0.9,0.9,0,0,0-.63-0.262H290.814q-6.405,0-8.89.91a5.619,5.619,0,0,0-3.955,5.74,6.469,6.469,0,0,0,1.645,4.445,7.9,7.9,0,0,0,3.64,2.275A10.3,10.3,0,0,0,279.4,49.1q-1.331,2.8-2.31,4.9a4.341,4.341,0,0,1-.35.735h-1.96a0.839,0.839,0,0,0-.612.263,0.88,0.88,0,0,0-.263.647,0.931,0.931,0,0,0,.28.648,0.816,0.816,0,0,0,.595.3h8.96a0.818,0.818,0,0,0,.84-0.595h0.035q0.874-2.415,2.293-5.495a15.662,15.662,0,0,1,2.257-3.92,5.945,5.945,0,0,1,1.785-1.26v9.415H288.4a0.9,0.9,0,0,0-.612,1.575,0.926,0.926,0,0,0,.647.28h12.81a0.868,0.868,0,0,0,.683-0.3,0.958,0.958,0,0,0,.262-0.648,0.851,0.851,0,0,0-.28-0.647,0.984,0.984,0,0,0-.7-0.263h-2.52Zm-1.89,0h-3.955v-21.8h3.99ZM284.374,37.973a7.083,7.083,0,0,0,2.45,5.355q-1.226-.175-2.065-0.315-4.9-1.225-4.9-5.285a3.7,3.7,0,0,1,1.89-3.57,11.537,11.537,0,0,1,4.585-1.05,5.666,5.666,0,0,0-1.225,1.61,7.04,7.04,0,0,0-.735,3.255h0Zm3.5,7.315q-1.47,1.365-4.585,8.89a4.98,4.98,0,0,1-.21.56h-4.27q0.07-.175.3-0.665t0.49-1.05q0.263-.559.542-1.12,0.105-.21.42-0.91t0.525-1.12a8.489,8.489,0,0,1,2.748-3.57,8.325,8.325,0,0,1,4.077-1.015h-0.035Zm3.08-1.89a5.548,5.548,0,0,1-3.36-1.907,5.209,5.209,0,0,1-1.4-3.517,4.7,4.7,0,0,1,1.278-3.4,5.636,5.636,0,0,1,3.482-1.61V43.4Z" transform="translate(-33 -21)"/>
  <path id="СУДЖ" class="cls-1" d="M149.282,96.625a0.73,0.73,0,0,0-.77.525,5.039,5.039,0,0,1-.35.525,13.875,13.875,0,0,1-2.625,3.5A6.267,6.267,0,0,1,142,102.189a6.019,6.019,0,0,1-2.73-.63q-3.921-2.238-3.92-9.239,0-5.215,1.645-8.085a5.793,5.793,0,0,1,4.655-3.045,7.533,7.533,0,0,1,3.605,1.855,16.7,16.7,0,0,1,2.94,3.885v2.31a0.822,0.822,0,0,0,.262.63,0.913,0.913,0,0,0,.648.245,0.88,0.88,0,0,0,.647-0.263,0.84,0.84,0,0,0,.263-0.612V80.455a0.91,0.91,0,1,0-1.82,0V83.57a12,12,0,0,0-2.695-2.73,8.694,8.694,0,0,0-5.04-1.54,14.094,14.094,0,0,0-5.74,1.155,12.685,12.685,0,0,0-4.2,2.975,12.882,12.882,0,0,0-3.43,8.89q0,6.23,4.1,9.8a12.515,12.515,0,0,0,4.165,2.415,13.691,13.691,0,0,0,4.62.77,9.514,9.514,0,0,0,5.74-1.89,15.611,15.611,0,0,0,4.41-5.46,0.932,0.932,0,0,0,.035-0.665,0.863,0.863,0,0,0-.42-0.525,0.71,0.71,0,0,0-.455-0.14h0Zm-15.75-4.3q0,8.05,4.9,10.849a5.284,5.284,0,0,0,.63.28,11.926,11.926,0,0,1-3.8-.875,10.961,10.961,0,0,1-3.22-2.065,9.157,9.157,0,0,1-2.292-3.447,12.764,12.764,0,0,1-.84-4.742,11.643,11.643,0,0,1,2-6.458,10.021,10.021,0,0,1,5.74-4.182,9.055,9.055,0,0,0-1.89,2.975,20.345,20.345,0,0,0-1.225,7.665h0Zm37.135-12.775a0.9,0.9,0,0,0-.91.91,0.814,0.814,0,0,0,.28.612,0.9,0.9,0,0,0,.63.263h4.655l-5.25,10.4-6.16-10.36h2.905a0.941,0.941,0,0,0,.665-0.263,0.854,0.854,0,0,0,.28-0.648,0.88,0.88,0,0,0-.263-0.647,0.922,0.922,0,0,0-.682-0.263h-12.95a0.9,0.9,0,0,0-.91.91,0.851,0.851,0,0,0,.28.648,0.9,0.9,0,0,0,.63.263h1.26L165.872,99.25a0.031,0.031,0,0,0-.035.035V99.32l-0.07.1a11.4,11.4,0,0,1-2.1,2.764,2.707,2.707,0,0,0,.07-0.7,3.882,3.882,0,0,0-1.085-2.782,3.576,3.576,0,0,0-2.695-1.137,3.4,3.4,0,0,0-2.625,1.155,4.024,4.024,0,0,0-.035,5.459,3.627,3.627,0,0,0,2.66,1.12,7.314,7.314,0,0,0,5.075-1.855,12.255,12.255,0,0,0,2.38-3.22h0.035a0.268,0.268,0,0,0,.035-0.105,0.814,0.814,0,0,1,.14-0.209l0.14-.28,3.115-5.565V94.035l6.51-12.7H179.8a0.941,0.941,0,0,0,.665-0.263,0.817,0.817,0,0,0,.28-0.612,0.88,0.88,0,0,0-.263-0.647,0.922,0.922,0,0,0-.682-0.263h-9.135Zm-3.78,17.85-9.59-16.03h4.48l7.28,12.25Zm-5.548,5.495a1.943,1.943,0,0,1-2.747-.017,1.912,1.912,0,0,1-.56-1.383,2.124,2.124,0,0,1,.56-1.487,1.827,1.827,0,0,1,2.73,0,2.129,2.129,0,0,1,.56,1.487A1.929,1.929,0,0,1,161.339,102.889Zm41.913,0.315V81.4h2.555a0.848,0.848,0,0,0,.63-0.3,0.969,0.969,0,0,0,.28-0.683,0.841,0.841,0,0,0-.263-0.612,0.88,0.88,0,0,0-.647-0.263h-21.84a0.9,0.9,0,0,0-.875.875,1.021,1.021,0,0,0,.245.7,0.8,0.8,0,0,0,.63.28h4.27a43.118,43.118,0,0,1-1.68,10.815,36.531,36.531,0,0,1-5.215,10.989h-2a0.855,0.855,0,0,0-.648.28,0.942,0.942,0,0,0-.262.665v5.95a0.907,0.907,0,0,0,.28.665,0.867,0.867,0,0,0,.63.28,0.956,0.956,0,0,0,.945-0.945v-5.04h24.815v5.04a0.96,0.96,0,0,0,.91.91,0.941,0.941,0,0,0,.665-0.262,0.855,0.855,0,0,0,.28-0.648v-5.95a0.956,0.956,0,0,0-.945-0.945h-2.765Zm-1.89,0H197.3V81.4h4.06v21.8Zm-5.915-21.8v21.8h-11.83a37.432,37.432,0,0,0,4.725-10.5,40.361,40.361,0,0,0,1.75-11.3h5.355Zm50.189,21.769a2.756,2.756,0,0,0-.14-0.35q-1.365-3.393-2.415-5.809a10.883,10.883,0,0,0-3.29-4.41,8.243,8.243,0,0,0-3.22-1.54,9.7,9.7,0,0,0,1.96-2.975,23.327,23.327,0,0,0,.945-2.94,1.126,1.126,0,0,0,.07-0.28,4.4,4.4,0,0,0,.98,1.295,4,4,0,0,0,5.583-.1,3.85,3.85,0,0,0,.017-5.583,3.86,3.86,0,0,0-2.8-1.172h-0.035a4.815,4.815,0,0,0-4.095,1.75,9.756,9.756,0,0,0-1.47,3.605l-0.122.368c-0.059.175-.1,0.309-0.123,0.4a19.648,19.648,0,0,1-.7,1.925h-0.035a5.22,5.22,0,0,1-1.855,2.73h-0.035a3.945,3.945,0,0,1-2.275.525,0.656,0.656,0,0,1-.21.035h-0.665V81.4h2.345a0.882,0.882,0,0,0,.665-0.3A0.965,0.965,0,0,0,235,80.42a0.814,0.814,0,0,0-.28-0.612,0.939,0.939,0,0,0-.665-0.263h-12.53a0.939,0.939,0,0,0-.665.263,0.814,0.814,0,0,0-.28.612,0.965,0.965,0,0,0,.28.683,0.882,0.882,0,0,0,.665.3h2.485v9.24h-0.7a4.5,4.5,0,0,1-2.485-.56,6.122,6.122,0,0,1-1.96-2.765,16.9,16.9,0,0,1-.875-2.66q-0.244-.874-0.385-1.3t-0.455-1.19A3.987,3.987,0,0,0,216.464,81a8.722,8.722,0,0,0-.928-0.858,3.376,3.376,0,0,0-1.347-.647,7.481,7.481,0,0,0-1.768-.193h-0.035a4.009,4.009,0,0,0-2.835,1.155,3.971,3.971,0,0,0,0,5.6,3.91,3.91,0,0,0,2.87,1.19,3.854,3.854,0,0,0,2.73-1.085,3.66,3.66,0,0,0,.98-1.33,0.584,0.584,0,0,0,.035.175,0.593,0.593,0,0,1,.035.14l0.035,0.105a16.515,16.515,0,0,0,.945,2.835,9.766,9.766,0,0,0,1.925,2.975,8.243,8.243,0,0,0-3.22,1.54,10.016,10.016,0,0,0-3.29,4.41q-2.03,4.55-2.555,6.159h-1.82a0.924,0.924,0,0,0-.7.3,0.934,0.934,0,0,0-.28.647,0.882,0.882,0,0,0,.3.665,0.959,0.959,0,0,0,.682.28h8.925a0.967,0.967,0,0,0,.945-0.63v-0.035q0.875-2.94,2.118-6.212a14.2,14.2,0,0,1,2.082-4.148,7,7,0,0,1,1.715-1.435v10.6h-2.485a0.94,0.94,0,0,0-.665.263,0.851,0.851,0,0,0-.28.647,0.956,0.956,0,0,0,.945.945h12.53a0.926,0.926,0,0,0,.648-0.28,0.871,0.871,0,0,0,.017-1.3,0.911,0.911,0,0,0-.665-0.28h-2.345V92.6a7.637,7.637,0,0,1,1.68,1.435q1.541,1.575,4.2,10.36l0.035,0.035a0.881,0.881,0,0,0,.875.63h9a0.926,0.926,0,0,0,.648-0.28,0.893,0.893,0,0,0,0-1.33,0.934,0.934,0,0,0-.648-0.28h-1.855Zm-6.44,0q-2.8-8.714-4.48-10.394l-0.175-.175a8.056,8.056,0,0,1,6.9,5.145q0.49,1.155,2.2,5.424H239.2Zm2.5-21.437a2.229,2.229,0,0,1,1.592-.612,2.127,2.127,0,0,1,1.54.612,2.114,2.114,0,0,1-.017,3.028,2.114,2.114,0,0,1-1.523.63,2.194,2.194,0,0,1-1.592-.63A2.092,2.092,0,0,1,241.7,81.732ZM229.816,103.2H225.9V81.4h3.92v21.8Zm-8.855-10.429q-1.61,1.61-4.48,10.394h-4.445q0.7-1.854,2.275-5.424a7.906,7.906,0,0,1,6.825-5.145Zm-8.54-7.385a2.14,2.14,0,0,1-1.54-.647,2.033,2.033,0,0,1-.017-2.993,2.24,2.24,0,0,1,3.115,0,2.074,2.074,0,0,1,0,3.01,2.154,2.154,0,0,1-1.558.63h0Z" transform="translate(-33 -21)"/>
  <path id="А" class="cls-1" d="M275.529,103.343l-9.345-23.065a0.7,0.7,0,0,0-.84-0.595h-2.87a0.841,0.841,0,0,0-.875.56l-0.035.035-1.575,4.3v0.07l-4.27,10.605h-0.035v0.07l-3.255,8.015h-3.01a0.852,0.852,0,0,0-.648.28,0.939,0.939,0,0,0-.262.665,0.96,0.96,0,0,0,.91.91h9.695a0.96,0.96,0,0,0,.91-0.91,0.911,0.911,0,0,0-.28-0.665,0.87,0.87,0,0,0-.63-0.28h-4.655l2.695-6.825h7.385l2.765,6.825h-2.975a1.024,1.024,0,0,0-.945.945,0.87,0.87,0,0,0,.28.63,0.906,0.906,0,0,0,.665.28h12.915a0.96,0.96,0,0,0,.91-0.91,0.911,0.911,0,0,0-.28-0.665,0.87,0.87,0,0,0-.63-0.28h-1.715Zm-6.23,0-7.455-18.41,1.26-3.4h1.61l8.82,21.805H269.3Zm-11.375-8.68,2.905-7.245,2.94,7.245h-5.845Z" transform="translate(-33 -21)"/>
</svg>
