<?xml version="1.0" encoding="utf-8"?>
<!DOCTYPE svg PUBLIC "-//W3C//DTD SVG 1.1//EN" "http://www.w3.org/Graphics/SVG/1.1/DTD/svg11.dtd">
<svg version="1.1" id="Layer_1" xmlns="http://www.w3.org/2000/svg" xmlns:xlink="http://www.w3.org/1999/xlink" x="0px" y="0px"
width="496px" height="496px" viewBox="0 0 496 496" enable-background="new 0 0 496 496" xml:space="preserve">
<rect x="0" y="0" width="496" height="496" fill="rgb(84,48,39)" /><g transform="translate(16,16)"><g transform="translate(128,0) scale(0.165,0.165)"><g transform="" style="fill: rgb(255, 255, 255);">
<g>
	<path d="M100,34.375V0H34.375C24.87,0,16.764,3.353,10.059,10.059S0,24.87,0,34.375v31.25c0,9.505,3.353,17.611,10.059,24.316
		C16.765,96.646,24.87,100,34.375,100H100V34.375z"/>
</g>
</g></g><g transform="translate(144,0) scale(0.165,0.165)"><g transform="" style="fill: rgb(255, 255, 255);">
<rect width="100" height="100"/>
</g></g><g transform="translate(160,0) scale(0.165,0.165)"><g transform="" style="fill: rgb(255, 255, 255);">
<g>
	<path d="M100,34.375c0-9.505-3.354-17.611-10.059-24.316C83.236,3.354,75.13,0,65.625,0H0v100h100V34.375z"/>
</g>
</g></g><g transform="translate(192,0) scale(0.165,0.165)"><g transform="" style="fill: rgb(255, 255, 255);">
<g>
	<path d="M100,34.375V0H34.375C24.87,0,16.764,3.353,10.059,10.059S0,24.87,0,34.375V100h100V34.375z"/>
</g>
</g></g><g transform="translate(208,0) scale(0.165,0.165)"><g transform="" style="fill: rgb(255, 255, 255);">
<rect width="100" height="100"/>
</g></g><g transform="translate(224,0) scale(0.165,0.165)"><g transform="" style="fill: rgb(255, 255, 255);">
<rect width="100" height="100"/>
</g></g><g transform="translate(240,0) scale(0.165,0.165)"><g transform="" style="fill: rgb(255, 255, 255);">
<g>
	<path d="M100,34.375c0-9.505-3.354-17.611-10.059-24.316C83.236,3.354,75.13,0,65.625,0H0v100h100V34.375z"/>
</g>
</g></g><g transform="translate(288,0) scale(0.165,0.165)"><g transform="" style="fill: rgb(255, 255, 255);">
<g>
	<path d="M100,34.375c0-9.505-3.354-17.611-10.059-24.316C83.236,3.354,75.13,0,65.625,0h-31.25C24.87,0,16.764,3.353,10.059,10.059
		S0,24.87,0,34.375v31.25c0,0.521,0.065,1.303,0.195,2.344H0V100h100V67.969h-0.195c0.132-1.041,0.195-1.822,0.195-2.344V34.375z"/>
</g>
</g></g><g transform="translate(144,16) scale(0.165,0.165)"><g transform="" style="fill: rgb(255, 255, 255);">
<g>
	<path d="M100,0H0v65.625c0,9.505,3.353,17.611,10.059,24.316C16.765,96.646,24.87,100,34.375,100H100V0z"/>
</g>
</g></g><g transform="translate(160,16) scale(0.165,0.165)"><g transform="" style="fill: rgb(255, 255, 255);">
<rect width="100" height="100"/>
</g></g><g transform="translate(176,16) scale(0.165,0.165)"><g transform="" style="fill: rgb(255, 255, 255);">
<rect width="100" height="100"/>
</g></g><g transform="translate(192,16) scale(0.165,0.165)"><g transform="" style="fill: rgb(255, 255, 255);">
<rect width="100" height="100"/>
</g></g><g transform="translate(208,16) scale(0.165,0.165)"><g transform="" style="fill: rgb(255, 255, 255);">
<g>
	<path d="M100,0H0v100h65.625c9.505,0,17.611-3.354,24.316-10.059C96.646,83.236,100,75.13,100,65.625V0z"/>
</g>
</g></g><g transform="translate(240,16) scale(0.165,0.165)"><g transform="" style="fill: rgb(255, 255, 255);">
<rect width="100" height="100"/>
</g></g><g transform="translate(256,16) scale(0.165,0.165)"><g transform="" style="fill: rgb(255, 255, 255);">
<rect width="100" height="100"/>
</g></g><g transform="translate(272,16) scale(0.165,0.165)"><g transform="" style="fill: rgb(255, 255, 255);">
<rect width="100" height="100"/>
</g></g><g transform="translate(288,16) scale(0.165,0.165)"><g transform="" style="fill: rgb(255, 255, 255);">
<rect width="100" height="100"/>
</g></g><g transform="translate(224,32) scale(0.165,0.165)"><g transform="" style="fill: rgb(255, 255, 255);">
<g>
	<path d="M100,34.375V0H34.375C24.87,0,16.764,3.353,10.059,10.059S0,24.87,0,34.375V100h100V34.375z"/>
</g>
</g></g><g transform="translate(240,32) scale(0.165,0.165)"><g transform="" style="fill: rgb(255, 255, 255);">
<g>
	<path d="M100,0H0v100h65.625c9.505,0,17.611-3.354,24.316-10.059C96.646,83.236,100,75.13,100,65.625V0z"/>
</g>
</g></g><g transform="translate(288,32) scale(0.165,0.165)"><g transform="" style="fill: rgb(255, 255, 255);">
<g>
	<path d="M100,0H0v65.625c0,9.505,3.353,17.611,10.059,24.316C16.765,96.646,24.87,100,34.375,100H100V0z"/>
</g>
</g></g><g transform="translate(304,32) scale(0.165,0.165)"><g transform="" style="fill: rgb(255, 255, 255);">
<g>
	<path d="M65.625,0H0v100h65.625c9.505,0,17.611-3.354,24.316-10.059C96.646,83.236,100,75.13,100,65.625v-31.25
		c0-9.505-3.354-17.611-10.059-24.316C83.236,3.354,75.13,0,65.625,0z"/>
</g>
</g></g><g transform="translate(128,48) scale(0.165,0.165)"><g transform="" style="fill: rgb(255, 255, 255);">
<g>
	<path d="M100,65.625c0,9.507-3.355,17.611-10.059,24.316C83.236,96.645,75.132,100,65.625,100h-31.25
		c-9.504,0-17.61-3.355-24.315-10.059C3.354,83.236,0,75.132,0,65.625v-31.25c0-9.504,3.353-17.61,10.059-24.315
		C16.766,3.354,24.871,0,34.375,0h31.25c9.508,0,17.613,3.353,24.316,10.059C96.646,16.766,100,24.871,100,34.375V65.625z"/>
</g>
</g></g><g transform="translate(160,48) scale(0.165,0.165)"><g transform="" style="fill: rgb(255, 255, 255);">
<g>
	<path d="M100,65.625c0,9.507-3.355,17.611-10.059,24.316C83.236,96.645,75.132,100,65.625,100h-31.25
		c-9.504,0-17.61-3.355-24.315-10.059C3.354,83.236,0,75.132,0,65.625v-31.25c0-9.504,3.353-17.61,10.059-24.315
		C16.766,3.354,24.871,0,34.375,0h31.25c9.508,0,17.613,3.353,24.316,10.059C96.646,16.766,100,24.871,100,34.375V65.625z"/>
</g>
</g></g><g transform="translate(192,48) scale(0.165,0.165)"><g transform="" style="fill: rgb(255, 255, 255);">
<g>
	<path d="M100,34.375V0H34.375C24.87,0,16.764,3.353,10.059,10.059S0,24.87,0,34.375V100h100V34.375z"/>
</g>
</g></g><g transform="translate(208,48) scale(0.165,0.165)"><g transform="" style="fill: rgb(255, 255, 255);">
<rect width="100" height="100"/>
</g></g><g transform="translate(224,48) scale(0.165,0.165)"><g transform="" style="fill: rgb(255, 255, 255);">
<g>
	<path d="M100,0H0v100h65.625c9.505,0,17.611-3.354,24.316-10.059C96.646,83.236,100,75.13,100,65.625V0z"/>
</g>
</g></g><g transform="translate(256,48) scale(0.165,0.165)"><g transform="" style="fill: rgb(255, 255, 255);">
<g>
	<path d="M100,65.625c0,9.507-3.355,17.611-10.059,24.316C83.236,96.645,75.132,100,65.625,100h-31.25
		c-9.504,0-17.61-3.355-24.315-10.059C3.354,83.236,0,75.132,0,65.625v-31.25c0-9.504,3.353-17.61,10.059-24.315
		C16.766,3.354,24.871,0,34.375,0h31.25c9.508,0,17.613,3.353,24.316,10.059C96.646,16.766,100,24.871,100,34.375V65.625z"/>
</g>
</g></g><g transform="translate(144,64) scale(0.165,0.165)"><g transform="" style="fill: rgb(255, 255, 255);">
<g>
	<path d="M100,34.375c0-9.505-3.354-17.611-10.059-24.316C83.236,3.354,75.13,0,65.625,0h-31.25C24.87,0,16.764,3.353,10.059,10.059
		S0,24.87,0,34.375v31.25c0,0.521,0.065,1.303,0.195,2.344H0V100h100V67.969h-0.195c0.132-1.041,0.195-1.822,0.195-2.344V34.375z"/>
</g>
</g></g><g transform="translate(176,64) scale(0.165,0.165)"><g transform="" style="fill: rgb(255, 255, 255);">
<g>
	<path d="M100,34.375V0H34.375C24.87,0,16.764,3.353,10.059,10.059S0,24.87,0,34.375v31.25c0,9.505,3.353,17.611,10.059,24.316
		C16.765,96.646,24.87,100,34.375,100H100V34.375z"/>
</g>
</g></g><g transform="translate(192,64) scale(0.165,0.165)"><g transform="" style="fill: rgb(255, 255, 255);">
<g>
	<path d="M100,0H0v100h65.625c9.505,0,17.611-3.354,24.316-10.059C96.646,83.236,100,75.13,100,65.625V0z"/>
</g>
</g></g><g transform="translate(240,64) scale(0.165,0.165)"><g transform="" style="fill: rgb(255, 255, 255);">
<g>
	<path d="M100,34.375c0-9.505-3.354-17.611-10.059-24.316C83.236,3.354,75.13,0,65.625,0h-31.25C24.87,0,16.764,3.353,10.059,10.059
		S0,24.87,0,34.375v31.25c0,0.521,0.065,1.303,0.195,2.344H0V100h100V67.969h-0.195c0.132-1.041,0.195-1.822,0.195-2.344V34.375z"/>
</g>
</g></g><g transform="translate(288,64) scale(0.165,0.165)"><g transform="" style="fill: rgb(255, 255, 255);">
<g>
	<path d="M100,34.375V0H34.375C24.87,0,16.764,3.353,10.059,10.059S0,24.87,0,34.375v31.25c0,9.505,3.353,17.611,10.059,24.316
		C16.765,96.646,24.87,100,34.375,100H100V34.375z"/>
</g>
</g></g><g transform="translate(304,64) scale(0.165,0.165)"><g transform="" style="fill: rgb(255, 255, 255);">
<g>
	<path d="M100,34.375c0-9.505-3.354-17.611-10.059-24.316C83.236,3.354,75.13,0,65.625,0H0v100h100V34.375z"/>
</g>
</g></g><g transform="translate(144,80) scale(0.165,0.165)"><g transform="" style="fill: rgb(255, 255, 255);">
<g>
	<path d="M99.805,32.031H100V0H0v32.031h0.195C0.065,33.073,0,33.854,0,34.375v31.25c0,9.505,3.353,17.611,10.059,24.316
		C16.765,96.646,24.87,100,34.375,100h31.25c9.505,0,17.611-3.354,24.316-10.059C96.646,83.236,100,75.13,100,65.625v-31.25
		C100,33.854,99.937,33.073,99.805,32.031z"/>
</g>
</g></g><g transform="translate(240,80) scale(0.165,0.165)"><g transform="" style="fill: rgb(255, 255, 255);">
<g>
	<path d="M100,0H0v65.625c0,9.505,3.353,17.611,10.059,24.316C16.765,96.646,24.87,100,34.375,100H100V0z"/>
</g>
</g></g><g transform="translate(256,80) scale(0.165,0.165)"><g transform="" style="fill: rgb(255, 255, 255);">
<rect width="100" height="100"/>
</g></g><g transform="translate(272,80) scale(0.165,0.165)"><g transform="" style="fill: rgb(255, 255, 255);">
<g>
	<path d="M65.625,0H0v100h65.625c9.505,0,17.611-3.354,24.316-10.059C96.646,83.236,100,75.13,100,65.625v-31.25
		c0-9.505-3.354-17.611-10.059-24.316C83.236,3.354,75.13,0,65.625,0z"/>
</g>
</g></g><g transform="translate(304,80) scale(0.165,0.165)"><g transform="" style="fill: rgb(255, 255, 255);">
<g>
	<path d="M99.805,32.031H100V0H0v32.031h0.195C0.065,33.073,0,33.854,0,34.375v31.25c0,9.505,3.353,17.611,10.059,24.316
		C16.765,96.646,24.87,100,34.375,100h31.25c9.505,0,17.611-3.354,24.316-10.059C96.646,83.236,100,75.13,100,65.625v-31.25
		C100,33.854,99.937,33.073,99.805,32.031z"/>
</g>
</g></g><g transform="translate(128,96) scale(0.165,0.165)"><g transform="" style="fill: rgb(255, 255, 255);">
<g>
	<path d="M100,65.625c0,9.507-3.355,17.611-10.059,24.316C83.236,96.645,75.132,100,65.625,100h-31.25
		c-9.504,0-17.61-3.355-24.315-10.059C3.354,83.236,0,75.132,0,65.625v-31.25c0-9.504,3.353-17.61,10.059-24.315
		C16.766,3.354,24.871,0,34.375,0h31.25c9.508,0,17.613,3.353,24.316,10.059C96.646,16.766,100,24.871,100,34.375V65.625z"/>
</g>
</g></g><g transform="translate(160,96) scale(0.165,0.165)"><g transform="" style="fill: rgb(255, 255, 255);">
<g>
	<path d="M100,34.375c0-9.505-3.354-17.611-10.059-24.316C83.236,3.354,75.13,0,65.625,0h-31.25C24.87,0,16.764,3.353,10.059,10.059
		S0,24.87,0,34.375v31.25c0,0.521,0.065,1.303,0.195,2.344H0V100h100V67.969h-0.195c0.132-1.041,0.195-1.822,0.195-2.344V34.375z"/>
</g>
</g></g><g transform="translate(192,96) scale(0.165,0.165)"><g transform="" style="fill: rgb(255, 255, 255);">
<g>
	<path d="M100,34.375c0-9.505-3.354-17.611-10.059-24.316C83.236,3.354,75.13,0,65.625,0h-31.25C24.87,0,16.764,3.353,10.059,10.059
		S0,24.87,0,34.375v31.25c0,0.521,0.065,1.303,0.195,2.344H0V100h100V67.969h-0.195c0.132-1.041,0.195-1.822,0.195-2.344V34.375z"/>
</g>
</g></g><g transform="translate(224,96) scale(0.165,0.165)"><g transform="" style="fill: rgb(255, 255, 255);">
<g>
	<path d="M100,34.375c0-9.505-3.354-17.611-10.059-24.316C83.236,3.354,75.13,0,65.625,0h-31.25C24.87,0,16.764,3.353,10.059,10.059
		S0,24.87,0,34.375v31.25c0,0.521,0.065,1.303,0.195,2.344H0V100h100V67.969h-0.195c0.132-1.041,0.195-1.822,0.195-2.344V34.375z"/>
</g>
</g></g><g transform="translate(256,96) scale(0.165,0.165)"><g transform="" style="fill: rgb(255, 255, 255);">
<rect width="100" height="100"/>
</g></g><g transform="translate(288,96) scale(0.165,0.165)"><g transform="" style="fill: rgb(255, 255, 255);">
<g>
	<path d="M100,34.375c0-9.505-3.354-17.611-10.059-24.316C83.236,3.354,75.13,0,65.625,0h-31.25C24.87,0,16.764,3.353,10.059,10.059
		S0,24.87,0,34.375v31.25c0,0.521,0.065,1.303,0.195,2.344H0V100h100V67.969h-0.195c0.132-1.041,0.195-1.822,0.195-2.344V34.375z"/>
</g>
</g></g><g transform="translate(320,96) scale(0.165,0.165)"><g transform="" style="fill: rgb(255, 255, 255);">
<g>
	<path d="M100,34.375c0-9.505-3.354-17.611-10.059-24.316C83.236,3.354,75.13,0,65.625,0h-31.25C24.87,0,16.764,3.353,10.059,10.059
		S0,24.87,0,34.375v31.25c0,0.521,0.065,1.303,0.195,2.344H0V100h100V67.969h-0.195c0.132-1.041,0.195-1.822,0.195-2.344V34.375z"/>
</g>
</g></g><g transform="translate(144,112) scale(0.165,0.165)"><g transform="" style="fill: rgb(255, 255, 255);">
<g>
	<path d="M100,34.375V0H34.375C24.87,0,16.764,3.353,10.059,10.059S0,24.87,0,34.375v31.25c0,9.505,3.353,17.611,10.059,24.316
		C16.765,96.646,24.87,100,34.375,100H100V34.375z"/>
</g>
</g></g><g transform="translate(160,112) scale(0.165,0.165)"><g transform="" style="fill: rgb(255, 255, 255);">
<rect width="100" height="100"/>
</g></g><g transform="translate(176,112) scale(0.165,0.165)"><g transform="" style="fill: rgb(255, 255, 255);">
<rect width="100" height="100"/>
</g></g><g transform="translate(192,112) scale(0.165,0.165)"><g transform="" style="fill: rgb(255, 255, 255);">
<rect width="100" height="100"/>
</g></g><g transform="translate(208,112) scale(0.165,0.165)"><g transform="" style="fill: rgb(255, 255, 255);">
<rect width="100" height="100"/>
</g></g><g transform="translate(224,112) scale(0.165,0.165)"><g transform="" style="fill: rgb(255, 255, 255);">
<rect width="100" height="100"/>
</g></g><g transform="translate(240,112) scale(0.165,0.165)"><g transform="" style="fill: rgb(255, 255, 255);">
<rect width="100" height="100"/>
</g></g><g transform="translate(256,112) scale(0.165,0.165)"><g transform="" style="fill: rgb(255, 255, 255);">
<rect width="100" height="100"/>
</g></g><g transform="translate(272,112) scale(0.165,0.165)"><g transform="" style="fill: rgb(255, 255, 255);">
<rect width="100" height="100"/>
</g></g><g transform="translate(288,112) scale(0.165,0.165)"><g transform="" style="fill: rgb(255, 255, 255);">
<rect width="100" height="100"/>
</g></g><g transform="translate(304,112) scale(0.165,0.165)"><g transform="" style="fill: rgb(255, 255, 255);">
<rect width="100" height="100"/>
</g></g><g transform="translate(320,112) scale(0.165,0.165)"><g transform="" style="fill: rgb(255, 255, 255);">
<rect width="100" height="100"/>
</g></g><g transform="translate(32,128) scale(0.165,0.165)"><g transform="" style="fill: rgb(255, 255, 255);">
<g>
	<path d="M100,65.625c0,9.507-3.355,17.611-10.059,24.316C83.236,96.645,75.132,100,65.625,100h-31.25
		c-9.504,0-17.61-3.355-24.315-10.059C3.354,83.236,0,75.132,0,65.625v-31.25c0-9.504,3.353-17.61,10.059-24.315
		C16.766,3.354,24.871,0,34.375,0h31.25c9.508,0,17.613,3.353,24.316,10.059C96.646,16.766,100,24.871,100,34.375V65.625z"/>
</g>
</g></g><g transform="translate(64,128) scale(0.165,0.165)"><g transform="" style="fill: rgb(255, 255, 255);">
<g>
	<path d="M100,34.375V0H34.375C24.87,0,16.764,3.353,10.059,10.059S0,24.87,0,34.375v31.25c0,9.505,3.353,17.611,10.059,24.316
		C16.765,96.646,24.87,100,34.375,100H100V34.375z"/>
</g>
</g></g><g transform="translate(80,128) scale(0.165,0.165)"><g transform="" style="fill: rgb(255, 255, 255);">
<rect width="100" height="100"/>
</g></g><g transform="translate(96,128) scale(0.165,0.165)"><g transform="" style="fill: rgb(255, 255, 255);">
<g>
	<path d="M65.625,0H0v100h65.625c9.505,0,17.611-3.354,24.316-10.059C96.646,83.236,100,75.13,100,65.625v-31.25
		c0-9.505-3.354-17.611-10.059-24.316C83.236,3.354,75.13,0,65.625,0z"/>
</g>
</g></g><g transform="translate(128,128) scale(0.165,0.165)"><g transform="" style="fill: rgb(255, 255, 255);">
<g>
	<path d="M100,65.625c0,9.507-3.355,17.611-10.059,24.316C83.236,96.645,75.132,100,65.625,100h-31.25
		c-9.504,0-17.61-3.355-24.315-10.059C3.354,83.236,0,75.132,0,65.625v-31.25c0-9.504,3.353-17.61,10.059-24.315
		C16.766,3.354,24.871,0,34.375,0h31.25c9.508,0,17.613,3.353,24.316,10.059C96.646,16.766,100,24.871,100,34.375V65.625z"/>
</g>
</g></g><g transform="translate(160,128) scale(0.165,0.165)"><g transform="" style="fill: rgb(255, 255, 255);">
<rect width="100" height="100"/>
</g></g><g transform="translate(176,128) scale(0.165,0.165)"><g transform="" style="fill: rgb(255, 255, 255);">
<g>
	<path d="M100,0H0v100h65.625c9.505,0,17.611-3.354,24.316-10.059C96.646,83.236,100,75.13,100,65.625V0z"/>
</g>
</g></g><g transform="translate(208,128) scale(0.165,0.165)"><g transform="" style="fill: rgb(255, 255, 255);">
<rect width="100" height="100"/>
</g></g><g transform="translate(288,128) scale(0.165,0.165)"><g transform="" style="fill: rgb(255, 255, 255);">
<rect width="100" height="100"/>
</g></g><g transform="translate(304,128) scale(0.165,0.165)"><g transform="" style="fill: rgb(255, 255, 255);">
<rect width="100" height="100"/>
</g></g><g transform="translate(320,128) scale(0.165,0.165)"><g transform="" style="fill: rgb(255, 255, 255);">
<rect width="100" height="100"/>
</g></g><g transform="translate(336,128) scale(0.165,0.165)"><g transform="" style="fill: rgb(255, 255, 255);">
<g>
	<path d="M100,34.375c0-9.505-3.354-17.611-10.059-24.316C83.236,3.354,75.13,0,65.625,0H0v100h100V34.375z"/>
</g>
</g></g><g transform="translate(400,128) scale(0.165,0.165)"><g transform="" style="fill: rgb(255, 255, 255);">
<g>
	<path d="M100,65.625c0,9.507-3.355,17.611-10.059,24.316C83.236,96.645,75.132,100,65.625,100h-31.25
		c-9.504,0-17.61-3.355-24.315-10.059C3.354,83.236,0,75.132,0,65.625v-31.25c0-9.504,3.353-17.61,10.059-24.315
		C16.766,3.354,24.871,0,34.375,0h31.25c9.508,0,17.613,3.353,24.316,10.059C96.646,16.766,100,24.871,100,34.375V65.625z"/>
</g>
</g></g><g transform="translate(448,128) scale(0.165,0.165)"><g transform="" style="fill: rgb(255, 255, 255);">
<g>
	<path d="M100,34.375c0-9.505-3.354-17.611-10.059-24.316C83.236,3.354,75.13,0,65.625,0h-31.25C24.87,0,16.764,3.353,10.059,10.059
		S0,24.87,0,34.375v31.25c0,0.521,0.065,1.303,0.195,2.344H0V100h100V67.969h-0.195c0.132-1.041,0.195-1.822,0.195-2.344V34.375z"/>
</g>
</g></g><g transform="translate(16,144) scale(0.165,0.165)"><g transform="" style="fill: rgb(255, 255, 255);">
<g>
	<path d="M100,34.375c0-9.505-3.354-17.611-10.059-24.316C83.236,3.354,75.13,0,65.625,0h-31.25C24.87,0,16.764,3.353,10.059,10.059
		S0,24.87,0,34.375v31.25c0,0.521,0.065,1.303,0.195,2.344H0V100h100V67.969h-0.195c0.132-1.041,0.195-1.822,0.195-2.344V34.375z"/>
</g>
</g></g><g transform="translate(80,144) scale(0.165,0.165)"><g transform="" style="fill: rgb(255, 255, 255);">
<g>
	<path d="M99.805,32.031H100V0H0v32.031h0.195C0.065,33.073,0,33.854,0,34.375v31.25c0,9.505,3.353,17.611,10.059,24.316
		C16.765,96.646,24.87,100,34.375,100h31.25c9.505,0,17.611-3.354,24.316-10.059C96.646,83.236,100,75.13,100,65.625v-31.25
		C100,33.854,99.937,33.073,99.805,32.031z"/>
</g>
</g></g><g transform="translate(160,144) scale(0.165,0.165)"><g transform="" style="fill: rgb(255, 255, 255);">
<g>
	<path d="M99.805,32.031H100V0H0v32.031h0.195C0.065,33.073,0,33.854,0,34.375v31.25c0,9.505,3.353,17.611,10.059,24.316
		C16.765,96.646,24.87,100,34.375,100h31.25c9.505,0,17.611-3.354,24.316-10.059C96.646,83.236,100,75.13,100,65.625v-31.25
		C100,33.854,99.937,33.073,99.805,32.031z"/>
</g>
</g></g><g transform="translate(192,144) scale(0.165,0.165)"><g transform="" style="fill: rgb(255, 255, 255);">
<g>
	<path d="M100,34.375V0H34.375C24.87,0,16.764,3.353,10.059,10.059S0,24.87,0,34.375V100h100V34.375z"/>
</g>
</g></g><g transform="translate(208,144) scale(0.165,0.165)"><g transform="" style="fill: rgb(255, 255, 255);">
<g>
	<path d="M100,0H0v100h65.625c9.505,0,17.611-3.354,24.316-10.059C96.646,83.236,100,75.13,100,65.625V0z"/>
</g>
</g></g><g transform="translate(240,144) scale(0.165,0.165)"><g transform="" style="fill: rgb(255, 255, 255);">
<g>
	<path d="M100,34.375V0H34.375C24.87,0,16.764,3.353,10.059,10.059S0,24.87,0,34.375V100h100V34.375z"/>
</g>
</g></g><g transform="translate(256,144) scale(0.165,0.165)"><g transform="" style="fill: rgb(255, 255, 255);">
<g>
	<path d="M65.625,0H0v100h65.625c9.505,0,17.611-3.354,24.316-10.059C96.646,83.236,100,75.13,100,65.625v-31.25
		c0-9.505-3.354-17.611-10.059-24.316C83.236,3.354,75.13,0,65.625,0z"/>
</g>
</g></g><g transform="translate(288,144) scale(0.165,0.165)"><g transform="" style="fill: rgb(255, 255, 255);">
<rect width="100" height="100"/>
</g></g><g transform="translate(304,144) scale(0.165,0.165)"><g transform="" style="fill: rgb(255, 255, 255);">
<g>
	<path d="M100,0H0v100h65.625c9.505,0,17.611-3.354,24.316-10.059C96.646,83.236,100,75.13,100,65.625V0z"/>
</g>
</g></g><g transform="translate(336,144) scale(0.165,0.165)"><g transform="" style="fill: rgb(255, 255, 255);">
<g>
	<path d="M100,0H0v65.625c0,9.505,3.353,17.611,10.059,24.316C16.765,96.646,24.87,100,34.375,100H100V0z"/>
</g>
</g></g><g transform="translate(352,144) scale(0.165,0.165)"><g transform="" style="fill: rgb(255, 255, 255);">
<rect width="100" height="100"/>
</g></g><g transform="translate(368,144) scale(0.165,0.165)"><g transform="" style="fill: rgb(255, 255, 255);">
<g>
	<path d="M100,34.375c0-9.505-3.354-17.611-10.059-24.316C83.236,3.354,75.13,0,65.625,0H0v100h100V34.375z"/>
</g>
</g></g><g transform="translate(448,144) scale(0.165,0.165)"><g transform="" style="fill: rgb(255, 255, 255);">
<rect width="100" height="100"/>
</g></g><g transform="translate(0,160) scale(0.165,0.165)"><g transform="" style="fill: rgb(255, 255, 255);">
<g>
	<path d="M100,34.375V0H34.375C24.87,0,16.764,3.353,10.059,10.059S0,24.87,0,34.375V100h100V34.375z"/>
</g>
</g></g><g transform="translate(16,160) scale(0.165,0.165)"><g transform="" style="fill: rgb(255, 255, 255);">
<rect width="100" height="100"/>
</g></g><g transform="translate(48,160) scale(0.165,0.165)"><g transform="" style="fill: rgb(255, 255, 255);">
<g>
	<path d="M100,65.625c0,9.507-3.355,17.611-10.059,24.316C83.236,96.645,75.132,100,65.625,100h-31.25
		c-9.504,0-17.61-3.355-24.315-10.059C3.354,83.236,0,75.132,0,65.625v-31.25c0-9.504,3.353-17.61,10.059-24.315
		C16.766,3.354,24.871,0,34.375,0h31.25c9.508,0,17.613,3.353,24.316,10.059C96.646,16.766,100,24.871,100,34.375V65.625z"/>
</g>
</g></g><g transform="translate(96,160) scale(0.165,0.165)"><g transform="" style="fill: rgb(255, 255, 255);">
<g>
	<path d="M100,34.375V0H34.375C24.87,0,16.764,3.353,10.059,10.059S0,24.87,0,34.375v31.25c0,9.505,3.353,17.611,10.059,24.316
		C16.765,96.646,24.87,100,34.375,100H100V34.375z"/>
</g>
</g></g><g transform="translate(112,160) scale(0.165,0.165)"><g transform="" style="fill: rgb(255, 255, 255);">
<g>
	<path d="M100,34.375c0-9.505-3.354-17.611-10.059-24.316C83.236,3.354,75.13,0,65.625,0H0v100h100V34.375z"/>
</g>
</g></g><g transform="translate(144,160) scale(0.165,0.165)"><g transform="" style="fill: rgb(255, 255, 255);">
<g>
	<path d="M100,65.625c0,9.507-3.355,17.611-10.059,24.316C83.236,96.645,75.132,100,65.625,100h-31.25
		c-9.504,0-17.61-3.355-24.315-10.059C3.354,83.236,0,75.132,0,65.625v-31.25c0-9.504,3.353-17.61,10.059-24.315
		C16.766,3.354,24.871,0,34.375,0h31.25c9.508,0,17.613,3.353,24.316,10.059C96.646,16.766,100,24.871,100,34.375V65.625z"/>
</g>
</g></g><g transform="translate(176,160) scale(0.165,0.165)"><g transform="" style="fill: rgb(255, 255, 255);">
<g>
	<path d="M100,34.375V0H34.375C24.87,0,16.764,3.353,10.059,10.059S0,24.87,0,34.375v31.25c0,9.505,3.353,17.611,10.059,24.316
		C16.765,96.646,24.87,100,34.375,100H100V34.375z"/>
</g>
</g></g><g transform="translate(192,160) scale(0.165,0.165)"><g transform="" style="fill: rgb(255, 255, 255);">
<rect width="100" height="100"/>
</g></g><g transform="translate(224,160) scale(0.165,0.165)"><g transform="" style="fill: rgb(255, 255, 255);">
<g>
	<path d="M100,34.375V0H34.375C24.87,0,16.764,3.353,10.059,10.059S0,24.87,0,34.375v31.25c0,9.505,3.353,17.611,10.059,24.316
		C16.765,96.646,24.87,100,34.375,100H100V34.375z"/>
</g>
</g></g><g transform="translate(240,160) scale(0.165,0.165)"><g transform="" style="fill: rgb(255, 255, 255);">
<g>
	<path d="M100,0H0v100h65.625c9.505,0,17.611-3.354,24.316-10.059C96.646,83.236,100,75.13,100,65.625V0z"/>
</g>
</g></g><g transform="translate(272,160) scale(0.165,0.165)"><g transform="" style="fill: rgb(255, 255, 255);">
<g>
	<path d="M100,34.375V0H34.375C24.87,0,16.764,3.353,10.059,10.059S0,24.87,0,34.375V100h100V34.375z"/>
</g>
</g></g><g transform="translate(288,160) scale(0.165,0.165)"><g transform="" style="fill: rgb(255, 255, 255);">
<rect width="100" height="100"/>
</g></g><g transform="translate(368,160) scale(0.165,0.165)"><g transform="" style="fill: rgb(255, 255, 255);">
<rect width="100" height="100"/>
</g></g><g transform="translate(384,160) scale(0.165,0.165)"><g transform="" style="fill: rgb(255, 255, 255);">
<rect width="100" height="100"/>
</g></g><g transform="translate(400,160) scale(0.165,0.165)"><g transform="" style="fill: rgb(255, 255, 255);">
<rect width="100" height="100"/>
</g></g><g transform="translate(416,160) scale(0.165,0.165)"><g transform="" style="fill: rgb(255, 255, 255);">
<rect width="100" height="100"/>
</g></g><g transform="translate(432,160) scale(0.165,0.165)"><g transform="" style="fill: rgb(255, 255, 255);">
<rect width="100" height="100"/>
</g></g><g transform="translate(448,160) scale(0.165,0.165)"><g transform="" style="fill: rgb(255, 255, 255);">
<g>
	<path d="M100,0H0v100h65.625c9.505,0,17.611-3.354,24.316-10.059C96.646,83.236,100,75.13,100,65.625V0z"/>
</g>
</g></g><g transform="translate(0,176) scale(0.165,0.165)"><g transform="" style="fill: rgb(255, 255, 255);">
<rect width="100" height="100"/>
</g></g><g transform="translate(16,176) scale(0.165,0.165)"><g transform="" style="fill: rgb(255, 255, 255);">
<rect width="100" height="100"/>
</g></g><g transform="translate(32,176) scale(0.165,0.165)"><g transform="" style="fill: rgb(255, 255, 255);">
<g>
	<path d="M100,34.375c0-9.505-3.354-17.611-10.059-24.316C83.236,3.354,75.13,0,65.625,0H0v100h100V34.375z"/>
</g>
</g></g><g transform="translate(80,176) scale(0.165,0.165)"><g transform="" style="fill: rgb(255, 255, 255);">
<g>
	<path d="M100,34.375c0-9.505-3.354-17.611-10.059-24.316C83.236,3.354,75.13,0,65.625,0h-31.25C24.87,0,16.764,3.353,10.059,10.059
		S0,24.87,0,34.375v31.25c0,0.521,0.065,1.303,0.195,2.344H0V100h100V67.969h-0.195c0.132-1.041,0.195-1.822,0.195-2.344V34.375z"/>
</g>
</g></g><g transform="translate(112,176) scale(0.165,0.165)"><g transform="" style="fill: rgb(255, 255, 255);">
<rect width="100" height="100"/>
</g></g><g transform="translate(192,176) scale(0.165,0.165)"><g transform="" style="fill: rgb(255, 255, 255);">
<rect width="100" height="100"/>
</g></g><g transform="translate(208,176) scale(0.165,0.165)"><g transform="" style="fill: rgb(255, 255, 255);">
<g>
	<path d="M65.625,0H0v100h65.625c9.505,0,17.611-3.354,24.316-10.059C96.646,83.236,100,75.13,100,65.625v-31.25
		c0-9.505-3.354-17.611-10.059-24.316C83.236,3.354,75.13,0,65.625,0z"/>
</g>
</g></g><g transform="translate(256,176) scale(0.165,0.165)"><g transform="" style="fill: rgb(255, 255, 255);">
<g>
	<path d="M100,34.375V0H34.375C24.87,0,16.764,3.353,10.059,10.059S0,24.87,0,34.375v31.25c0,9.505,3.353,17.611,10.059,24.316
		C16.765,96.646,24.87,100,34.375,100H100V34.375z"/>
</g>
</g></g><g transform="translate(272,176) scale(0.165,0.165)"><g transform="" style="fill: rgb(255, 255, 255);">
<rect width="100" height="100"/>
</g></g><g transform="translate(288,176) scale(0.165,0.165)"><g transform="" style="fill: rgb(255, 255, 255);">
<rect width="100" height="100"/>
</g></g><g transform="translate(304,176) scale(0.165,0.165)"><g transform="" style="fill: rgb(255, 255, 255);">
<g>
	<path d="M65.625,0H0v100h65.625c9.505,0,17.611-3.354,24.316-10.059C96.646,83.236,100,75.13,100,65.625v-31.25
		c0-9.505-3.354-17.611-10.059-24.316C83.236,3.354,75.13,0,65.625,0z"/>
</g>
</g></g><g transform="translate(336,176) scale(0.165,0.165)"><g transform="" style="fill: rgb(255, 255, 255);">
<g>
	<path d="M100,34.375V0H34.375C24.87,0,16.764,3.353,10.059,10.059S0,24.87,0,34.375v31.25c0,9.505,3.353,17.611,10.059,24.316
		C16.765,96.646,24.87,100,34.375,100H100V34.375z"/>
</g>
</g></g><g transform="translate(352,176) scale(0.165,0.165)"><g transform="" style="fill: rgb(255, 255, 255);">
<rect width="100" height="100"/>
</g></g><g transform="translate(368,176) scale(0.165,0.165)"><g transform="" style="fill: rgb(255, 255, 255);">
<rect width="100" height="100"/>
</g></g><g transform="translate(432,176) scale(0.165,0.165)"><g transform="" style="fill: rgb(255, 255, 255);">
<g>
	<path d="M99.805,32.031H100V0H0v32.031h0.195C0.065,33.073,0,33.854,0,34.375v31.25c0,9.505,3.353,17.611,10.059,24.316
		C16.765,96.646,24.87,100,34.375,100h31.25c9.505,0,17.611-3.354,24.316-10.059C96.646,83.236,100,75.13,100,65.625v-31.25
		C100,33.854,99.937,33.073,99.805,32.031z"/>
</g>
</g></g><g transform="translate(0,192) scale(0.165,0.165)"><g transform="" style="fill: rgb(255, 255, 255);">
<rect width="100" height="100"/>
</g></g><g transform="translate(16,192) scale(0.165,0.165)"><g transform="" style="fill: rgb(255, 255, 255);">
<rect width="100" height="100"/>
</g></g><g transform="translate(32,192) scale(0.165,0.165)"><g transform="" style="fill: rgb(255, 255, 255);">
<rect width="100" height="100"/>
</g></g><g transform="translate(48,192) scale(0.165,0.165)"><g transform="" style="fill: rgb(255, 255, 255);">
<rect width="100" height="100"/>
</g></g><g transform="translate(64,192) scale(0.165,0.165)"><g transform="" style="fill: rgb(255, 255, 255);">
<rect width="100" height="100"/>
</g></g><g transform="translate(80,192) scale(0.165,0.165)"><g transform="" style="fill: rgb(255, 255, 255);">
<rect width="100" height="100"/>
</g></g><g transform="translate(96,192) scale(0.165,0.165)"><g transform="" style="fill: rgb(255, 255, 255);">
<rect width="100" height="100"/>
</g></g><g transform="translate(112,192) scale(0.165,0.165)"><g transform="" style="fill: rgb(255, 255, 255);">
<rect width="100" height="100"/>
</g></g><g transform="translate(144,192) scale(0.165,0.165)"><g transform="" style="fill: rgb(255, 255, 255);">
<g>
	<path d="M100,34.375c0-9.505-3.354-17.611-10.059-24.316C83.236,3.354,75.13,0,65.625,0h-31.25C24.87,0,16.764,3.353,10.059,10.059
		S0,24.87,0,34.375v31.25c0,0.521,0.065,1.303,0.195,2.344H0V100h100V67.969h-0.195c0.132-1.041,0.195-1.822,0.195-2.344V34.375z"/>
</g>
</g></g><g transform="translate(176,192) scale(0.165,0.165)"><g transform="" style="fill: rgb(255, 255, 255);">
<g>
	<path d="M100,34.375V0H34.375C24.87,0,16.764,3.353,10.059,10.059S0,24.87,0,34.375v31.25c0,9.505,3.353,17.611,10.059,24.316
		C16.765,96.646,24.87,100,34.375,100H100V34.375z"/>
</g>
</g></g><g transform="translate(192,192) scale(0.165,0.165)"><g transform="" style="fill: rgb(255, 255, 255);">
<rect width="100" height="100"/>
</g></g><g transform="translate(272,192) scale(0.165,0.165)"><g transform="" style="fill: rgb(255, 255, 255);">
<g>
	<path d="M99.805,32.031H100V0H0v32.031h0.195C0.065,33.073,0,33.854,0,34.375v31.25c0,9.505,3.353,17.611,10.059,24.316
		C16.765,96.646,24.87,100,34.375,100h31.25c9.505,0,17.611-3.354,24.316-10.059C96.646,83.236,100,75.13,100,65.625v-31.25
		C100,33.854,99.937,33.073,99.805,32.031z"/>
</g>
</g></g><g transform="translate(320,192) scale(0.165,0.165)"><g transform="" style="fill: rgb(255, 255, 255);">
<g>
	<path d="M100,34.375c0-9.505-3.354-17.611-10.059-24.316C83.236,3.354,75.13,0,65.625,0h-31.25C24.87,0,16.764,3.353,10.059,10.059
		S0,24.87,0,34.375v31.25c0,0.521,0.065,1.303,0.195,2.344H0V100h100V67.969h-0.195c0.132-1.041,0.195-1.822,0.195-2.344V34.375z"/>
</g>
</g></g><g transform="translate(352,192) scale(0.165,0.165)"><g transform="" style="fill: rgb(255, 255, 255);">
<rect width="100" height="100"/>
</g></g><g transform="translate(368,192) scale(0.165,0.165)"><g transform="" style="fill: rgb(255, 255, 255);">
<rect width="100" height="100"/>
</g></g><g transform="translate(0,208) scale(0.165,0.165)"><g transform="" style="fill: rgb(255, 255, 255);">
<g>
	<path d="M99.805,32.031H100V0H0v32.031h0.195C0.065,33.073,0,33.854,0,34.375v31.25c0,9.505,3.353,17.611,10.059,24.316
		C16.765,96.646,24.87,100,34.375,100h31.25c9.505,0,17.611-3.354,24.316-10.059C96.646,83.236,100,75.13,100,65.625v-31.25
		C100,33.854,99.937,33.073,99.805,32.031z"/>
</g>
</g></g><g transform="translate(48,208) scale(0.165,0.165)"><g transform="" style="fill: rgb(255, 255, 255);">
<g>
	<path d="M99.805,32.031H100V0H0v32.031h0.195C0.065,33.073,0,33.854,0,34.375v31.25c0,9.505,3.353,17.611,10.059,24.316
		C16.765,96.646,24.87,100,34.375,100h31.25c9.505,0,17.611-3.354,24.316-10.059C96.646,83.236,100,75.13,100,65.625v-31.25
		C100,33.854,99.937,33.073,99.805,32.031z"/>
</g>
</g></g><g transform="translate(80,208) scale(0.165,0.165)"><g transform="" style="fill: rgb(255, 255, 255);">
<g>
	<path d="M99.805,32.031H100V0H0v32.031h0.195C0.065,33.073,0,33.854,0,34.375v31.25c0,9.505,3.353,17.611,10.059,24.316
		C16.765,96.646,24.87,100,34.375,100h31.25c9.505,0,17.611-3.354,24.316-10.059C96.646,83.236,100,75.13,100,65.625v-31.25
		C100,33.854,99.937,33.073,99.805,32.031z"/>
</g>
</g></g><g transform="translate(112,208) scale(0.165,0.165)"><g transform="" style="fill: rgb(255, 255, 255);">
<rect width="100" height="100"/>
</g></g><g transform="translate(128,208) scale(0.165,0.165)"><g transform="" style="fill: rgb(255, 255, 255);">
<rect width="100" height="100"/>
</g></g><g transform="translate(144,208) scale(0.165,0.165)"><g transform="" style="fill: rgb(255, 255, 255);">
<rect width="100" height="100"/>
</g></g><g transform="translate(160,208) scale(0.165,0.165)"><g transform="" style="fill: rgb(255, 255, 255);">
<g>
	<path d="M65.625,0H0v100h65.625c9.505,0,17.611-3.354,24.316-10.059C96.646,83.236,100,75.13,100,65.625v-31.25
		c0-9.505-3.354-17.611-10.059-24.316C83.236,3.354,75.13,0,65.625,0z"/>
</g>
</g></g><g transform="translate(192,208) scale(0.165,0.165)"><g transform="" style="fill: rgb(255, 255, 255);">
<g>
	<path d="M99.805,32.031H100V0H0v32.031h0.195C0.065,33.073,0,33.854,0,34.375v31.25c0,9.505,3.353,17.611,10.059,24.316
		C16.765,96.646,24.87,100,34.375,100h31.25c9.505,0,17.611-3.354,24.316-10.059C96.646,83.236,100,75.13,100,65.625v-31.25
		C100,33.854,99.937,33.073,99.805,32.031z"/>
</g>
</g></g><g transform="translate(224,208) scale(0.165,0.165)"><g transform="" style="fill: rgb(255, 255, 255);">
<g>
	<path d="M100,65.625c0,9.507-3.355,17.611-10.059,24.316C83.236,96.645,75.132,100,65.625,100h-31.25
		c-9.504,0-17.61-3.355-24.315-10.059C3.354,83.236,0,75.132,0,65.625v-31.25c0-9.504,3.353-17.61,10.059-24.315
		C16.766,3.354,24.871,0,34.375,0h31.25c9.508,0,17.613,3.353,24.316,10.059C96.646,16.766,100,24.871,100,34.375V65.625z"/>
</g>
</g></g><g transform="translate(256,208) scale(0.165,0.165)"><g transform="" style="fill: rgb(255, 255, 255);">
<g>
	<path d="M100,34.375c0-9.505-3.354-17.611-10.059-24.316C83.236,3.354,75.13,0,65.625,0h-31.25C24.87,0,16.764,3.353,10.059,10.059
		S0,24.87,0,34.375v31.25c0,0.521,0.065,1.303,0.195,2.344H0V100h100V67.969h-0.195c0.132-1.041,0.195-1.822,0.195-2.344V34.375z"/>
</g>
</g></g><g transform="translate(288,208) scale(0.165,0.165)"><g transform="" style="fill: rgb(255, 255, 255);">
<g>
	<path d="M100,34.375c0-9.505-3.354-17.611-10.059-24.316C83.236,3.354,75.13,0,65.625,0h-31.25C24.87,0,16.764,3.353,10.059,10.059
		S0,24.87,0,34.375v31.25c0,0.521,0.065,1.303,0.195,2.344H0V100h100V67.969h-0.195c0.132-1.041,0.195-1.822,0.195-2.344V34.375z"/>
</g>
</g></g><g transform="translate(320,208) scale(0.165,0.165)"><g transform="" style="fill: rgb(255, 255, 255);">
<g>
	<path d="M100,0H0v65.625c0,9.505,3.353,17.611,10.059,24.316C16.765,96.646,24.87,100,34.375,100H100V0z"/>
</g>
</g></g><g transform="translate(336,208) scale(0.165,0.165)"><g transform="" style="fill: rgb(255, 255, 255);">
<rect width="100" height="100"/>
</g></g><g transform="translate(352,208) scale(0.165,0.165)"><g transform="" style="fill: rgb(255, 255, 255);">
<rect width="100" height="100"/>
</g></g><g transform="translate(368,208) scale(0.165,0.165)"><g transform="" style="fill: rgb(255, 255, 255);">
<rect width="100" height="100"/>
</g></g><g transform="translate(448,208) scale(0.165,0.165)"><g transform="" style="fill: rgb(255, 255, 255);">
<g>
	<path d="M100,34.375c0-9.505-3.354-17.611-10.059-24.316C83.236,3.354,75.13,0,65.625,0h-31.25C24.87,0,16.764,3.353,10.059,10.059
		S0,24.87,0,34.375v31.25c0,0.521,0.065,1.303,0.195,2.344H0V100h100V67.969h-0.195c0.132-1.041,0.195-1.822,0.195-2.344V34.375z"/>
</g>
</g></g><g transform="translate(32,224) scale(0.165,0.165)"><g transform="" style="fill: rgb(255, 255, 255);">
<g>
	<path d="M100,65.625c0,9.507-3.355,17.611-10.059,24.316C83.236,96.645,75.132,100,65.625,100h-31.25
		c-9.504,0-17.61-3.355-24.315-10.059C3.354,83.236,0,75.132,0,65.625v-31.25c0-9.504,3.353-17.61,10.059-24.315
		C16.766,3.354,24.871,0,34.375,0h31.25c9.508,0,17.613,3.353,24.316,10.059C96.646,16.766,100,24.871,100,34.375V65.625z"/>
</g>
</g></g><g transform="translate(96,224) scale(0.165,0.165)"><g transform="" style="fill: rgb(255, 255, 255);">
<g>
	<path d="M100,34.375V0H34.375C24.87,0,16.764,3.353,10.059,10.059S0,24.87,0,34.375v31.25c0,9.505,3.353,17.611,10.059,24.316
		C16.765,96.646,24.87,100,34.375,100H100V34.375z"/>
</g>
</g></g><g transform="translate(112,224) scale(0.165,0.165)"><g transform="" style="fill: rgb(255, 255, 255);">
<rect width="100" height="100"/>
</g></g><g transform="translate(128,224) scale(0.165,0.165)"><g transform="" style="fill: rgb(255, 255, 255);">
<rect width="100" height="100"/>
</g></g><g transform="translate(144,224) scale(0.165,0.165)"><g transform="" style="fill: rgb(255, 255, 255);">
<g>
	<path d="M100,0H0v100h65.625c9.505,0,17.611-3.354,24.316-10.059C96.646,83.236,100,75.13,100,65.625V0z"/>
</g>
</g></g><g transform="translate(256,224) scale(0.165,0.165)"><g transform="" style="fill: rgb(255, 255, 255);">
<rect width="100" height="100"/>
</g></g><g transform="translate(272,224) scale(0.165,0.165)"><g transform="" style="fill: rgb(255, 255, 255);">
<rect width="100" height="100"/>
</g></g><g transform="translate(288,224) scale(0.165,0.165)"><g transform="" style="fill: rgb(255, 255, 255);">
<rect width="100" height="100"/>
</g></g><g transform="translate(336,224) scale(0.165,0.165)"><g transform="" style="fill: rgb(255, 255, 255);">
<g>
	<path d="M99.805,32.031H100V0H0v32.031h0.195C0.065,33.073,0,33.854,0,34.375v31.25c0,9.505,3.353,17.611,10.059,24.316
		C16.765,96.646,24.87,100,34.375,100h31.25c9.505,0,17.611-3.354,24.316-10.059C96.646,83.236,100,75.13,100,65.625v-31.25
		C100,33.854,99.937,33.073,99.805,32.031z"/>
</g>
</g></g><g transform="translate(368,224) scale(0.165,0.165)"><g transform="" style="fill: rgb(255, 255, 255);">
<rect width="100" height="100"/>
</g></g><g transform="translate(416,224) scale(0.165,0.165)"><g transform="" style="fill: rgb(255, 255, 255);">
<g>
	<path d="M100,34.375V0H34.375C24.87,0,16.764,3.353,10.059,10.059S0,24.87,0,34.375v31.25c0,9.505,3.353,17.611,10.059,24.316
		C16.765,96.646,24.87,100,34.375,100H100V34.375z"/>
</g>
</g></g><g transform="translate(432,224) scale(0.165,0.165)"><g transform="" style="fill: rgb(255, 255, 255);">
<rect width="100" height="100"/>
</g></g><g transform="translate(448,224) scale(0.165,0.165)"><g transform="" style="fill: rgb(255, 255, 255);">
<rect width="100" height="100"/>
</g></g><g transform="translate(0,240) scale(0.165,0.165)"><g transform="" style="fill: rgb(255, 255, 255);">
<g>
	<path d="M100,65.625c0,9.507-3.355,17.611-10.059,24.316C83.236,96.645,75.132,100,65.625,100h-31.25
		c-9.504,0-17.61-3.355-24.315-10.059C3.354,83.236,0,75.132,0,65.625v-31.25c0-9.504,3.353-17.61,10.059-24.315
		C16.766,3.354,24.871,0,34.375,0h31.25c9.508,0,17.613,3.353,24.316,10.059C96.646,16.766,100,24.871,100,34.375V65.625z"/>
</g>
</g></g><g transform="translate(64,240) scale(0.165,0.165)"><g transform="" style="fill: rgb(255, 255, 255);">
<g>
	<path d="M100,34.375V0H34.375C24.87,0,16.764,3.353,10.059,10.059S0,24.87,0,34.375V100h100V34.375z"/>
</g>
</g></g><g transform="translate(80,240) scale(0.165,0.165)"><g transform="" style="fill: rgb(255, 255, 255);">
<g>
	<path d="M65.625,0H0v100h65.625c9.505,0,17.611-3.354,24.316-10.059C96.646,83.236,100,75.13,100,65.625v-31.25
		c0-9.505-3.354-17.611-10.059-24.316C83.236,3.354,75.13,0,65.625,0z"/>
</g>
</g></g><g transform="translate(160,240) scale(0.165,0.165)"><g transform="" style="fill: rgb(255, 255, 255);">
<g>
	<path d="M100,65.625c0,9.507-3.355,17.611-10.059,24.316C83.236,96.645,75.132,100,65.625,100h-31.25
		c-9.504,0-17.61-3.355-24.315-10.059C3.354,83.236,0,75.132,0,65.625v-31.25c0-9.504,3.353-17.61,10.059-24.315
		C16.766,3.354,24.871,0,34.375,0h31.25c9.508,0,17.613,3.353,24.316,10.059C96.646,16.766,100,24.871,100,34.375V65.625z"/>
</g>
</g></g><g transform="translate(192,240) scale(0.165,0.165)"><g transform="" style="fill: rgb(255, 255, 255);">
<g>
	<path d="M100,34.375V0H34.375C24.87,0,16.764,3.353,10.059,10.059S0,24.87,0,34.375V100h100V34.375z"/>
</g>
</g></g><g transform="translate(208,240) scale(0.165,0.165)"><g transform="" style="fill: rgb(255, 255, 255);">
<g>
	<path d="M65.625,0H0v100h65.625c9.505,0,17.611-3.354,24.316-10.059C96.646,83.236,100,75.13,100,65.625v-31.25
		c0-9.505-3.354-17.611-10.059-24.316C83.236,3.354,75.13,0,65.625,0z"/>
</g>
</g></g><g transform="translate(256,240) scale(0.165,0.165)"><g transform="" style="fill: rgb(255, 255, 255);">
<g>
	<path d="M99.805,32.031H100V0H0v32.031h0.195C0.065,33.073,0,33.854,0,34.375v31.25c0,9.505,3.353,17.611,10.059,24.316
		C16.765,96.646,24.87,100,34.375,100h31.25c9.505,0,17.611-3.354,24.316-10.059C96.646,83.236,100,75.13,100,65.625v-31.25
		C100,33.854,99.937,33.073,99.805,32.031z"/>
</g>
</g></g><g transform="translate(288,240) scale(0.165,0.165)"><g transform="" style="fill: rgb(255, 255, 255);">
<g>
	<path d="M99.805,32.031H100V0H0v32.031h0.195C0.065,33.073,0,33.854,0,34.375v31.25c0,9.505,3.353,17.611,10.059,24.316
		C16.765,96.646,24.87,100,34.375,100h31.25c9.505,0,17.611-3.354,24.316-10.059C96.646,83.236,100,75.13,100,65.625v-31.25
		C100,33.854,99.937,33.073,99.805,32.031z"/>
</g>
</g></g><g transform="translate(320,240) scale(0.165,0.165)"><g transform="" style="fill: rgb(255, 255, 255);">
<g>
	<path d="M100,65.625c0,9.507-3.355,17.611-10.059,24.316C83.236,96.645,75.132,100,65.625,100h-31.25
		c-9.504,0-17.61-3.355-24.315-10.059C3.354,83.236,0,75.132,0,65.625v-31.25c0-9.504,3.353-17.61,10.059-24.315
		C16.766,3.354,24.871,0,34.375,0h31.25c9.508,0,17.613,3.353,24.316,10.059C96.646,16.766,100,24.871,100,34.375V65.625z"/>
</g>
</g></g><g transform="translate(352,240) scale(0.165,0.165)"><g transform="" style="fill: rgb(255, 255, 255);">
<g>
	<path d="M100,34.375V0H34.375C24.87,0,16.764,3.353,10.059,10.059S0,24.87,0,34.375V100h100V34.375z"/>
</g>
</g></g><g transform="translate(368,240) scale(0.165,0.165)"><g transform="" style="fill: rgb(255, 255, 255);">
<g>
	<path d="M100,0H0v100h65.625c9.505,0,17.611-3.354,24.316-10.059C96.646,83.236,100,75.13,100,65.625V0z"/>
</g>
</g></g><g transform="translate(448,240) scale(0.165,0.165)"><g transform="" style="fill: rgb(255, 255, 255);">
<rect width="100" height="100"/>
</g></g><g transform="translate(16,256) scale(0.165,0.165)"><g transform="" style="fill: rgb(255, 255, 255);">
<g>
	<path d="M100,34.375c0-9.505-3.354-17.611-10.059-24.316C83.236,3.354,75.13,0,65.625,0h-31.25C24.87,0,16.764,3.353,10.059,10.059
		S0,24.87,0,34.375v31.25c0,0.521,0.065,1.303,0.195,2.344H0V100h100V67.969h-0.195c0.132-1.041,0.195-1.822,0.195-2.344V34.375z"/>
</g>
</g></g><g transform="translate(64,256) scale(0.165,0.165)"><g transform="" style="fill: rgb(255, 255, 255);">
<rect width="100" height="100"/>
</g></g><g transform="translate(96,256) scale(0.165,0.165)"><g transform="" style="fill: rgb(255, 255, 255);">
<g>
	<path d="M100,65.625c0,9.507-3.355,17.611-10.059,24.316C83.236,96.645,75.132,100,65.625,100h-31.25
		c-9.504,0-17.61-3.355-24.315-10.059C3.354,83.236,0,75.132,0,65.625v-31.25c0-9.504,3.353-17.61,10.059-24.315
		C16.766,3.354,24.871,0,34.375,0h31.25c9.508,0,17.613,3.353,24.316,10.059C96.646,16.766,100,24.871,100,34.375V65.625z"/>
</g>
</g></g><g transform="translate(128,256) scale(0.165,0.165)"><g transform="" style="fill: rgb(255, 255, 255);">
<g>
	<path d="M100,34.375V0H34.375C24.87,0,16.764,3.353,10.059,10.059S0,24.87,0,34.375v31.25c0,9.505,3.353,17.611,10.059,24.316
		C16.765,96.646,24.87,100,34.375,100H100V34.375z"/>
</g>
</g></g><g transform="translate(144,256) scale(0.165,0.165)"><g transform="" style="fill: rgb(255, 255, 255);">
<g>
	<path d="M100,34.375c0-9.505-3.354-17.611-10.059-24.316C83.236,3.354,75.13,0,65.625,0H0v100h100V34.375z"/>
</g>
</g></g><g transform="translate(192,256) scale(0.165,0.165)"><g transform="" style="fill: rgb(255, 255, 255);">
<rect width="100" height="100"/>
</g></g><g transform="translate(240,256) scale(0.165,0.165)"><g transform="" style="fill: rgb(255, 255, 255);">
<g>
	<path d="M100,34.375c0-9.505-3.354-17.611-10.059-24.316C83.236,3.354,75.13,0,65.625,0h-31.25C24.87,0,16.764,3.353,10.059,10.059
		S0,24.87,0,34.375v31.25c0,0.521,0.065,1.303,0.195,2.344H0V100h100V67.969h-0.195c0.132-1.041,0.195-1.822,0.195-2.344V34.375z"/>
</g>
</g></g><g transform="translate(304,256) scale(0.165,0.165)"><g transform="" style="fill: rgb(255, 255, 255);">
<g>
	<path d="M100,65.625c0,9.507-3.355,17.611-10.059,24.316C83.236,96.645,75.132,100,65.625,100h-31.25
		c-9.504,0-17.61-3.355-24.315-10.059C3.354,83.236,0,75.132,0,65.625v-31.25c0-9.504,3.353-17.61,10.059-24.315
		C16.766,3.354,24.871,0,34.375,0h31.25c9.508,0,17.613,3.353,24.316,10.059C96.646,16.766,100,24.871,100,34.375V65.625z"/>
</g>
</g></g><g transform="translate(352,256) scale(0.165,0.165)"><g transform="" style="fill: rgb(255, 255, 255);">
<rect width="100" height="100"/>
</g></g><g transform="translate(400,256) scale(0.165,0.165)"><g transform="" style="fill: rgb(255, 255, 255);">
<g>
	<path d="M100,65.625c0,9.507-3.355,17.611-10.059,24.316C83.236,96.645,75.132,100,65.625,100h-31.25
		c-9.504,0-17.61-3.355-24.315-10.059C3.354,83.236,0,75.132,0,65.625v-31.25c0-9.504,3.353-17.61,10.059-24.315
		C16.766,3.354,24.871,0,34.375,0h31.25c9.508,0,17.613,3.353,24.316,10.059C96.646,16.766,100,24.871,100,34.375V65.625z"/>
</g>
</g></g><g transform="translate(448,256) scale(0.165,0.165)"><g transform="" style="fill: rgb(255, 255, 255);">
<rect width="100" height="100"/>
</g></g><g transform="translate(16,272) scale(0.165,0.165)"><g transform="" style="fill: rgb(255, 255, 255);">
<g>
	<path d="M99.805,32.031H100V0H0v32.031h0.195C0.065,33.073,0,33.854,0,34.375v31.25c0,9.505,3.353,17.611,10.059,24.316
		C16.765,96.646,24.87,100,34.375,100h31.25c9.505,0,17.611-3.354,24.316-10.059C96.646,83.236,100,75.13,100,65.625v-31.25
		C100,33.854,99.937,33.073,99.805,32.031z"/>
</g>
</g></g><g transform="translate(48,272) scale(0.165,0.165)"><g transform="" style="fill: rgb(255, 255, 255);">
<g>
	<path d="M100,34.375V0H34.375C24.87,0,16.764,3.353,10.059,10.059S0,24.87,0,34.375v31.25c0,9.505,3.353,17.611,10.059,24.316
		C16.765,96.646,24.87,100,34.375,100H100V34.375z"/>
</g>
</g></g><g transform="translate(64,272) scale(0.165,0.165)"><g transform="" style="fill: rgb(255, 255, 255);">
<g>
	<path d="M100,0H0v100h65.625c9.505,0,17.611-3.354,24.316-10.059C96.646,83.236,100,75.13,100,65.625V0z"/>
</g>
</g></g><g transform="translate(112,272) scale(0.165,0.165)"><g transform="" style="fill: rgb(255, 255, 255);">
<g>
	<path d="M100,34.375c0-9.505-3.354-17.611-10.059-24.316C83.236,3.354,75.13,0,65.625,0h-31.25C24.87,0,16.764,3.353,10.059,10.059
		S0,24.87,0,34.375v31.25c0,0.521,0.065,1.303,0.195,2.344H0V100h100V67.969h-0.195c0.132-1.041,0.195-1.822,0.195-2.344V34.375z"/>
</g>
</g></g><g transform="translate(144,272) scale(0.165,0.165)"><g transform="" style="fill: rgb(255, 255, 255);">
<rect width="100" height="100"/>
</g></g><g transform="translate(192,272) scale(0.165,0.165)"><g transform="" style="fill: rgb(255, 255, 255);">
<rect width="100" height="100"/>
</g></g><g transform="translate(208,272) scale(0.165,0.165)"><g transform="" style="fill: rgb(255, 255, 255);">
<g>
	<path d="M65.625,0H0v100h65.625c9.505,0,17.611-3.354,24.316-10.059C96.646,83.236,100,75.13,100,65.625v-31.25
		c0-9.505-3.354-17.611-10.059-24.316C83.236,3.354,75.13,0,65.625,0z"/>
</g>
</g></g><g transform="translate(240,272) scale(0.165,0.165)"><g transform="" style="fill: rgb(255, 255, 255);">
<rect width="100" height="100"/>
</g></g><g transform="translate(256,272) scale(0.165,0.165)"><g transform="" style="fill: rgb(255, 255, 255);">
<rect width="100" height="100"/>
</g></g><g transform="translate(272,272) scale(0.165,0.165)"><g transform="" style="fill: rgb(255, 255, 255);">
<rect width="100" height="100"/>
</g></g><g transform="translate(288,272) scale(0.165,0.165)"><g transform="" style="fill: rgb(255, 255, 255);">
<g>
	<path d="M100,34.375c0-9.505-3.354-17.611-10.059-24.316C83.236,3.354,75.13,0,65.625,0H0v100h100V34.375z"/>
</g>
</g></g><g transform="translate(352,272) scale(0.165,0.165)"><g transform="" style="fill: rgb(255, 255, 255);">
<g>
	<path d="M99.805,32.031H100V0H0v32.031h0.195C0.065,33.073,0,33.854,0,34.375v31.25c0,9.505,3.353,17.611,10.059,24.316
		C16.765,96.646,24.87,100,34.375,100h31.25c9.505,0,17.611-3.354,24.316-10.059C96.646,83.236,100,75.13,100,65.625v-31.25
		C100,33.854,99.937,33.073,99.805,32.031z"/>
</g>
</g></g><g transform="translate(432,272) scale(0.165,0.165)"><g transform="" style="fill: rgb(255, 255, 255);">
<g>
	<path d="M100,34.375V0H34.375C24.87,0,16.764,3.353,10.059,10.059S0,24.87,0,34.375V100h100V34.375z"/>
</g>
</g></g><g transform="translate(448,272) scale(0.165,0.165)"><g transform="" style="fill: rgb(255, 255, 255);">
<rect width="100" height="100"/>
</g></g><g transform="translate(0,288) scale(0.165,0.165)"><g transform="" style="fill: rgb(255, 255, 255);">
<g>
	<path d="M100,65.625c0,9.507-3.355,17.611-10.059,24.316C83.236,96.645,75.132,100,65.625,100h-31.25
		c-9.504,0-17.61-3.355-24.315-10.059C3.354,83.236,0,75.132,0,65.625v-31.25c0-9.504,3.353-17.61,10.059-24.315
		C16.766,3.354,24.871,0,34.375,0h31.25c9.508,0,17.613,3.353,24.316,10.059C96.646,16.766,100,24.871,100,34.375V65.625z"/>
</g>
</g></g><g transform="translate(32,288) scale(0.165,0.165)"><g transform="" style="fill: rgb(255, 255, 255);">
<g>
	<path d="M100,34.375c0-9.505-3.354-17.611-10.059-24.316C83.236,3.354,75.13,0,65.625,0h-31.25C24.87,0,16.764,3.353,10.059,10.059
		S0,24.87,0,34.375v31.25c0,0.521,0.065,1.303,0.195,2.344H0V100h100V67.969h-0.195c0.132-1.041,0.195-1.822,0.195-2.344V34.375z"/>
</g>
</g></g><g transform="translate(96,288) scale(0.165,0.165)"><g transform="" style="fill: rgb(255, 255, 255);">
<g>
	<path d="M100,34.375V0H34.375C24.87,0,16.764,3.353,10.059,10.059S0,24.87,0,34.375v31.25c0,9.505,3.353,17.611,10.059,24.316
		C16.765,96.646,24.87,100,34.375,100H100V34.375z"/>
</g>
</g></g><g transform="translate(112,288) scale(0.165,0.165)"><g transform="" style="fill: rgb(255, 255, 255);">
<g>
	<path d="M100,0H0v100h65.625c9.505,0,17.611-3.354,24.316-10.059C96.646,83.236,100,75.13,100,65.625V0z"/>
</g>
</g></g><g transform="translate(144,288) scale(0.165,0.165)"><g transform="" style="fill: rgb(255, 255, 255);">
<g>
	<path d="M99.805,32.031H100V0H0v32.031h0.195C0.065,33.073,0,33.854,0,34.375v31.25c0,9.505,3.353,17.611,10.059,24.316
		C16.765,96.646,24.87,100,34.375,100h31.25c9.505,0,17.611-3.354,24.316-10.059C96.646,83.236,100,75.13,100,65.625v-31.25
		C100,33.854,99.937,33.073,99.805,32.031z"/>
</g>
</g></g><g transform="translate(192,288) scale(0.165,0.165)"><g transform="" style="fill: rgb(255, 255, 255);">
<rect width="100" height="100"/>
</g></g><g transform="translate(240,288) scale(0.165,0.165)"><g transform="" style="fill: rgb(255, 255, 255);">
<g>
	<path d="M100,0H0v65.625c0,9.505,3.353,17.611,10.059,24.316C16.765,96.646,24.87,100,34.375,100H100V0z"/>
</g>
</g></g><g transform="translate(256,288) scale(0.165,0.165)"><g transform="" style="fill: rgb(255, 255, 255);">
<rect width="100" height="100"/>
</g></g><g transform="translate(272,288) scale(0.165,0.165)"><g transform="" style="fill: rgb(255, 255, 255);">
<rect width="100" height="100"/>
</g></g><g transform="translate(288,288) scale(0.165,0.165)"><g transform="" style="fill: rgb(255, 255, 255);">
<rect width="100" height="100"/>
</g></g><g transform="translate(320,288) scale(0.165,0.165)"><g transform="" style="fill: rgb(255, 255, 255);">
<g>
	<path d="M100,34.375V0H34.375C24.87,0,16.764,3.353,10.059,10.059S0,24.87,0,34.375v31.25c0,9.505,3.353,17.611,10.059,24.316
		C16.765,96.646,24.87,100,34.375,100H100V34.375z"/>
</g>
</g></g><g transform="translate(336,288) scale(0.165,0.165)"><g transform="" style="fill: rgb(255, 255, 255);">
<g>
	<path d="M65.625,0H0v100h65.625c9.505,0,17.611-3.354,24.316-10.059C96.646,83.236,100,75.13,100,65.625v-31.25
		c0-9.505-3.354-17.611-10.059-24.316C83.236,3.354,75.13,0,65.625,0z"/>
</g>
</g></g><g transform="translate(368,288) scale(0.165,0.165)"><g transform="" style="fill: rgb(255, 255, 255);">
<g>
	<path d="M100,65.625c0,9.507-3.355,17.611-10.059,24.316C83.236,96.645,75.132,100,65.625,100h-31.25
		c-9.504,0-17.61-3.355-24.315-10.059C3.354,83.236,0,75.132,0,65.625v-31.25c0-9.504,3.353-17.61,10.059-24.315
		C16.766,3.354,24.871,0,34.375,0h31.25c9.508,0,17.613,3.353,24.316,10.059C96.646,16.766,100,24.871,100,34.375V65.625z"/>
</g>
</g></g><g transform="translate(416,288) scale(0.165,0.165)"><g transform="" style="fill: rgb(255, 255, 255);">
<g>
	<path d="M100,34.375V0H34.375C24.87,0,16.764,3.353,10.059,10.059S0,24.87,0,34.375v31.25c0,9.505,3.353,17.611,10.059,24.316
		C16.765,96.646,24.87,100,34.375,100H100V34.375z"/>
</g>
</g></g><g transform="translate(432,288) scale(0.165,0.165)"><g transform="" style="fill: rgb(255, 255, 255);">
<rect width="100" height="100"/>
</g></g><g transform="translate(448,288) scale(0.165,0.165)"><g transform="" style="fill: rgb(255, 255, 255);">
<rect width="100" height="100"/>
</g></g><g transform="translate(16,304) scale(0.165,0.165)"><g transform="" style="fill: rgb(255, 255, 255);">
<g>
	<path d="M100,34.375V0H34.375C24.87,0,16.764,3.353,10.059,10.059S0,24.87,0,34.375v31.25c0,9.505,3.353,17.611,10.059,24.316
		C16.765,96.646,24.87,100,34.375,100H100V34.375z"/>
</g>
</g></g><g transform="translate(32,304) scale(0.165,0.165)"><g transform="" style="fill: rgb(255, 255, 255);">
<rect width="100" height="100"/>
</g></g><g transform="translate(48,304) scale(0.165,0.165)"><g transform="" style="fill: rgb(255, 255, 255);">
<rect width="100" height="100"/>
</g></g><g transform="translate(64,304) scale(0.165,0.165)"><g transform="" style="fill: rgb(255, 255, 255);">
<g>
	<path d="M65.625,0H0v100h65.625c9.505,0,17.611-3.354,24.316-10.059C96.646,83.236,100,75.13,100,65.625v-31.25
		c0-9.505-3.354-17.611-10.059-24.316C83.236,3.354,75.13,0,65.625,0z"/>
</g>
</g></g><g transform="translate(128,304) scale(0.165,0.165)"><g transform="" style="fill: rgb(255, 255, 255);">
<g>
	<path d="M100,65.625c0,9.507-3.355,17.611-10.059,24.316C83.236,96.645,75.132,100,65.625,100h-31.25
		c-9.504,0-17.61-3.355-24.315-10.059C3.354,83.236,0,75.132,0,65.625v-31.25c0-9.504,3.353-17.61,10.059-24.315
		C16.766,3.354,24.871,0,34.375,0h31.25c9.508,0,17.613,3.353,24.316,10.059C96.646,16.766,100,24.871,100,34.375V65.625z"/>
</g>
</g></g><g transform="translate(192,304) scale(0.165,0.165)"><g transform="" style="fill: rgb(255, 255, 255);">
<rect width="100" height="100"/>
</g></g><g transform="translate(224,304) scale(0.165,0.165)"><g transform="" style="fill: rgb(255, 255, 255);">
<g>
	<path d="M100,34.375c0-9.505-3.354-17.611-10.059-24.316C83.236,3.354,75.13,0,65.625,0h-31.25C24.87,0,16.764,3.353,10.059,10.059
		S0,24.87,0,34.375v31.25c0,0.521,0.065,1.303,0.195,2.344H0V100h100V67.969h-0.195c0.132-1.041,0.195-1.822,0.195-2.344V34.375z"/>
</g>
</g></g><g transform="translate(256,304) scale(0.165,0.165)"><g transform="" style="fill: rgb(255, 255, 255);">
<rect width="100" height="100"/>
</g></g><g transform="translate(272,304) scale(0.165,0.165)"><g transform="" style="fill: rgb(255, 255, 255);">
<rect width="100" height="100"/>
</g></g><g transform="translate(288,304) scale(0.165,0.165)"><g transform="" style="fill: rgb(255, 255, 255);">
<rect width="100" height="100"/>
</g></g><g transform="translate(304,304) scale(0.165,0.165)"><g transform="" style="fill: rgb(255, 255, 255);">
<g>
	<path d="M65.625,0H0v100h65.625c9.505,0,17.611-3.354,24.316-10.059C96.646,83.236,100,75.13,100,65.625v-31.25
		c0-9.505-3.354-17.611-10.059-24.316C83.236,3.354,75.13,0,65.625,0z"/>
</g>
</g></g><g transform="translate(352,304) scale(0.165,0.165)"><g transform="" style="fill: rgb(255, 255, 255);">
<g>
	<path d="M100,34.375c0-9.505-3.354-17.611-10.059-24.316C83.236,3.354,75.13,0,65.625,0h-31.25C24.87,0,16.764,3.353,10.059,10.059
		S0,24.87,0,34.375v31.25c0,0.521,0.065,1.303,0.195,2.344H0V100h100V67.969h-0.195c0.132-1.041,0.195-1.822,0.195-2.344V34.375z"/>
</g>
</g></g><g transform="translate(400,304) scale(0.165,0.165)"><g transform="" style="fill: rgb(255, 255, 255);">
<g>
	<path d="M100,65.625c0,9.507-3.355,17.611-10.059,24.316C83.236,96.645,75.132,100,65.625,100h-31.25
		c-9.504,0-17.61-3.355-24.315-10.059C3.354,83.236,0,75.132,0,65.625v-31.25c0-9.504,3.353-17.61,10.059-24.315
		C16.766,3.354,24.871,0,34.375,0h31.25c9.508,0,17.613,3.353,24.316,10.059C96.646,16.766,100,24.871,100,34.375V65.625z"/>
</g>
</g></g><g transform="translate(432,304) scale(0.165,0.165)"><g transform="" style="fill: rgb(255, 255, 255);">
<rect width="100" height="100"/>
</g></g><g transform="translate(448,304) scale(0.165,0.165)"><g transform="" style="fill: rgb(255, 255, 255);">
<rect width="100" height="100"/>
</g></g><g transform="translate(0,320) scale(0.165,0.165)"><g transform="" style="fill: rgb(255, 255, 255);">
<g>
	<path d="M100,65.625c0,9.507-3.355,17.611-10.059,24.316C83.236,96.645,75.132,100,65.625,100h-31.25
		c-9.504,0-17.61-3.355-24.315-10.059C3.354,83.236,0,75.132,0,65.625v-31.25c0-9.504,3.353-17.61,10.059-24.315
		C16.766,3.354,24.871,0,34.375,0h31.25c9.508,0,17.613,3.353,24.316,10.059C96.646,16.766,100,24.871,100,34.375V65.625z"/>
</g>
</g></g><g transform="translate(32,320) scale(0.165,0.165)"><g transform="" style="fill: rgb(255, 255, 255);">
<g>
	<path d="M100,0H0v65.625c0,9.505,3.353,17.611,10.059,24.316C16.765,96.646,24.87,100,34.375,100H100V0z"/>
</g>
</g></g><g transform="translate(48,320) scale(0.165,0.165)"><g transform="" style="fill: rgb(255, 255, 255);">
<g>
	<path d="M100,0H0v100h65.625c9.505,0,17.611-3.354,24.316-10.059C96.646,83.236,100,75.13,100,65.625V0z"/>
</g>
</g></g><g transform="translate(96,320) scale(0.165,0.165)"><g transform="" style="fill: rgb(255, 255, 255);">
<g>
	<path d="M100,34.375V0H34.375C24.87,0,16.764,3.353,10.059,10.059S0,24.87,0,34.375v31.25c0,9.505,3.353,17.611,10.059,24.316
		C16.765,96.646,24.87,100,34.375,100H100V34.375z"/>
</g>
</g></g><g transform="translate(112,320) scale(0.165,0.165)"><g transform="" style="fill: rgb(255, 255, 255);">
<g>
	<path d="M65.625,0H0v100h65.625c9.505,0,17.611-3.354,24.316-10.059C96.646,83.236,100,75.13,100,65.625v-31.25
		c0-9.505-3.354-17.611-10.059-24.316C83.236,3.354,75.13,0,65.625,0z"/>
</g>
</g></g><g transform="translate(160,320) scale(0.165,0.165)"><g transform="" style="fill: rgb(255, 255, 255);">
<g>
	<path d="M100,34.375V0H34.375C24.87,0,16.764,3.353,10.059,10.059S0,24.87,0,34.375V100h100V34.375z"/>
</g>
</g></g><g transform="translate(176,320) scale(0.165,0.165)"><g transform="" style="fill: rgb(255, 255, 255);">
<rect width="100" height="100"/>
</g></g><g transform="translate(192,320) scale(0.165,0.165)"><g transform="" style="fill: rgb(255, 255, 255);">
<rect width="100" height="100"/>
</g></g><g transform="translate(208,320) scale(0.165,0.165)"><g transform="" style="fill: rgb(255, 255, 255);">
<rect width="100" height="100"/>
</g></g><g transform="translate(224,320) scale(0.165,0.165)"><g transform="" style="fill: rgb(255, 255, 255);">
<rect width="100" height="100"/>
</g></g><g transform="translate(240,320) scale(0.165,0.165)"><g transform="" style="fill: rgb(255, 255, 255);">
<rect width="100" height="100"/>
</g></g><g transform="translate(256,320) scale(0.165,0.165)"><g transform="" style="fill: rgb(255, 255, 255);">
<rect width="100" height="100"/>
</g></g><g transform="translate(288,320) scale(0.165,0.165)"><g transform="" style="fill: rgb(255, 255, 255);">
<g>
	<path d="M99.805,32.031H100V0H0v32.031h0.195C0.065,33.073,0,33.854,0,34.375v31.25c0,9.505,3.353,17.611,10.059,24.316
		C16.765,96.646,24.87,100,34.375,100h31.25c9.505,0,17.611-3.354,24.316-10.059C96.646,83.236,100,75.13,100,65.625v-31.25
		C100,33.854,99.937,33.073,99.805,32.031z"/>
</g>
</g></g><g transform="translate(320,320) scale(0.165,0.165)"><g transform="" style="fill: rgb(255, 255, 255);">
<g>
	<path d="M100,34.375V0H34.375C24.87,0,16.764,3.353,10.059,10.059S0,24.87,0,34.375V100h100V34.375z"/>
</g>
</g></g><g transform="translate(336,320) scale(0.165,0.165)"><g transform="" style="fill: rgb(255, 255, 255);">
<rect width="100" height="100"/>
</g></g><g transform="translate(352,320) scale(0.165,0.165)"><g transform="" style="fill: rgb(255, 255, 255);">
<rect width="100" height="100"/>
</g></g><g transform="translate(368,320) scale(0.165,0.165)"><g transform="" style="fill: rgb(255, 255, 255);">
<rect width="100" height="100"/>
</g></g><g transform="translate(384,320) scale(0.165,0.165)"><g transform="" style="fill: rgb(255, 255, 255);">
<g>
	<path d="M100,34.375c0-9.505-3.354-17.611-10.059-24.316C83.236,3.354,75.13,0,65.625,0H0v100h100V34.375z"/>
</g>
</g></g><g transform="translate(432,320) scale(0.165,0.165)"><g transform="" style="fill: rgb(255, 255, 255);">
<g>
	<path d="M100,0H0v65.625c0,9.505,3.353,17.611,10.059,24.316C16.765,96.646,24.87,100,34.375,100H100V0z"/>
</g>
</g></g><g transform="translate(448,320) scale(0.165,0.165)"><g transform="" style="fill: rgb(255, 255, 255);">
<rect width="100" height="100"/>
</g></g><g transform="translate(128,336) scale(0.165,0.165)"><g transform="" style="fill: rgb(255, 255, 255);">
<g>
	<path d="M100,65.625c0,9.507-3.355,17.611-10.059,24.316C83.236,96.645,75.132,100,65.625,100h-31.25
		c-9.504,0-17.61-3.355-24.315-10.059C3.354,83.236,0,75.132,0,65.625v-31.25c0-9.504,3.353-17.61,10.059-24.315
		C16.766,3.354,24.871,0,34.375,0h31.25c9.508,0,17.613,3.353,24.316,10.059C96.646,16.766,100,24.871,100,34.375V65.625z"/>
</g>
</g></g><g transform="translate(160,336) scale(0.165,0.165)"><g transform="" style="fill: rgb(255, 255, 255);">
<rect width="100" height="100"/>
</g></g><g transform="translate(176,336) scale(0.165,0.165)"><g transform="" style="fill: rgb(255, 255, 255);">
<g>
	<path d="M100,0H0v100h65.625c9.505,0,17.611-3.354,24.316-10.059C96.646,83.236,100,75.13,100,65.625V0z"/>
</g>
</g></g><g transform="translate(224,336) scale(0.165,0.165)"><g transform="" style="fill: rgb(255, 255, 255);">
<rect width="100" height="100"/>
</g></g><g transform="translate(240,336) scale(0.165,0.165)"><g transform="" style="fill: rgb(255, 255, 255);">
<rect width="100" height="100"/>
</g></g><g transform="translate(256,336) scale(0.165,0.165)"><g transform="" style="fill: rgb(255, 255, 255);">
<rect width="100" height="100"/>
</g></g><g transform="translate(304,336) scale(0.165,0.165)"><g transform="" style="fill: rgb(255, 255, 255);">
<g>
	<path d="M100,34.375V0H34.375C24.87,0,16.764,3.353,10.059,10.059S0,24.87,0,34.375V100h100V34.375z"/>
</g>
</g></g><g transform="translate(320,336) scale(0.165,0.165)"><g transform="" style="fill: rgb(255, 255, 255);">
<rect width="100" height="100"/>
</g></g><g transform="translate(384,336) scale(0.165,0.165)"><g transform="" style="fill: rgb(255, 255, 255);">
<rect width="100" height="100"/>
</g></g><g transform="translate(448,336) scale(0.165,0.165)"><g transform="" style="fill: rgb(255, 255, 255);">
<rect width="100" height="100"/>
</g></g><g transform="translate(144,352) scale(0.165,0.165)"><g transform="" style="fill: rgb(255, 255, 255);">
<g>
	<path d="M100,34.375V0H34.375C24.87,0,16.764,3.353,10.059,10.059S0,24.87,0,34.375v31.25c0,9.505,3.353,17.611,10.059,24.316
		C16.765,96.646,24.87,100,34.375,100H100V34.375z"/>
</g>
</g></g><g transform="translate(160,352) scale(0.165,0.165)"><g transform="" style="fill: rgb(255, 255, 255);">
<g>
	<path d="M100,0H0v100h65.625c9.505,0,17.611-3.354,24.316-10.059C96.646,83.236,100,75.13,100,65.625V0z"/>
</g>
</g></g><g transform="translate(224,352) scale(0.165,0.165)"><g transform="" style="fill: rgb(255, 255, 255);">
<g>
	<path d="M99.805,32.031H100V0H0v32.031h0.195C0.065,33.073,0,33.854,0,34.375v31.25c0,9.505,3.353,17.611,10.059,24.316
		C16.765,96.646,24.87,100,34.375,100h31.25c9.505,0,17.611-3.354,24.316-10.059C96.646,83.236,100,75.13,100,65.625v-31.25
		C100,33.854,99.937,33.073,99.805,32.031z"/>
</g>
</g></g><g transform="translate(256,352) scale(0.165,0.165)"><g transform="" style="fill: rgb(255, 255, 255);">
<g>
	<path d="M100,0H0v65.625c0,9.505,3.353,17.611,10.059,24.316C16.765,96.646,24.87,100,34.375,100H100V0z"/>
</g>
</g></g><g transform="translate(272,352) scale(0.165,0.165)"><g transform="" style="fill: rgb(255, 255, 255);">
<g>
	<path d="M65.625,0H0v100h65.625c9.505,0,17.611-3.354,24.316-10.059C96.646,83.236,100,75.13,100,65.625v-31.25
		c0-9.505-3.354-17.611-10.059-24.316C83.236,3.354,75.13,0,65.625,0z"/>
</g>
</g></g><g transform="translate(304,352) scale(0.165,0.165)"><g transform="" style="fill: rgb(255, 255, 255);">
<g>
	<path d="M100,0H0v65.625c0,9.505,3.353,17.611,10.059,24.316C16.765,96.646,24.87,100,34.375,100H100V0z"/>
</g>
</g></g><g transform="translate(320,352) scale(0.165,0.165)"><g transform="" style="fill: rgb(255, 255, 255);">
<rect width="100" height="100"/>
</g></g><g transform="translate(352,352) scale(0.165,0.165)"><g transform="" style="fill: rgb(255, 255, 255);">
<g>
	<path d="M100,65.625c0,9.507-3.355,17.611-10.059,24.316C83.236,96.645,75.132,100,65.625,100h-31.25
		c-9.504,0-17.61-3.355-24.315-10.059C3.354,83.236,0,75.132,0,65.625v-31.25c0-9.504,3.353-17.61,10.059-24.315
		C16.766,3.354,24.871,0,34.375,0h31.25c9.508,0,17.613,3.353,24.316,10.059C96.646,16.766,100,24.871,100,34.375V65.625z"/>
</g>
</g></g><g transform="translate(384,352) scale(0.165,0.165)"><g transform="" style="fill: rgb(255, 255, 255);">
<rect width="100" height="100"/>
</g></g><g transform="translate(416,352) scale(0.165,0.165)"><g transform="" style="fill: rgb(255, 255, 255);">
<g>
	<path d="M100,34.375V0H34.375C24.87,0,16.764,3.353,10.059,10.059S0,24.87,0,34.375v31.25c0,9.505,3.353,17.611,10.059,24.316
		C16.765,96.646,24.87,100,34.375,100H100V34.375z"/>
</g>
</g></g><g transform="translate(432,352) scale(0.165,0.165)"><g transform="" style="fill: rgb(255, 255, 255);">
<rect width="100" height="100"/>
</g></g><g transform="translate(448,352) scale(0.165,0.165)"><g transform="" style="fill: rgb(255, 255, 255);">
<g>
	<path d="M100,0H0v100h65.625c9.505,0,17.611-3.354,24.316-10.059C96.646,83.236,100,75.13,100,65.625V0z"/>
</g>
</g></g><g transform="translate(128,368) scale(0.165,0.165)"><g transform="" style="fill: rgb(255, 255, 255);">
<g>
	<path d="M100,34.375c0-9.505-3.354-17.611-10.059-24.316C83.236,3.354,75.13,0,65.625,0h-31.25C24.87,0,16.764,3.353,10.059,10.059
		S0,24.87,0,34.375v31.25c0,0.521,0.065,1.303,0.195,2.344H0V100h100V67.969h-0.195c0.132-1.041,0.195-1.822,0.195-2.344V34.375z"/>
</g>
</g></g><g transform="translate(176,368) scale(0.165,0.165)"><g transform="" style="fill: rgb(255, 255, 255);">
<g>
	<path d="M100,34.375V0H34.375C24.87,0,16.764,3.353,10.059,10.059S0,24.87,0,34.375V100h100V34.375z"/>
</g>
</g></g><g transform="translate(192,368) scale(0.165,0.165)"><g transform="" style="fill: rgb(255, 255, 255);">
<rect width="100" height="100"/>
</g></g><g transform="translate(208,368) scale(0.165,0.165)"><g transform="" style="fill: rgb(255, 255, 255);">
<g>
	<path d="M100,34.375c0-9.505-3.354-17.611-10.059-24.316C83.236,3.354,75.13,0,65.625,0H0v100h100V34.375z"/>
</g>
</g></g><g transform="translate(320,368) scale(0.165,0.165)"><g transform="" style="fill: rgb(255, 255, 255);">
<rect width="100" height="100"/>
</g></g><g transform="translate(384,368) scale(0.165,0.165)"><g transform="" style="fill: rgb(255, 255, 255);">
<rect width="100" height="100"/>
</g></g><g transform="translate(128,384) scale(0.165,0.165)"><g transform="" style="fill: rgb(255, 255, 255);">
<g>
	<path d="M99.805,32.031H100V0H0v32.031h0.195C0.065,33.073,0,33.854,0,34.375v31.25c0,9.505,3.353,17.611,10.059,24.316
		C16.765,96.646,24.87,100,34.375,100h31.25c9.505,0,17.611-3.354,24.316-10.059C96.646,83.236,100,75.13,100,65.625v-31.25
		C100,33.854,99.937,33.073,99.805,32.031z"/>
</g>
</g></g><g transform="translate(176,384) scale(0.165,0.165)"><g transform="" style="fill: rgb(255, 255, 255);">
<rect width="100" height="100"/>
</g></g><g transform="translate(208,384) scale(0.165,0.165)"><g transform="" style="fill: rgb(255, 255, 255);">
<g>
	<path d="M100,0H0v65.625c0,9.505,3.353,17.611,10.059,24.316C16.765,96.646,24.87,100,34.375,100H100V0z"/>
</g>
</g></g><g transform="translate(224,384) scale(0.165,0.165)"><g transform="" style="fill: rgb(255, 255, 255);">
<rect width="100" height="100"/>
</g></g><g transform="translate(240,384) scale(0.165,0.165)"><g transform="" style="fill: rgb(255, 255, 255);">
<rect width="100" height="100"/>
</g></g><g transform="translate(256,384) scale(0.165,0.165)"><g transform="" style="fill: rgb(255, 255, 255);">
<rect width="100" height="100"/>
</g></g><g transform="translate(272,384) scale(0.165,0.165)"><g transform="" style="fill: rgb(255, 255, 255);">
<g>
	<path d="M65.625,0H0v100h65.625c9.505,0,17.611-3.354,24.316-10.059C96.646,83.236,100,75.13,100,65.625v-31.25
		c0-9.505-3.354-17.611-10.059-24.316C83.236,3.354,75.13,0,65.625,0z"/>
</g>
</g></g><g transform="translate(320,384) scale(0.165,0.165)"><g transform="" style="fill: rgb(255, 255, 255);">
<rect width="100" height="100"/>
</g></g><g transform="translate(336,384) scale(0.165,0.165)"><g transform="" style="fill: rgb(255, 255, 255);">
<rect width="100" height="100"/>
</g></g><g transform="translate(352,384) scale(0.165,0.165)"><g transform="" style="fill: rgb(255, 255, 255);">
<rect width="100" height="100"/>
</g></g><g transform="translate(368,384) scale(0.165,0.165)"><g transform="" style="fill: rgb(255, 255, 255);">
<rect width="100" height="100"/>
</g></g><g transform="translate(384,384) scale(0.165,0.165)"><g transform="" style="fill: rgb(255, 255, 255);">
<rect width="100" height="100"/>
</g></g><g transform="translate(400,384) scale(0.165,0.165)"><g transform="" style="fill: rgb(255, 255, 255);">
<g>
	<path d="M65.625,0H0v100h65.625c9.505,0,17.611-3.354,24.316-10.059C96.646,83.236,100,75.13,100,65.625v-31.25
		c0-9.505-3.354-17.611-10.059-24.316C83.236,3.354,75.13,0,65.625,0z"/>
</g>
</g></g><g transform="translate(432,384) scale(0.165,0.165)"><g transform="" style="fill: rgb(255, 255, 255);">
<g>
	<path d="M100,65.625c0,9.507-3.355,17.611-10.059,24.316C83.236,96.645,75.132,100,65.625,100h-31.25
		c-9.504,0-17.61-3.355-24.315-10.059C3.354,83.236,0,75.132,0,65.625v-31.25c0-9.504,3.353-17.61,10.059-24.315
		C16.766,3.354,24.871,0,34.375,0h31.25c9.508,0,17.613,3.353,24.316,10.059C96.646,16.766,100,24.871,100,34.375V65.625z"/>
</g>
</g></g><g transform="translate(144,400) scale(0.165,0.165)"><g transform="" style="fill: rgb(255, 255, 255);">
<g>
	<path d="M100,34.375V0H34.375C24.87,0,16.764,3.353,10.059,10.059S0,24.87,0,34.375V100h100V34.375z"/>
</g>
</g></g><g transform="translate(160,400) scale(0.165,0.165)"><g transform="" style="fill: rgb(255, 255, 255);">
<rect width="100" height="100"/>
</g></g><g transform="translate(176,400) scale(0.165,0.165)"><g transform="" style="fill: rgb(255, 255, 255);">
<rect width="100" height="100"/>
</g></g><g transform="translate(192,400) scale(0.165,0.165)"><g transform="" style="fill: rgb(255, 255, 255);">
<g>
	<path d="M100,34.375c0-9.505-3.354-17.611-10.059-24.316C83.236,3.354,75.13,0,65.625,0H0v100h100V34.375z"/>
</g>
</g></g><g transform="translate(224,400) scale(0.165,0.165)"><g transform="" style="fill: rgb(255, 255, 255);">
<rect width="100" height="100"/>
</g></g><g transform="translate(288,400) scale(0.165,0.165)"><g transform="" style="fill: rgb(255, 255, 255);">
<g>
	<path d="M100,65.625c0,9.507-3.355,17.611-10.059,24.316C83.236,96.645,75.132,100,65.625,100h-31.25
		c-9.504,0-17.61-3.355-24.315-10.059C3.354,83.236,0,75.132,0,65.625v-31.25c0-9.504,3.353-17.61,10.059-24.315
		C16.766,3.354,24.871,0,34.375,0h31.25c9.508,0,17.613,3.353,24.316,10.059C96.646,16.766,100,24.871,100,34.375V65.625z"/>
</g>
</g></g><g transform="translate(320,400) scale(0.165,0.165)"><g transform="" style="fill: rgb(255, 255, 255);">
<g>
	<path d="M100,0H0v65.625c0,9.505,3.353,17.611,10.059,24.316C16.765,96.646,24.87,100,34.375,100H100V0z"/>
</g>
</g></g><g transform="translate(336,400) scale(0.165,0.165)"><g transform="" style="fill: rgb(255, 255, 255);">
<g>
	<path d="M100,0H0v100h65.625c9.505,0,17.611-3.354,24.316-10.059C96.646,83.236,100,75.13,100,65.625V0z"/>
</g>
</g></g><g transform="translate(384,400) scale(0.165,0.165)"><g transform="" style="fill: rgb(255, 255, 255);">
<rect width="100" height="100"/>
</g></g><g transform="translate(416,400) scale(0.165,0.165)"><g transform="" style="fill: rgb(255, 255, 255);">
<g>
	<path d="M100,65.625c0,9.507-3.355,17.611-10.059,24.316C83.236,96.645,75.132,100,65.625,100h-31.25
		c-9.504,0-17.61-3.355-24.315-10.059C3.354,83.236,0,75.132,0,65.625v-31.25c0-9.504,3.353-17.61,10.059-24.315
		C16.766,3.354,24.871,0,34.375,0h31.25c9.508,0,17.613,3.353,24.316,10.059C96.646,16.766,100,24.871,100,34.375V65.625z"/>
</g>
</g></g><g transform="translate(128,416) scale(0.165,0.165)"><g transform="" style="fill: rgb(255, 255, 255);">
<g>
	<path d="M100,34.375V0H34.375C24.87,0,16.764,3.353,10.059,10.059S0,24.87,0,34.375v31.25c0,9.505,3.353,17.611,10.059,24.316
		C16.765,96.646,24.87,100,34.375,100H100V34.375z"/>
</g>
</g></g><g transform="translate(144,416) scale(0.165,0.165)"><g transform="" style="fill: rgb(255, 255, 255);">
<rect width="100" height="100"/>
</g></g><g transform="translate(176,416) scale(0.165,0.165)"><g transform="" style="fill: rgb(255, 255, 255);">
<rect width="100" height="100"/>
</g></g><g transform="translate(192,416) scale(0.165,0.165)"><g transform="" style="fill: rgb(255, 255, 255);">
<rect width="100" height="100"/>
</g></g><g transform="translate(208,416) scale(0.165,0.165)"><g transform="" style="fill: rgb(255, 255, 255);">
<rect width="100" height="100"/>
</g></g><g transform="translate(224,416) scale(0.165,0.165)"><g transform="" style="fill: rgb(255, 255, 255);">
<g>
	<path d="M100,0H0v100h65.625c9.505,0,17.611-3.354,24.316-10.059C96.646,83.236,100,75.13,100,65.625V0z"/>
</g>
</g></g><g transform="translate(256,416) scale(0.165,0.165)"><g transform="" style="fill: rgb(255, 255, 255);">
<g>
	<path d="M100,65.625c0,9.507-3.355,17.611-10.059,24.316C83.236,96.645,75.132,100,65.625,100h-31.25
		c-9.504,0-17.61-3.355-24.315-10.059C3.354,83.236,0,75.132,0,65.625v-31.25c0-9.504,3.353-17.61,10.059-24.315
		C16.766,3.354,24.871,0,34.375,0h31.25c9.508,0,17.613,3.353,24.316,10.059C96.646,16.766,100,24.871,100,34.375V65.625z"/>
</g>
</g></g><g transform="translate(304,416) scale(0.165,0.165)"><g transform="" style="fill: rgb(255, 255, 255);">
<g>
	<path d="M100,65.625c0,9.507-3.355,17.611-10.059,24.316C83.236,96.645,75.132,100,65.625,100h-31.25
		c-9.504,0-17.61-3.355-24.315-10.059C3.354,83.236,0,75.132,0,65.625v-31.25c0-9.504,3.353-17.61,10.059-24.315
		C16.766,3.354,24.871,0,34.375,0h31.25c9.508,0,17.613,3.353,24.316,10.059C96.646,16.766,100,24.871,100,34.375V65.625z"/>
</g>
</g></g><g transform="translate(368,416) scale(0.165,0.165)"><g transform="" style="fill: rgb(255, 255, 255);">
<g>
	<path d="M100,34.375V0H34.375C24.87,0,16.764,3.353,10.059,10.059S0,24.87,0,34.375V100h100V34.375z"/>
</g>
</g></g><g transform="translate(384,416) scale(0.165,0.165)"><g transform="" style="fill: rgb(255, 255, 255);">
<g>
	<path d="M100,0H0v100h65.625c9.505,0,17.611-3.354,24.316-10.059C96.646,83.236,100,75.13,100,65.625V0z"/>
</g>
</g></g><g transform="translate(448,416) scale(0.165,0.165)"><g transform="" style="fill: rgb(255, 255, 255);">
<g>
	<path d="M100,65.625c0,9.507-3.355,17.611-10.059,24.316C83.236,96.645,75.132,100,65.625,100h-31.25
		c-9.504,0-17.61-3.355-24.315-10.059C3.354,83.236,0,75.132,0,65.625v-31.25c0-9.504,3.353-17.61,10.059-24.315
		C16.766,3.354,24.871,0,34.375,0h31.25c9.508,0,17.613,3.353,24.316,10.059C96.646,16.766,100,24.871,100,34.375V65.625z"/>
</g>
</g></g><g transform="translate(144,432) scale(0.165,0.165)"><g transform="" style="fill: rgb(255, 255, 255);">
<rect width="100" height="100"/>
</g></g><g transform="translate(176,432) scale(0.165,0.165)"><g transform="" style="fill: rgb(255, 255, 255);">
<rect width="100" height="100"/>
</g></g><g transform="translate(240,432) scale(0.165,0.165)"><g transform="" style="fill: rgb(255, 255, 255);">
<g>
	<path d="M100,34.375c0-9.505-3.354-17.611-10.059-24.316C83.236,3.354,75.13,0,65.625,0h-31.25C24.87,0,16.764,3.353,10.059,10.059
		S0,24.87,0,34.375v31.25c0,0.521,0.065,1.303,0.195,2.344H0V100h100V67.969h-0.195c0.132-1.041,0.195-1.822,0.195-2.344V34.375z"/>
</g>
</g></g><g transform="translate(272,432) scale(0.165,0.165)"><g transform="" style="fill: rgb(255, 255, 255);">
<g>
	<path d="M100,65.625c0,9.507-3.355,17.611-10.059,24.316C83.236,96.645,75.132,100,65.625,100h-31.25
		c-9.504,0-17.61-3.355-24.315-10.059C3.354,83.236,0,75.132,0,65.625v-31.25c0-9.504,3.353-17.61,10.059-24.315
		C16.766,3.354,24.871,0,34.375,0h31.25c9.508,0,17.613,3.353,24.316,10.059C96.646,16.766,100,24.871,100,34.375V65.625z"/>
</g>
</g></g><g transform="translate(320,432) scale(0.165,0.165)"><g transform="" style="fill: rgb(255, 255, 255);">
<g>
	<path d="M100,34.375V0H34.375C24.87,0,16.764,3.353,10.059,10.059S0,24.87,0,34.375V100h100V34.375z"/>
</g>
</g></g><g transform="translate(336,432) scale(0.165,0.165)"><g transform="" style="fill: rgb(255, 255, 255);">
<g>
	<path d="M100,34.375c0-9.505-3.354-17.611-10.059-24.316C83.236,3.354,75.13,0,65.625,0H0v100h100V34.375z"/>
</g>
</g></g><g transform="translate(368,432) scale(0.165,0.165)"><g transform="" style="fill: rgb(255, 255, 255);">
<g>
	<path d="M99.805,32.031H100V0H0v32.031h0.195C0.065,33.073,0,33.854,0,34.375v31.25c0,9.505,3.353,17.611,10.059,24.316
		C16.765,96.646,24.87,100,34.375,100h31.25c9.505,0,17.611-3.354,24.316-10.059C96.646,83.236,100,75.13,100,65.625v-31.25
		C100,33.854,99.937,33.073,99.805,32.031z"/>
</g>
</g></g><g transform="translate(432,432) scale(0.165,0.165)"><g transform="" style="fill: rgb(255, 255, 255);">
<g>
	<path d="M100,34.375c0-9.505-3.354-17.611-10.059-24.316C83.236,3.354,75.13,0,65.625,0h-31.25C24.87,0,16.764,3.353,10.059,10.059
		S0,24.87,0,34.375v31.25c0,0.521,0.065,1.303,0.195,2.344H0V100h100V67.969h-0.195c0.132-1.041,0.195-1.822,0.195-2.344V34.375z"/>
</g>
</g></g><g transform="translate(144,448) scale(0.165,0.165)"><g transform="" style="fill: rgb(255, 255, 255);">
<g>
	<path d="M100,0H0v65.625c0,9.505,3.353,17.611,10.059,24.316C16.765,96.646,24.87,100,34.375,100H100V0z"/>
</g>
</g></g><g transform="translate(160,448) scale(0.165,0.165)"><g transform="" style="fill: rgb(255, 255, 255);">
<rect width="100" height="100"/>
</g></g><g transform="translate(176,448) scale(0.165,0.165)"><g transform="" style="fill: rgb(255, 255, 255);">
<rect width="100" height="100"/>
</g></g><g transform="translate(192,448) scale(0.165,0.165)"><g transform="" style="fill: rgb(255, 255, 255);">
<g>
	<path d="M65.625,0H0v100h65.625c9.505,0,17.611-3.354,24.316-10.059C96.646,83.236,100,75.13,100,65.625v-31.25
		c0-9.505-3.354-17.611-10.059-24.316C83.236,3.354,75.13,0,65.625,0z"/>
</g>
</g></g><g transform="translate(240,448) scale(0.165,0.165)"><g transform="" style="fill: rgb(255, 255, 255);">
<g>
	<path d="M99.805,32.031H100V0H0v32.031h0.195C0.065,33.073,0,33.854,0,34.375v31.25c0,9.505,3.353,17.611,10.059,24.316
		C16.765,96.646,24.87,100,34.375,100h31.25c9.505,0,17.611-3.354,24.316-10.059C96.646,83.236,100,75.13,100,65.625v-31.25
		C100,33.854,99.937,33.073,99.805,32.031z"/>
</g>
</g></g><g transform="translate(320,448) scale(0.165,0.165)"><g transform="" style="fill: rgb(255, 255, 255);">
<g>
	<path d="M100,0H0v65.625c0,9.505,3.353,17.611,10.059,24.316C16.765,96.646,24.87,100,34.375,100H100V0z"/>
</g>
</g></g><g transform="translate(336,448) scale(0.165,0.165)"><g transform="" style="fill: rgb(255, 255, 255);">
<rect width="100" height="100"/>
</g></g><g transform="translate(352,448) scale(0.165,0.165)"><g transform="" style="fill: rgb(255, 255, 255);">
<g>
	<path d="M65.625,0H0v100h65.625c9.505,0,17.611-3.354,24.316-10.059C96.646,83.236,100,75.13,100,65.625v-31.25
		c0-9.505-3.354-17.611-10.059-24.316C83.236,3.354,75.13,0,65.625,0z"/>
</g>
</g></g><g transform="translate(384,448) scale(0.165,0.165)"><g transform="" style="fill: rgb(255, 255, 255);">
<g>
	<path d="M100,65.625c0,9.507-3.355,17.611-10.059,24.316C83.236,96.645,75.132,100,65.625,100h-31.25
		c-9.504,0-17.61-3.355-24.315-10.059C3.354,83.236,0,75.132,0,65.625v-31.25c0-9.504,3.353-17.61,10.059-24.315
		C16.766,3.354,24.871,0,34.375,0h31.25c9.508,0,17.613,3.353,24.316,10.059C96.646,16.766,100,24.871,100,34.375V65.625z"/>
</g>
</g></g><g transform="translate(432,448) scale(0.165,0.165)"><g transform="" style="fill: rgb(255, 255, 255);">
<g>
	<path d="M100,0H0v65.625c0,9.505,3.353,17.611,10.059,24.316C16.765,96.646,24.87,100,34.375,100H100V0z"/>
</g>
</g></g><g transform="translate(448,448) scale(0.165,0.165)"><g transform="" style="fill: rgb(255, 255, 255);">
<g>
	<path d="M65.625,0H0v100h65.625c9.505,0,17.611-3.354,24.316-10.059C96.646,83.236,100,75.13,100,65.625v-31.25
		c0-9.505-3.354-17.611-10.059-24.316C83.236,3.354,75.13,0,65.625,0z"/>
</g>
</g></g><g transform="translate(0,0) scale(1.12, 1.12)"><g transform="" style="fill: rgb(255, 255, 255);">
<g>
	<path style="fill:none;" d="M65.859,15.008H34.141c-4.082,0-7.869,1.258-10.979,3.398c-2.419,1.665-4.428,3.864-5.848,6.421
		C15.838,27.484,15,30.526,15,33.758v32.471c0,10.344,8.586,18.76,19.145,18.76L50,84.992l15.855-0.004
		C76.414,84.988,85,76.572,85,66.229V33.758C85,23.419,76.414,15.008,65.859,15.008z"/>
	<path d="M65.859,0.008H34.141h0C18.683,0.008,5.587,10.221,1.4,24.18c-0.433,1.444-0.771,2.928-1.006,4.445
		C0.135,30.299,0,32.013,0,33.758v32.471c0,18.619,15.32,33.76,34.141,33.76L50,99.992l15.859-0.004
		c18.82,0,34.141-15.141,34.141-33.76V33.758C100,15.148,84.68,0.008,65.859,0.008z M85,66.229c0,10.344-8.586,18.76-19.145,18.76
		L50,84.992l-15.855-0.004C23.586,84.988,15,76.572,15,66.229V33.758c0-3.231,0.838-6.273,2.313-8.931
		c1.42-2.557,3.429-4.756,5.848-6.421c3.11-2.141,6.897-3.398,10.979-3.398h31.719C76.414,15.008,85,23.419,85,33.758V66.229z"/>
</g>
</g></g><g transform="translate(352,0) scale(1.12, 1.12)"><g transform="" style="fill: rgb(255, 255, 255);">
<g>
	<path style="fill:none;" d="M65.859,15.008H34.141c-4.082,0-7.869,1.258-10.979,3.398c-2.419,1.665-4.428,3.864-5.848,6.421
		C15.838,27.484,15,30.526,15,33.758v32.471c0,10.344,8.586,18.76,19.145,18.76L50,84.992l15.855-0.004
		C76.414,84.988,85,76.572,85,66.229V33.758C85,23.419,76.414,15.008,65.859,15.008z"/>
	<path d="M65.859,0.008H34.141h0C18.683,0.008,5.587,10.221,1.4,24.18c-0.433,1.444-0.771,2.928-1.006,4.445
		C0.135,30.299,0,32.013,0,33.758v32.471c0,18.619,15.32,33.76,34.141,33.76L50,99.992l15.859-0.004
		c18.82,0,34.141-15.141,34.141-33.76V33.758C100,15.148,84.68,0.008,65.859,0.008z M85,66.229c0,10.344-8.586,18.76-19.145,18.76
		L50,84.992l-15.855-0.004C23.586,84.988,15,76.572,15,66.229V33.758c0-3.231,0.838-6.273,2.313-8.931
		c1.42-2.557,3.429-4.756,5.848-6.421c3.11-2.141,6.897-3.398,10.979-3.398h31.719C76.414,15.008,85,23.419,85,33.758V66.229z"/>
</g>
</g></g><g transform="translate(0,352) scale(1.12, 1.12)"><g transform="" style="fill: rgb(255, 255, 255);">
<g>
	<path style="fill:none;" d="M65.859,15.008H34.141c-4.082,0-7.869,1.258-10.979,3.398c-2.419,1.665-4.428,3.864-5.848,6.421
		C15.838,27.484,15,30.526,15,33.758v32.471c0,10.344,8.586,18.76,19.145,18.76L50,84.992l15.855-0.004
		C76.414,84.988,85,76.572,85,66.229V33.758C85,23.419,76.414,15.008,65.859,15.008z"/>
	<path d="M65.859,0.008H34.141h0C18.683,0.008,5.587,10.221,1.4,24.18c-0.433,1.444-0.771,2.928-1.006,4.445
		C0.135,30.299,0,32.013,0,33.758v32.471c0,18.619,15.32,33.76,34.141,33.76L50,99.992l15.859-0.004
		c18.82,0,34.141-15.141,34.141-33.76V33.758C100,15.148,84.68,0.008,65.859,0.008z M85,66.229c0,10.344-8.586,18.76-19.145,18.76
		L50,84.992l-15.855-0.004C23.586,84.988,15,76.572,15,66.229V33.758c0-3.231,0.838-6.273,2.313-8.931
		c1.42-2.557,3.429-4.756,5.848-6.421c3.11-2.141,6.897-3.398,10.979-3.398h31.719C76.414,15.008,85,23.419,85,33.758V66.229z"/>
</g>
</g></g><g transform="translate(32,32) scale(0.48, 0.48)"><g transform="" style="fill: rgb(255, 255, 255);">
<g>
	<g id="XMLID_1_">
		<g>
			<path d="M27.351,100c-15.09,0-27.365-12.032-27.365-26.808V26.794c0-4.616,1.2-8.96,3.301-12.761
				c2.029-3.658,4.901-6.802,8.36-9.174C16.09,1.801,21.506,0,27.336,0h45.327c15.076,0,27.351,12.018,27.351,26.793v46.398
				c0,14.775-12.274,26.808-27.351,26.808H50H27.351z"/>
		</g>
		<g>
		</g>
	</g>
</g>
</g></g><g transform="translate(384,32) scale(0.48, 0.48)"><g transform="" style="fill: rgb(255, 255, 255);">
<g>
	<g id="XMLID_1_">
		<g>
			<path d="M27.351,100c-15.09,0-27.365-12.032-27.365-26.808V26.794c0-4.616,1.2-8.96,3.301-12.761
				c2.029-3.658,4.901-6.802,8.36-9.174C16.09,1.801,21.506,0,27.336,0h45.327c15.076,0,27.351,12.018,27.351,26.793v46.398
				c0,14.775-12.274,26.808-27.351,26.808H50H27.351z"/>
		</g>
		<g>
		</g>
	</g>
</g>
</g></g><g transform="translate(32,384) scale(0.48, 0.48)"><g transform="" style="fill: rgb(255, 255, 255);">
<g>
	<g id="XMLID_1_">
		<g>
			<path d="M27.351,100c-15.09,0-27.365-12.032-27.365-26.808V26.794c0-4.616,1.2-8.96,3.301-12.761
				c2.029-3.658,4.901-6.802,8.36-9.174C16.09,1.801,21.506,0,27.336,0h45.327c15.076,0,27.351,12.018,27.351,26.793v46.398
				c0,14.775-12.274,26.808-27.351,26.808H50H27.351z"/>
		</g>
		<g>
		</g>
	</g>
</g>
</g></g></g></svg>